<svg version="1" xmlns="http://www.w3.org/2000/svg" width="933.333" height="933.333" viewBox="0 0 700.000000 700.000000"><path d="M327.8.4c-.1.2-4.1.6-8.8 1-4.7.4-9.8.9-11.4 1.2-1.5.2-4.7.7-7 .9-2.2.2-5.2.6-6.6.9-1.4.3-4.3.7-6.5 1.1-2.2.3-4.7.7-5.5 1-.8.2-2.7.6-4.1.9-5.3.9-20.7 4.9-31.9 8.3-31.5 9.6-69.3 28-94.2 45.8-3.1 2.2-6.6 4.7-7.8 5.5-4.4 2.9-18.6 14.4-26.5 21.4-35.7 31.5-68 75.4-86.5 117.6-2.3 5.2-4.6 10.4-5.1 11.5-4.7 10.2-14.9 42.9-17.5 56-.3 1.5-1.9 9.3-2.9 13.5 0 .3-.4 2.7-.9 5.5-.4 2.7-.9 6.3-1.2 7.9-.3 1.6-.7 5-.9 7.5-.3 2.5-.8 8.2-1.2 12.6-1.6 16.1-.8 57.2 1.3 71 .2 1.6.6 4.8.9 7 1.7 15.2 6.3 36.2 12.2 55.5 7 23 22.1 56.7 34.3 76.3 3 4.8 6 9.5 6.5 10.5 2.4 4.3 13.3 19.2 21.2 29 19.6 24.3 43 46.4 68.8 64.8 6.1 4.4 12 8.4 13 9.1 1.1.6 5.8 3.5 10.5 6.4 17.7 11 46.9 24.5 69 31.9 6.2 2.1 7.9 2.6 16.8 5 6 1.7 7.1 2 9 2.4.9.2 3.5.9 5.7 1.5 6.1 1.6 22.4 4.6 30.5 5.6 2.5.3 5.6.7 6.9 1 16.3 3.1 69.5 2.6 90.8-.9 2.1-.4 5.4-.9 7.3-1.1 1.9-.3 4.6-.7 6-1 1.4-.2 3.9-.7 5.5-1 18.2-3.4 44.8-11.4 64.8-19.4 14.7-5.9 43.6-20.5 50.1-25.4.6-.4 5.8-3.8 11.6-7.6 21.7-14.1 47.4-36.1 64.2-54.9 2.8-3.1 6.5-7.3 8.3-9.3 9.8-10.8 27.3-35.8 37.5-53.4 16.1-27.8 31.5-67.7 37.6-97 1.8-8.6 5.5-30 5.9-34.5.3-3 .8-7.3 1.1-9.5.9-7.2 1.2-51.8.3-60.7-1.3-14.4-2.2-21-3.9-30.8-.6-3.6-1.3-7.9-1.6-9.5-2.2-12.5-12.5-48-16.9-58-.7-1.7-3-7.1-5.1-12-19.4-46.7-57.5-98-96.4-129.5-3-2.5-5.7-4.8-6-5.1-1-1.1-16.7-12.7-23-17-36.4-24.6-81.6-43.8-123.5-52.4-4.4-.9-8.9-1.9-10-2.1-1.1-.2-3.8-.6-6-.9-2.2-.3-5.1-.7-6.5-1-1.3-.2-5.4-.7-9-1.1-3.6-.3-7.8-.8-9.5-1.1-3.3-.5-53.1-1.3-53.7-.9zm47.7 22.1c6.1.4 11.2.8 11.5 1 .3.2 3.7.6 7.5 1 3.9.4 7.3.9 7.6 1.1.3.1 2.8.6 5.5.9 2.7.4 5.7.9 6.6 1.1 1 .3 3 .7 4.5 1 19.1 3.3 51.7 14.6 74.8 26 34.6 16.9 60.7 35.6 88 62.9 32.3 32.2 54.7 65.2 71.6 105.7 5.8 14 12.5 33.4 14.4 41.8.1.8.8 3.3 1.4 5.5 1.8 6.7 6 29.4 6.7 35.9.4 3.3.8 6.3.9 6.6.7 1.2 1.9 24.5 1.8 37 0 20.7-1.8 42.3-4.8 57-.2 1.4-.7 3.6-.9 5-4.3 24.9-14.4 55.3-26.9 81-7.6 15.6-10.9 21.4-20.4 36.2-11.6 17.9-25.9 35.5-42.8 52.4-30.1 30.1-61.3 51.6-101.5 69.8-23.6 10.6-62.9 21.5-87.5 24.2-3.3.3-6.3.8-6.6 1-1.1.6-26.2 1.8-38.9 1.8-21.7-.1-47.5-2.9-70.7-7.8-20.1-4.3-51.5-15.6-73.3-26.5-61.8-30.8-111.6-79.3-144.4-140.3-2-3.7-3.6-7-3.6-7.3 0-.5 296.2-296.8 299.3-299.4 1.6-1.2 6.2 3.1 46.3 43.3l44.6 44.6-104.8 104.7-104.7 104.7 6.9 6.4c15.2 13.9 30.3 23.8 47.8 31.2 12.1 5.2 26.8 9.5 35.6 10.6.8.1 3.8.5 6.5.9 12.4 2 35 1.1 51.5-1.9 29.1-5.4 61.1-22.9 82-44.9s33.1-44.1 40.5-73.6c3.1-12.3 4-20 4-37.1 0-16.5-.7-23.5-4-36.8-5.6-23.1-16.8-45.9-31.1-63.4-1.9-2.3-29.7-30.5-61.7-62.5L356.5 165 201.3 320.2 46.2 475.3l-1.5-3.5c-2.7-6.5-11-31.9-12.3-37.3-.1-.6-.9-3.7-1.7-7-.9-3.3-2.3-10.1-3.2-15-1-5-1.8-9.7-2-10.5-.1-.8-.6-4-.9-7.1-.4-3.1-.9-6.7-1.1-8-2.3-11.8-2.3-62.2 0-73.4.2-1.1.7-4.7 1-8 .4-3.3 1-7.8 1.5-10s1.1-5.8 1.4-8c2.3-14.8 11.8-46.8 18.2-61.2.8-1.7 1.4-3.4 1.4-3.8 0-1.4 13.1-27.7 17-34.1 2.2-3.6 4-6.8 4-7.1 0-.4 12.6-19.8 14.2-21.8.4-.6 3.3-4.4 6.4-8.5 22.7-30.1 55.1-59.7 87.6-79.9 44.6-27.9 100.5-45.9 151.3-48.7 6-.4 11.1-.7 11.2-.9.6-.4 26.4.3 36.8 1zm92.1 287.7c15.2 23.1 23.3 50.6 22.8 77.4-.6 37.2-14.4 69.6-40.8 95.9-22 21.8-49.9 35.3-81.1 39-6.6.8-25.9.8-31 0-16.5-2.5-26.8-5.4-39.6-11-8.2-3.6-20.1-10.4-26.7-15.4l-3.3-2.4 96.2-96.3c73.4-73.4 96.6-96.1 97.6-95.2.7.5 3.3 4.2 5.9 8z"/></svg>