<svg id="Layer_1" data-name="Layer 1" xmlns="http://www.w3.org/2000/svg" viewBox="0 0 800 800"><defs><style>.cls-1{fill:none;}.cls-2{opacity:0.06;}.cls-3{font-size:102.99px;font-family:Coves-Bold, Coves;font-weight:700;}.cls-4{font-size:103.22px;font-family:Coves-Light, Coves;font-weight:300;}</style></defs><title>round-athena</title><path class="cls-1" d="M329.31,395.75c-18.32,11.82-26,32.09-30.51,52.38-5.38,24-7.75,49.42-.94,73.41,7.79,27.46,27.06,49.11,50.52,64.61,13.78,9.11,28.94,17.5,44.94,21.87,11.47,3.13,23.42,4,34.9,7.11,27.71,7.57,52,27.49,65.16,53a86,86,0,0,1,9.75,42.19c-.28,7.55-2.48,14.76-5.31,21.72-1.39,3.42-14,23.14-6.44,23.66,1.9.13,3.61-1.05,5.1-2.23C533,724.42,549,667,549.85,622.27c.47-23-8.59-42.68-22.2-61-29.91-40.18-49.09-30.22-72.81-62.46-25.54-34.72-33.51-87.3-16.51-105,9.94-10.36,27.28-7.56,27.21-8.28-.11-1.15-32.8,3.12-69.41,4.56C348.74,392,342.5,387.24,329.31,395.75Z"/><path d="M312.92,379.9c-31.63,25.54-34.72,76.43-28.05,113,5.61,30.82,22.08,60.87,44.74,82.49,19.76,18.85,47.88,33.16,75.12,37.69-35.91-14.78-67.28-41.27-85.1-76.09C306.06,510.46,301,480.16,307,450.85a136.23,136.23,0,0,1,10.52-31.12C323,408.27,333,393.65,333,393.65s-5-3.57-6.72-4.94a37,37,0,0,1-9.44-11.46Z"/><path class="cls-1" d="M389.06,398.23a66.54,66.54,0,0,1-13.82,3.87c-6.26,1-24.38,3.73-42.28-7.59l-.8-.51c-14.05-9.13-27-30.2-25.76-54,1-19.13,11.48-42.05,30.27-50,19.07-8,27.71,7.44,62.65,6.29,31.49-1,38.06-14,53.5-6.38,17.15,8.47,26.83,27.27,28.69,46.8,1.58,16.59-2.47,33.7-12.36,45.48-16.25,19.33-39.78,20.11-44.09,20.24a62.55,62.55,0,0,1-24.18-4.12"/><path class="cls-2" d="M453.83,450.14a3.84,3.84,0,0,1-.18,1.34,9.07,9.07,0,0,1-.84,1.82c-3.14,5.23-9.75,8-15.69,7.41A17.48,17.48,0,0,1,425,453.85a6.85,6.85,0,0,1-1.62-3.18c2,.7,3.84,1.77,5.82,2.56a23.92,23.92,0,0,0,6.3,1.44,27.82,27.82,0,0,0,14.82-2.57C451.39,451.56,452.67,450.42,453.83,450.14Z"/><path d="M526.78,665.38a4.73,4.73,0,0,0,.43.57c.18.22.38.43.58.63l.15.15,0,0v-1.33l-1.55-.74s0,.07,0,.09l0,.1c0,.07.07.13.1.2Z"/><path d="M400.14,351.58a10.83,10.83,0,0,0-7.12-1.06c-11,1.63-7.3,17.45-4.84,24.84,2.05,6.16,4.25,12.23,6.25,18.41.45,1.39,1.13.35,1.45-.52,1.67-4.53,3.33-9.07,4.89-13.65,1.46-4.33,3.2-8.74,4-13.27C405.93,360,404.46,354.07,400.14,351.58Z"/><path d="M462.29,381.21a35.63,35.63,0,0,0-20,7c-18.12,13.43-18.87,41.69-14.79,61.75,5.17,25.44,15.41,50.66,33.16,70,20.51,22.29,49.82,37.4,67.27,62.33,12.83,18.33,22.81,44.6,16.71,67.1q-2.48,9.12-4.94,18.25c-.87,3.22-4.05,11.54,1.14,13,3.36,1,15.65-16.23,17.74-18.7,18.54-21.86,28.68-47.77,33-76,6.49-42-1.39-86.95-22.58-124.31-11.63-20.5-28.81-40.12-47.26-54.73C507,395.17,483.52,380.22,462.29,381.21Z"/><path d="M467.43,370.14c-.2-.13-2.29,4.63-7.16,8.54a26,26,0,0,1-8.74,4.56c.25.77,3.22,7.07,3.92,6.4,1.13-1.1,2.71-2.58,5.11-7.22C463.48,376.78,467.69,370.29,467.43,370.14Z"/><path d="M393.42,270.07H395a81.21,81.21,0,0,1,20.3,2.63c7.69,2.07,15,5.4,22.91,6.66,22.28,3.58,38.54-15.9,47.09-33.49,3.14,13.3,5.89,28.44,2,41.9a24.36,24.36,0,0,1-5.4,9.95,23.86,23.86,0,0,1-6.84,5.06c-9,4.56-20.77,4.23-27.23,4.93-12.23,1.32-23.85,7.89-32.52,16.2-5,4.83-8.33,10.64-11,16.78a31.33,31.33,0,0,0-20.36.22c-2.86-6.08-6.27-11.82-11.41-16.54-8.85-8.12-20.61-14.43-32.86-15.49-6.48-.55-18.21,0-27.34-4.33A22.87,22.87,0,0,1,299.7,289.8c-4.21-13.37-1.8-28.57,1.05-41.93,8.94,17.4,25.62,36.52,47.82,32.46,7.87-1.44,15.11-4.93,22.75-7.16a81,81,0,0,1,20.24-3.07l1.59,0"/><path d="M485.85,293.51c-6.15,2.46-15.23,7.1-22,4.36-5.36-2.17-7.9-8.35-12.49-11.64-10.42-7.48-23.76-6.22-35.82-3.75-1.6.33-18.74,3.77-21.38,3.77H394c-2.63.06-19.85-3-21.46-3.3-12.1-2.21-25.48-3.17-35.73,4.53-4.51,3.39-6.92,9.62-12.23,11.91-6.71,2.88-15.88-1.56-22.09-3.89A58,58,0,0,1,287.26,287a41.78,41.78,0,0,0,7.21,20.14,35,35,0,0,0,22,14.17c7.84,1.44,14.9-1.71,22.49-2.7a39.15,39.15,0,0,1,22.58,4.33,58.94,58.94,0,0,1,22.91,20.61,22.14,22.14,0,0,1,11.43-2.87,23.3,23.3,0,0,1,7.12,1.28c.52.18,1.4.45,2.27.79a58.83,58.83,0,0,1,22.1-20.52,39.11,39.11,0,0,1,22.47-4.83c7.61.83,14.73,3.82,22.55,2.21a35,35,0,0,0,21.69-14.64,41.89,41.89,0,0,0,6.76-20.29A58.22,58.22,0,0,1,485.85,293.51Z"/><path d="M359.54,344.21a9.84,9.84,0,0,0-17.16-2.56c-.36.47-2.59,4.69-1.81,5.25a.47.47,0,0,0,.35.05c6.7-1.26,13.72-1.14,18.29,4.59A4.92,4.92,0,0,0,360.3,348,10.85,10.85,0,0,0,359.54,344.21Z"/><path d="M427.56,344.6A10.49,10.49,0,0,1,441,338.73a10.66,10.66,0,0,1,4.87,3.62c.37.49,2.7,4.9,1.86,5.46a.48.48,0,0,1-.38,0c-7.1-1.45-14.57-1.49-19.49,4.33a5,5,0,0,1-1.11-3.72A10.8,10.8,0,0,1,427.56,344.6Z"/><text class="cls-3" transform="matrix(0.79, -0.62, 0.62, 0.79, 179.13, 245.98)">a</text><text class="cls-3" transform="matrix(0.86, -0.51, 0.51, 0.86, 214.13, 218.96)">t</text><text class="cls-3" transform="matrix(0.92, -0.4, 0.4, 0.92, 239.54, 202.92)">h</text><text class="cls-3" transform="matrix(0.97, -0.25, 0.25, 0.97, 284.55, 183.29)">e</text><text class="cls-3" transform="matrix(1, -0.11, 0.11, 0.99, 331.74, 170.89)">n</text><text class="cls-3" transform="matrix(1, 0.03, -0.03, 1, 380.09, 165.76)">a</text><text class="cls-4" transform="matrix(0.99, 0.16, -0.16, 0.99, 424.29, 166.89)">h</text><text class="cls-4" transform="matrix(0.96, 0.29, -0.29, 0.96, 470.07, 174.69)">a</text><text class="cls-4" transform="matrix(0.91, 0.41, -0.41, 0.91, 507.75, 186.02)">c</text><text class="cls-4" transform="matrix(0.86, 0.52, -0.52, 0.86, 542.4, 201.26)">k</text><text class="cls-4" transform="matrix(0.79, 0.62, -0.62, 0.78, 576.92, 222.21)">s</text><text class="cls-4" transform="matrix(0.72, 0.7, -0.69, 0.72, 602.54, 242.6)"> </text><text class="cls-4" transform="matrix(0.66, 0.76, -0.76, 0.66, 619.91, 259.28)"> </text><path d="M306.32,311.28c-8.94,11.83-7.73,34.08-7.73,34.08,1.37,23.73,10.92,37.49,10.92,37.49l20,16,3.45-5.24c3.7-4.8.39-10.13.39-10.13a11,11,0,0,0-2.94-2.64c-5.4-4.94-6.66-7.8-6.66-7.8-12.4-19.38-6.62-43.41-6.62-43.41,3.06-11.45,4-12.41,4-12.41Z"/><path d="M466.31,318.2c3.84,4.61,6.63,15.85,6.63,15.85,3.36,11.33-1.93,27.18-1.93,27.18-8.16,18.73-15,19.93-15,19.93l19.79,6.2c13.54-17,14.79-34.58,14.79-34.58,2.5-14.7-3.07-30-3.07-30-4.61-11.72-5.7-11.91-5.7-11.91Z"/></svg>