<?xml version="1.0" encoding="UTF-8" standalone="no"?>
<!DOCTYPE svg PUBLIC "-//W3C//DTD SVG 1.1//EN" "http://www.w3.org/Graphics/SVG/1.1/DTD/svg11.dtd">
<svg width="100%" height="100%" viewBox="0 0 300 300" version="1.1" xmlns="http://www.w3.org/2000/svg" xmlns:xlink="http://www.w3.org/1999/xlink" xml:space="preserve" xmlns:serif="http://www.serif.com/" style="fill-rule:evenodd;clip-rule:evenodd;stroke-linejoin:round;stroke-miterlimit:2;">
    <g transform="matrix(2.47119,0,0,2.47119,2.7169,132.702)">
        <path d="M2,2L2,12L5,12L8,9L8,5L5,2L2,2ZM0,0.333L0.333,0L5.667,0L10,4.333L10,9.667L5.667,14L0.333,14L0,13.667L0,0.333ZM15.6,0.333L15.933,0L17.267,0L17.6,0.333L17.6,11L18.6,12L22.6,12L23.6,11L23.6,0.333L23.933,0L25.267,0L25.6,0.333L25.6,11.667L23.267,14L17.933,14L15.6,11.667L15.6,0.333ZM33.2,12L38.2,12L39.2,11L39.2,9L38.2,8L33.2,8L33.2,12ZM33.2,6L38.2,6L39.2,5L39.2,3L38.2,2L33.2,2L33.2,6ZM31.2,0.333L31.533,0L38.867,0L41.2,2.333L41.2,5.667L39.867,7L41.2,8.333L41.2,11.667L38.867,14L31.533,14L31.2,13.667L31.2,0.333ZM46.8,0.333L47.133,0L48.467,0L48.8,0.333L48.8,6L54.8,6L54.8,0.333L55.133,0L56.467,0L56.8,0.333L56.8,13.667L56.467,14L55.133,14L54.8,13.667L54.8,8L48.8,8L48.8,13.667L48.467,14L47.133,14L46.8,13.667L46.8,0.333ZM64.4,6L70.4,6L70.4,3L69.4,2L65.4,2L64.4,3L64.4,6ZM62.733,14L62.4,13.667L62.4,2.333L64.733,0L70.067,0L72.4,2.333L72.4,13.667L72.067,14L70.733,14L70.4,13.667L70.4,8L64.4,8L64.4,13.667L64.067,14L62.733,14ZM88,2.333L88,3.667L87.667,4L86.333,4L86,3.667L86,3L85,2L81,2L80,3L80,11L81,12L85,12L86,11L86,10.333L86.333,10L87.667,10L88,10.333L88,11.667L85.667,14L80.333,14L78,11.667L78,2.333L80.333,0L85.667,0L88,2.333ZM93.6,0.333L93.933,0L95.267,0L95.6,0.333L95.6,6L98.6,6L101.6,3L101.6,0.333L101.933,0L103.267,0L103.6,0.333L103.6,3.667L100.267,7L103.6,10.333L103.6,13.667L103.267,14L101.933,14L101.6,13.667L101.6,11L98.6,8L95.6,8L95.6,13.667L95.267,14L93.933,14L93.6,13.667L93.6,0.333ZM109.2,2.333L111.533,0L116.867,0L119.2,2.333L119.2,3.667L118.867,4L117.533,4L117.2,3.667L117.2,3L116.2,2L112.2,2L111.2,3L111.2,5L112.2,6L116.867,6L119.2,8.333L119.2,11.667L116.867,14L111.533,14L109.2,11.667L109.2,10.333L109.533,10L110.867,10L111.2,10.333L111.2,11L112.2,12L116.2,12L117.2,11L117.2,9L116.2,8L111.533,8L109.2,5.667L109.2,2.333Z" style="fill-rule:nonzero;"/>
    </g>
</svg>
