<svg xmlns="http://www.w3.org/2000/svg" xmlns:xlink="http://www.w3.org/1999/xlink" viewBox="0 0 296.99 217.36"><defs><style>.cls-1{fill:#fff;}.cls-2{mask:url(#mask);}.cls-3,.cls-4{fill:#333;}.cls-4{stroke:#333;}</style><mask id="mask" x="-77.96" y="-72.74" width="445" height="365" maskUnits="userSpaceOnUse"><g id="mask-2"><rect id="path-1" class="cls-1" x="-77.96" y="-72.74" width="445" height="365"/></g></mask></defs><title>Asset 1</title><g id="Layer_2" data-name="Layer 2"><g id="Layer_1-2" data-name="Layer 1"><g id="Page-1"><g id="Artboard-4-Copy"><g class="cls-2"><g id="Group-2"><g id="hackduke-logo"><g id="Layer_1-3" data-name="Layer 1"><g id="Group"><g id="Shape"><path class="cls-3" d="M.56,176.1V100.74H25.81c21.24,0,38.57,16.93,38.57,37.68S47,176.1,25.81,176.1Zm25.25-13.86c13.52,0,24.51-10.69,24.51-23.81s-11-23.81-24.51-23.81H14.61v47.62h11.2Z"/><path class="cls-3" d="M78.53,147.84V100.75H92.58v47.09a15.22,15.22,0,1,0,30.43,0V100.75h14.16v47.09a29.24,29.24,0,0,1-8.56,20.74,29.35,29.35,0,0,1-50.08-20.74Z"/><polygon class="cls-3" points="208.7 176.1 180.7 136.73 168.65 148.16 168.65 176.1 154.6 176.1 154.6 100.75 168.65 100.75 168.65 129 198.66 100.75 218.95 100.75 191.37 126.88 226.34 176.1 208.7 176.1"/><polygon class="cls-3" points="236.9 176.1 236.9 100.75 286.46 100.75 286.46 114.5 251.06 114.5 251.06 125.61 281.92 125.61 281.92 139.69 251.06 139.69 251.06 162.13 285.51 162.13 285.51 176.09 236.9 176.09 236.9 176.1"/></g><g id="Shape-2" data-name="Shape"><polygon class="cls-3" points="44.7 77.68 44.7 41.17 14.16 41.17 14.16 77.68 0 77.68 0 2.33 14.16 2.33 14.16 27.3 44.7 27.3 44.7 2.33 58.85 2.33 58.85 77.68 44.7 77.68"/><path class="cls-3" d="M164.93,75.77a40.08,40.08,0,0,1-12.47-8.47A36.23,36.23,0,0,1,144,54.71a38,38,0,0,1-3.17-15.35A39.49,39.49,0,0,1,180.25,0a39.41,39.41,0,0,1,31.49,15.87L213.42,18l-11.3,8.36-1.58-2.12a24.91,24.91,0,0,0-20.29-10.16,25.4,25.4,0,1,0,20.29,40.64l1.58-2L213.32,61l-1.69,2.12a38.92,38.92,0,0,1-31.38,15.77,40,40,0,0,1-15.32-3.07Z"/><polygon class="cls-3" points="279.35 77.68 251.35 38.31 239.31 49.74 239.31 77.68 225.25 77.68 225.25 2.33 239.31 2.33 239.31 30.58 269.31 2.33 289.6 2.33 262.02 28.47 297 77.68 279.35 77.68"/></g><polygon id="Shape-3" data-name="Shape" class="cls-3" points="109.56 2.33 96.78 2.33 67.83 77.68 82.94 77.68 90.76 57.36 103.22 25.08 115.69 57.36 123.41 77.68 138.62 77.68 109.56 2.33"/><g id="Shape-4" data-name="Shape"><path class="cls-4" d="M16.83,211.54l1.85,1.38a9.73,9.73,0,0,1-7.84,3.94,9.85,9.85,0,1,1,7.87-15.74l-1.87,1.38a7.38,7.38,0,0,0-6-3,7.53,7.53,0,1,0,6,12.06Z"/><path class="cls-4" d="M45.57,207a9.84,9.84,0,1,1-9.85-9.87A9.85,9.85,0,0,1,45.57,207Zm-2.4,0a7.45,7.45,0,1,0-7.45,7.49A7.51,7.51,0,0,0,43.17,207Z"/><path class="cls-4" d="M53.5,197.74h6.07a9.42,9.42,0,1,1,0,18.83H53.5V197.74Zm13.39,9.42A7.24,7.24,0,0,0,59.57,200H55.85v14.23h3.72a7.24,7.24,0,0,0,7.31-7.11Z"/><polygon class="cls-4" points="77.35 197.74 89.23 197.74 89.23 200.01 79.73 200.01 79.73 204.43 88.02 204.43 88.02 206.78 79.73 206.78 79.73 214.24 89 214.24 89 216.57 77.35 216.57 77.35 197.74"/><polygon class="cls-4" points="108.49 197.74 120.38 197.74 120.38 200.04 110.87 200.04 110.87 204.46 116.1 204.46 116.1 206.78 110.87 206.78 110.87 216.57 108.49 216.57 108.49 197.74"/><path class="cls-4" d="M146.07,207a9.84,9.84,0,1,1-9.85-9.87,9.85,9.85,0,0,1,9.85,9.87Zm-2.4,0a7.45,7.45,0,1,0-7.45,7.49,7.51,7.51,0,0,0,7.45-7.49Z"/><path class="cls-4" d="M168.87,216.57h-2.72L159,206.68h-2.69v9.89H154V197.74h6.52a4.51,4.51,0,0,1,4.46,4.47,4.51,4.51,0,0,1-3.38,4.34l7.26,10Zm-12.6-12.17h4.25a2.2,2.2,0,0,0,0-4.39h-4.25v4.39Z"/><path class="cls-4" d="M204.5,204.45v8.33a10,10,0,0,1-7.95,4.07,9.85,9.85,0,0,1,0-19.71,9.73,9.73,0,0,1,7,2.91l-1.74,1.53a7.34,7.34,0,0,0-5.23-2.12A7.53,7.53,0,1,0,202.21,212v-5.21h-5.52v-2.33h7.82Z"/><path class="cls-4" d="M232,207a9.84,9.84,0,1,1-9.85-9.87A9.85,9.85,0,0,1,232,207Zm-2.4,0a7.45,7.45,0,1,0-7.45,7.49,7.51,7.51,0,0,0,7.45-7.49Z"/><path class="cls-4" d="M258.75,207a9.84,9.84,0,1,1-9.85-9.87,9.85,9.85,0,0,1,9.85,9.87Zm-2.4,0a7.45,7.45,0,1,0-7.45,7.49,7.51,7.51,0,0,0,7.45-7.49Z"/><path class="cls-4" d="M266.68,197.74h6.07a9.42,9.42,0,1,1,0,18.83h-6.07V197.74Zm13.39,9.42a7.24,7.24,0,0,0-7.32-7.12H269v14.23h3.72a7.24,7.24,0,0,0,7.32-7.11Z"/></g></g></g></g></g></g></g></g></g></g></svg>