<svg xmlns="http://www.w3.org/2000/svg" viewBox="0 0 97.11 84.5"><defs><style>.cls-1{fill:#004cf4;}</style></defs><title>owl outline color</title><g id="Layer_1" data-name="Layer 1"><path class="cls-1" d="M17.77,42.7a2.75,2.75,0,1,0,5.39,1.1,2.25,2.25,0,0,1,4.46.45,2.75,2.75,0,0,0,5.5,0A7.75,7.75,0,0,0,17.77,42.7Z"/><path class="cls-1" d="M66.74,47a2.75,2.75,0,0,0,2.75-2.75,2.25,2.25,0,0,1,4.45-.45,2.75,2.75,0,1,0,5.39-1.1A7.75,7.75,0,0,0,64,44.25,2.75,2.75,0,0,0,66.74,47Z"/><path class="cls-1" d="M96.6,1.67A2.75,2.75,0,0,0,93.83.57L75,4.28a12.87,12.87,0,0,1-7.12-.65,53,53,0,0,0-38.55,0,12.88,12.88,0,0,1-7.12.65L3.28.57A2.72,2.72,0,0,0,.52,1.67a2.76,2.76,0,0,0-.16,3,83.91,83.91,0,0,1,4.11,8.27C5.89,16.14,7,18.67,9.25,20.54A36.21,36.21,0,0,0,6.41,35.48a25.45,25.45,0,0,1-.23,3.66,41.83,41.83,0,0,0-.78,7.38v0a37.29,37.29,0,0,0,1.09,8.36A84.81,84.81,0,0,1,8.09,65,2.75,2.75,0,0,0,9.7,67.24,52,52,0,0,0,48.36,84.5l.19,0,.2,0A52,52,0,0,0,87.41,67.24,2.76,2.76,0,0,0,89,65a86.57,86.57,0,0,1,1.61-10.09,33.54,33.54,0,0,0,.31-15.78,25.45,25.45,0,0,1-.23-3.66,36.21,36.21,0,0,0-2.84-14.94c2.23-1.87,3.35-4.4,4.78-7.63a83.91,83.91,0,0,1,4.11-8.27A2.77,2.77,0,0,0,96.6,1.67ZM31.78,29.77l.1,0,.09.05c2.72,1.12,6.69,5.44,10.2,9.26.81.88,1.59,1.73,2.36,2.55-2.82,3-3.58,4.27-3.92,5.13a7.72,7.72,0,0,0-.47,3.39A15.94,15.94,0,0,1,26.33,59h-.07c-7.2,0-13.61-5.37-15.36-12.82a36.88,36.88,0,0,1,.62-5.67l0,0c0-.09,2.39-8.59,9.7-11.11A14.23,14.23,0,0,1,31.78,29.77Zm33.36.09.09-.05.1,0a14.23,14.23,0,0,1,10.54-.42c7.31,2.52,9.67,11,9.7,11.11l0,0a29.67,29.67,0,0,1,.53,8.15,2.52,2.52,0,0,0-.64.86A16,16,0,0,1,71.33,59h-.07A15.94,15.94,0,0,1,57,49.37a7.49,7.49,0,0,0-.5-2.58,8.07,8.07,0,0,0-1.09-1.86l0,0a40.43,40.43,0,0,0-2.8-3.23c.77-.82,1.55-1.67,2.36-2.55C58.45,35.31,62.42,31,65.14,29.86ZM45.68,50.26h0a2.89,2.89,0,0,1,0-1.45,17.44,17.44,0,0,1,2.82-3.39c1,1.07,1.66,1.81,2.08,2.33a24,24,0,0,0,.79,2.53c-.2,1.1-.9,2.8-2.87,5.26C46.57,53.06,45.88,51.36,45.68,50.26ZM48.75,79l-.2,0-.19,0A46.54,46.54,0,0,1,13.43,63.16c-.15-1.32-.31-2.52-.48-3.62a20.64,20.64,0,0,0,13.31,5h.09a21.1,21.1,0,0,0,16.16-8,33.8,33.8,0,0,0,4.05,5.06l2,2.11,2-2.11a33.58,33.58,0,0,0,4.23-5.35A21.08,21.08,0,0,0,71.26,64.5h.09a20.67,20.67,0,0,0,12.76-4.6c-.15,1-.3,2.08-.43,3.26A46.52,46.52,0,0,1,48.75,79ZM87.62,10.69c-1.78,4-2.49,5.42-4.5,6.41l0,0,0,0a1.53,1.53,0,0,0-.21.14l-.21.14-.23.22c0,.05-.11.1-.15.15l-.19.27a1.63,1.63,0,0,0-.11.17,1.73,1.73,0,0,0-.14.31,1.22,1.22,0,0,0-.07.17,2.09,2.09,0,0,0-.08.34c0,.06,0,.11,0,.17s0,.25,0,.37a.85.85,0,0,0,0,.16,2.5,2.5,0,0,0,.06.38.8.8,0,0,0,0,.15,1.66,1.66,0,0,0,.14.37.93.93,0,0,0,0,.13h0a.64.64,0,0,0,0,.07,26.29,26.29,0,0,1,2.7,7.59,18.6,18.6,0,0,0-6.93-4.31,19.72,19.72,0,0,0-14.81.71h0c-3.79,1.66-7.94,6.17-12,10.54q-1.2,1.32-2.34,2.52c-.75-.8-1.53-1.64-2.33-2.52-4-4.37-8.17-8.88-12-10.54h0a19.67,19.67,0,0,0-14.81-.71,18.6,18.6,0,0,0-6.93,4.31,26.24,26.24,0,0,1,2.69-7.59s0,0,0-.06l0,0c0-.05,0-.09,0-.13a1.66,1.66,0,0,0,.14-.37l0-.15a2.5,2.5,0,0,0,.06-.38V19.6c0-.12,0-.25,0-.37s0-.11,0-.17a2.09,2.09,0,0,0-.08-.34c0-.06-.05-.11-.07-.17a1.73,1.73,0,0,0-.14-.31,1.63,1.63,0,0,0-.11-.17l-.19-.27-.15-.15-.23-.22-.21-.14a1.53,1.53,0,0,0-.21-.14l-.05,0,0,0c-2-1-2.73-2.42-4.5-6.42C9,9.61,8.49,8.41,7.85,7.07L21.1,9.68a18.3,18.3,0,0,0,10.16-.92,47.48,47.48,0,0,1,34.58,0A18.34,18.34,0,0,0,76,9.68L89.26,7.07C88.62,8.41,88.09,9.61,87.62,10.69Z"/></g></svg>