<?xml version="1.0" encoding="utf-8"?>
<!-- Generator: Adobe Illustrator 23.0.4, SVG Export Plug-In . SVG Version: 6.00 Build 0)  -->
<svg version="1.1" id="Layer_1" xmlns="http://www.w3.org/2000/svg" xmlns:xlink="http://www.w3.org/1999/xlink" x="0px" y="0px"
	 viewBox="0 0 119 286.2" enable-background="new 0 0 119 286.2" xml:space="preserve">
<g>
	<path fill="#C59C60" d="M54.9,13.2v-1c0-5.5-0.3-9.6-1-12.2c2.8,0.2,5.2,0.4,7.2,0.7c1.1,0.2,1.7,0.6,1.7,1.2
		c0,0.4-0.3,1.2-0.8,2.5c-0.5,1-0.7,3.6-0.7,7.8v1h33.5l19.6-0.3c0.6,0,1,0.3,1,1l-0.3,6.3v5.1l0.3,14.4c0,0.6-0.3,1-1,1h-4.8
		c-0.6,0-1-0.3-1-1V18.6H9.6v21.1c0,0.6-0.3,1-1,1H3.9c-0.6,0-1-0.3-1-1l0.3-14.4v-4.4l-0.3-7c0-0.6,0.3-1,1-1l19.6,0.3H54.9z
		 M16.7,119.9v6.3c0,0.6-0.3,1-1,1h-4.6c-0.6,0-1-0.3-1-1l0.3-23.3V92.6l-0.3-14.7c0-0.6,0.3-1,1-1l20.1,0.3h56.3l20.1-0.3
		c0.6,0,1,0.3,1,1l-0.1,12.8v11.9l0.1,23.1c0,0.5-0.3,0.8-1,0.8h-4.5c-0.6,0-1-0.3-1-0.8v-5.9H16.7z M55.4,95.5v-13H16.7v13H55.4z
		 M55.4,114.6v-14.1H16.7v14.1H55.4z M40.3,34.1l-18.9,0.3c-0.7,0-1.1-0.3-1.1-1v-4.1c0-0.5,0.4-0.8,1.1-0.8l18.9,0.1h37.9l19-0.1
		c0.7,0,1,0.3,1,0.8v4.1c0,0.6-0.3,1-1,1l-19-0.3H40.3z M73.9,67.2h-30l-18.4,0.3c-0.6,0-1-0.3-1-1l0.3-8.1v-5.2l-0.3-8.1
		c0-0.6,0.3-1,1-1l18.4,0.3h30l18.4-0.3c0.7,0,1.1,0.3,1.1,1l-0.3,8.1v5.2l0.3,8.1c0,0.6-0.4,1-1.1,1L73.9,67.2z M31.2,62h55.6V49.6
		H31.2V62z M61.4,95.5h40.8v-13H61.4V95.5z M61.4,100.5v14.1h40.8v-14.1H61.4z"/>
	<path fill="#C59C60" d="M54.9,279.8v-55.6H19.7L1,224.5c-0.6,0-1-0.3-1-1v-4.8c0-0.6,0.3-1,1-1l18.8,0.3h35.2v-28.8
		c0-8.2-0.3-14.2-1-17.7c3.4,0.1,6,0.4,7.8,0.8c1,0.2,1.4,0.6,1.4,1.2c0,0.1-0.2,0.9-0.5,2.2c-0.5,1.7-0.8,6.1-0.8,13.2v29.2h37.5
		l18.7-0.3c0.6,0,1,0.3,1,1v4.8c0,0.6-0.3,1-1,1l-18.7-0.3H61.9v55.6h28.9l19.7-0.3c0.6,0,1,0.3,1,1v4.8c0,0.6-0.3,1-1,1l-19.7-0.3
		h-63l-19.7,0.3c-0.7,0-1-0.3-1-1v-4.8c0-0.6,0.3-1,1-1l19.7,0.3H54.9z"/>
</g>
</svg>
