<?xml version="1.0" encoding="utf-8"?>
<!-- Generator: Adobe Illustrator 23.0.4, SVG Export Plug-In . SVG Version: 6.00 Build 0)  -->
<svg version="1.1" id="Layer_1" xmlns="http://www.w3.org/2000/svg" xmlns:xlink="http://www.w3.org/1999/xlink" x="0px" y="0px"
	 viewBox="0 0 467.8 465.6" enable-background="new 0 0 467.8 465.6" xml:space="preserve">
<g>
	<circle fill="none" stroke="#C69E5F" stroke-width="5" stroke-miterlimit="10" cx="233.7" cy="235.9" r="98.8"/>
	<polyline fill="none" stroke="#C69E5F" stroke-width="5" stroke-miterlimit="10" points="143.6,52.8 98.5,52.8 84.7,94.7 	"/>
	<polyline fill="none" stroke="#C69E5F" stroke-width="5" stroke-miterlimit="10" points="381.2,93.8 367.4,51.5 324.5,51.3 	"/>
	<polyline fill="none" stroke="#C69E5F" stroke-width="5" stroke-miterlimit="10" points="414.4,334.6 450.3,308.5 436.3,265 	"/>
	<polyline fill="none" stroke="#C69E5F" stroke-width="5" stroke-miterlimit="10" points="198.6,435.9 235.3,462.5 269.5,437.8 	"/>
	<polyline fill="none" stroke="#C69E5F" stroke-width="5" stroke-miterlimit="10" points="31,264 18.4,303.1 55.4,330.2 	"/>
	<path fill="none" stroke="#C69E5F" stroke-width="5" stroke-miterlimit="10" d="M395.2,289.4c-32.2-44.5-94.4-54.4-138.8-22.2
		c-8.8,6.4-16.3,13.9-22.3,22.3c23.8,33.5,25,79.8-0.4,115c-0.1,0.1-0.2,0.2-0.3,0.4c0.3,0.4,0.5,0.7,0.8,1.1
		c24.1,33.3,65.1,47.2,102.8,38.6c-7.7-16.8-2.7-37.2,12.8-48.5c15.5-11.2,36.5-9.6,50,2.9C419.8,366,419.3,322.7,395.2,289.4z"/>
	<path fill="none" stroke="#C69E5F" stroke-width="5" stroke-miterlimit="10" d="M423.3,174.3c-5.9-18.1,2.1-37.3,18-46.3
		c-25.1-28.9-66-41.7-104.8-29.1c-51.7,16.8-80.1,72.3-63.3,124.1c3.5,10.7,8.6,20.4,15.1,29c38-10.5,80.1,2.5,105.3,35.4
		c1.2-0.3,2.5-0.7,3.7-1.1c38.8-12.6,64.4-46.9,67.7-85.1C446.9,203.3,429.1,192.4,423.3,174.3z"/>
	<path fill="none" stroke="#C69E5F" stroke-width="5" stroke-miterlimit="10" d="M333.9,99.8c0.1-1.3,0.1-2.6,0.1-4
		c0-41.5-25.2-77.1-61.1-92.3c-3.7,18.3-19.8,32-39.1,32c-19.3,0-35.5-13.8-39.1-32c-35.9,15.3-61.1,50.9-61.1,92.3
		c0,55.4,44.9,100.3,100.3,100.3c12.2,0,23.9-2.2,34.7-6.2C269.5,150.3,294.7,113.7,333.9,99.8z"/>
	<path fill="none" stroke="#C69E5F" stroke-width="5" stroke-miterlimit="10" d="M133.5,98.9c-0.5-0.2-0.9-0.3-1.4-0.5
		C93,85.9,51.8,98.8,26.5,128c16.1,9,24.1,28.4,18.3,46.6c-5.9,18.2-23.7,29.2-42,27.1c3.4,38.5,29.3,73,68.4,85.6
		c52.2,16.8,108.1-11.8,124.9-64c3.5-10.9,5-21.9,4.8-32.8C162.5,177.3,134.8,141.5,133.5,98.9z"/>
	<path fill="none" stroke="#C69E5F" stroke-width="5" stroke-miterlimit="10" d="M133.5,98.9c-0.5-0.2-0.9-0.3-1.4-0.5
		C93,85.9,51.8,98.8,26.5,128c16.1,9,24.1,28.4,18.3,46.6c-5.9,18.2-23.7,29.2-42,27.1c3.4,38.5,29.3,73,68.4,85.6
		c52.2,16.8,108.1-11.8,124.9-64c3.5-10.9,5-21.9,4.8-32.8C162.5,177.3,134.8,141.5,133.5,98.9z"/>
	<path fill="none" stroke="#C69E5F" stroke-width="5" stroke-miterlimit="10" d="M211.3,266.7c-9.4-6.8-19.5-11.6-30-14.7
		c-24.1,32.4-66.5,48-107.2,36.2c-0.2,0.3-0.4,0.6-0.6,0.9c-23.9,33.2-24.3,76.1-4.3,109c13.5-12.5,34.3-14.2,49.7-3
		s20.4,31.4,12.8,48.1c37.5,8.5,78.1-5.4,102-38.6C265.6,360.4,255.6,298.6,211.3,266.7z"/>
</g>
</svg>
