<?xml version="1.0" encoding="UTF-8" standalone="no"?>
<svg
   xmlns:dc="http://purl.org/dc/elements/1.1/"
   xmlns:cc="http://creativecommons.org/ns#"
   xmlns:rdf="http://www.w3.org/1999/02/22-rdf-syntax-ns#"
   xmlns:svg="http://www.w3.org/2000/svg"
   xmlns="http://www.w3.org/2000/svg"
   xmlns:sodipodi="http://sodipodi.sourceforge.net/DTD/sodipodi-0.dtd"
   xmlns:inkscape="http://www.inkscape.org/namespaces/inkscape"
   inkscape:version="1.0beta1 (32d4812, 2019-09-19)"
   sodipodi:docname="logo.svg"
   id="svg38"
   version="1.1"
   viewBox="0 0 153.24 44.9"
   height="35">
  <metadata
     id="metadata42">
    <rdf:RDF>
      <cc:Work
         rdf:about="">
        <dc:format>image/svg+xml</dc:format>
        <dc:type
           rdf:resource="http://purl.org/dc/dcmitype/StillImage" />
      </cc:Work>
    </rdf:RDF>
  </metadata>
  <sodipodi:namedview
     inkscape:current-layer="Layer_1-2"
     inkscape:window-maximized="0"
     inkscape:window-y="23"
     inkscape:window-x="0"
     inkscape:cy="-57.142858"
     inkscape:cx="46.168599"
     inkscape:zoom="3.959798"
     showgrid="false"
     id="namedview40"
     inkscape:window-height="1107"
     inkscape:window-width="1679"
     inkscape:pageshadow="2"
     inkscape:pageopacity="0"
     guidetolerance="10"
     gridtolerance="10"
     objecttolerance="10"
     borderopacity="1"
     inkscape:document-rotation="0"
     bordercolor="#666666"
     pagecolor="#ffffff" />
  <defs
     id="defs12">
    <style
       id="style10">.cls-1{isolation:isolate;}.cls-2{fill:#66d9fb;}.cls-3{fill:#c28aeb;}.cls-4{fill:#7dfa8c;}.cls-5{fill:#ff9f1a;mix-blend-mode:multiply;}.cls-6{fill:#ff3838;}.cls-7{fill:#333;}</style>
  </defs>
  <title
     id="title14">hackplus_beta1</title>
  <g
     id="g36"
     class="cls-1">
    <g
       data-name="Layer 2"
       id="Layer_2">
      <g
         data-name="Layer 1"
         id="Layer_1-2">
        <path
           id="path16"
           d="M142.77,10.56V21h-6.94V10.56"
           class="cls-2" />
        <path
           id="path18"
           d="M142.77,27.87V38.34h-6.94V27.87"
           class="cls-3" />
        <path
           id="path20"
           d="M142.66,20.92h10.58v7H142.66"
           class="cls-4" />
        <path
           id="path22"
           d="M125.25,20.92h10.58v7H125.25"
           class="cls-5" />
        <rect
           id="rect24"
           height="6.95"
           width="6.94"
           y="20.92"
           x="135.83"
           class="cls-6" />
        <path
           style="fill:#efefef;fill-opacity:1"
           id="path26"
           d="M8.08,44H0V0H8.08V16.59c1.95-2.31,5.23-3.28,8.08-3.28,7.6,0,11.12,5.28,11.12,11.85V44H19.2V26.55c0-3.34-1.64-5.95-5.53-5.95-3.4,0-5.41,2.55-5.59,5.83Z"
           class="cls-7" />
        <path
           style="fill:#efefef;fill-opacity:1"
           id="path28"
           d="M39.55,26.8l7.35-1.1c1.7-.24,2.25-1.09,2.25-2.12,0-2.13-1.64-3.89-5-3.89s-5.47,2.24-5.71,4.86L31.23,23c.48-4.68,4.8-9.84,12.82-9.84,9.47,0,13,5.34,13,11.36v14.7A33.86,33.86,0,0,0,57.41,44H50a20.48,20.48,0,0,1-.3-3.58,10,10,0,0,1-8.81,4.43c-6.38,0-10.27-4.31-10.27-9C30.62,30.5,34.57,27.52,39.55,26.8Zm9.6,5.1V30.56l-6.74,1c-2.07.31-3.71,1.46-3.71,3.77,0,1.77,1.27,3.47,3.89,3.47C46,38.83,49.15,37.19,49.15,31.9Z"
           class="cls-7" />
        <path
           style="fill:#efefef;fill-opacity:1"
           id="path30"
           d="M67.86,29c0,5.41,3.52,8.45,7.65,8.45a6.84,6.84,0,0,0,6.87-5l7.11,2.37c-1.34,5-6,10.08-14,10.08A15.47,15.47,0,0,1,59.77,29c0-9.23,6.81-15.85,15.5-15.85,8.14,0,12.76,5,14,10.08L82.08,25.7a6.53,6.53,0,0,0-6.63-5C71.32,20.66,67.86,23.64,67.86,29Z"
           class="cls-7" />
        <path
           style="fill:#efefef;fill-opacity:1"
           id="path32"
           d="M109.41,26.67,121.63,44h-9.91l-7.9-11.42-3.34,3.52V44H92.4V0h8.08V25.22L110.81,14.1h10.57Z"
           class="cls-7" />
      </g>
    </g>
  </g>
</svg>
