<?xml version="1.0" encoding="UTF-8"?>
<svg width="200px" height="104px" viewBox="0 0 200 104" version="1.1" xmlns="http://www.w3.org/2000/svg" xmlns:xlink="http://www.w3.org/1999/xlink">
    <title>Infinity</title>
    <g id="Page-1" stroke="none" stroke-width="1" fill="none" fill-rule="evenodd">
        <g id="Center-Elements" transform="translate(-462.000000, -1214.000000)" fill="#C59D60" fill-rule="nonzero">
            <g id="Unlimited" transform="translate(461.875000, 1152.625000)">
                <g id="Infinity" transform="translate(0.125000, 61.375000)">
                    <path d="M148.333333,0 C119.843333,0 96.6666667,23.1936584 96.6666667,51.7045455 C96.6666667,76.5360704 76.48,96.7375367 51.6666667,96.7375367 C26.8533333,96.7375367 6.66666667,76.5360704 6.66666667,51.7045455 C6.66666667,26.8730205 26.8533333,6.67155425 51.6666667,6.67155425 C60.6233333,6.67155425 69.2733333,9.29681085 76.6833333,14.2671188 C79.15,15.9183284 81.4566667,17.8197214 83.5433333,19.9179252 L88.2666667,15.2078079 C85.8733333,12.8027126 83.2233333,10.6211144 80.3966667,8.72305718 C71.8833333,3.01554252 61.9466667,0 51.6666667,0 C23.1766667,0 0,23.1936584 0,51.7045455 C0,80.2154326 23.1766667,103.409091 51.6666667,103.409091 C80.1566667,103.409091 103.333333,80.2154326 103.333333,51.7045455 C103.333333,26.8730205 123.52,6.67155425 148.333333,6.67155425 C173.146667,6.67155425 193.333333,26.8730205 193.333333,51.7045455 C193.333333,76.5360704 173.146667,96.7375367 148.333333,96.7375367 C136.316667,96.7375367 125.016667,92.0574413 116.52,83.5545455 L111.806667,88.2713343 C121.563333,98.035154 134.533333,103.409091 148.333333,103.409091 C176.823333,103.409091 200,80.2154326 200,51.7045455 C200,23.1936584 176.823333,0 148.333333,0 Z" id="Path"></path>
                </g>
            </g>
        </g>
    </g>
</svg>
