<?xml version="1.0" encoding="utf-8"?>
<!-- Generator: Adobe Illustrator 23.0.4, SVG Export Plug-In . SVG Version: 6.00 Build 0)  -->
<svg version="1.1" id="Layer_2" xmlns="http://www.w3.org/2000/svg" xmlns:xlink="http://www.w3.org/1999/xlink" x="0px" y="0px"
	 viewBox="0 0 539.2 549" enable-background="new 0 0 539.2 549" xml:space="preserve">
<path fill="none" stroke="#C59C60" stroke-width="5" stroke-miterlimit="10" d="M61.2,207c0,28.7,0,134.7,0,134.7S2.5,323,2.5,297
	s0-134.7,0-134.7S61.2,178.4,61.2,207z"/>
<path fill="none" stroke="#C59C60" stroke-width="5" stroke-miterlimit="10" d="M61.2,87.7c0,28.7,0,134.7,0,134.7
	s58.7-18.7,58.7-44.7s0-134.7,0-134.7S61.2,59,61.2,87.7z"/>
<path fill="none" stroke="#C59C60" stroke-width="5" stroke-miterlimit="10" d="M81.3,412.9c26.5,10.8,124.7,50.8,124.7,50.8
	s4.9-61.4-19.2-71.2c-24.1-9.8-124.7-50.8-124.7-50.8S54.8,402.1,81.3,412.9z"/>
<path fill="none" stroke="#C59C60" stroke-width="5" stroke-miterlimit="10" d="M333,463.5c-17.9,13.3-40.1,21.1-64,21.1
	c-23.6,0-45.4-7.6-63.2-20.5"/>
<path fill="none" stroke="#C59C60" stroke-width="5" stroke-miterlimit="10" d="M161.4,382.2c-0.1-1.8-0.1-3.5-0.1-5.3
	c0-59.5,48.2-107.7,107.7-107.7s107.7,48.2,107.7,107.7c0,2-0.1,3.9-0.2,5.9"/>
<line fill="none" stroke="#C59C60" stroke-width="5" stroke-miterlimit="10" x1="268.9" y1="484.6" x2="268.9" y2="549"/>
<line fill="none" stroke="#C59C60" stroke-width="5" stroke-miterlimit="10" x1="268.9" y1="127" x2="268.9" y2="269.2"/>
<polygon fill="none" stroke="#C59C60" stroke-width="5" stroke-miterlimit="10" points="268.9,127.2 230.1,88.3 268.9,5.9 
	307.8,88.3 "/>
<polyline fill="none" stroke="#C59C60" stroke-width="5" stroke-miterlimit="10" points="205.6,433 268.9,369.6 332.8,433.5 "/>
<path fill="none" stroke="#C59C60" stroke-width="5" stroke-miterlimit="10" d="M478,207c0,28.7,0,134.7,0,134.7
	s58.7-18.7,58.7-44.7s0-134.7,0-134.7S478,178.4,478,207z"/>
<path fill="none" stroke="#C59C60" stroke-width="5" stroke-miterlimit="10" d="M478,87.7c0,28.7,0,134.7,0,134.7
	s-58.7-18.7-58.7-44.7s0-134.7,0-134.7S478,59,478,87.7z"/>
<path fill="none" stroke="#C59C60" stroke-width="5" stroke-miterlimit="10" d="M457.9,412.9c-26.5,10.8-124.7,50.8-124.7,50.8
	s-4.9-61.4,19.2-71.2c24.1-9.8,124.7-50.8,124.7-50.8S484.4,402.1,457.9,412.9z"/>
</svg>
