<?xml version="1.0" encoding="utf-8"?>
<!-- Generator: Adobe Illustrator 23.0.4, SVG Export Plug-In . SVG Version: 6.00 Build 0)  -->
<svg version="1.1" id="Layer_1" xmlns="http://www.w3.org/2000/svg" xmlns:xlink="http://www.w3.org/1999/xlink" x="0px" y="0px"
	 viewBox="0 0 1445.4 451.81" style="enable-background:new 0 0 1445.4 451.81;" xml:space="preserve">
<style type="text/css">
	.st0{display:none;fill:#1E1D1D;}
	.st1{fill-rule:evenodd;clip-rule:evenodd;fill:#C59D60;}
	.st2{display:none;fill-rule:evenodd;clip-rule:evenodd;fill:#1E1D1D;}
</style>
<g id="City-Scape" transform="translate(-6.000000, 3280.000000)">
	<path class="st0" d="M149.99-3149.9c53.24-41.56,36.37-32.4,41.62-37.26c2.73,1.6,0.88,5,4.07,7.35
		c5.98,4.41,14.92,0.88,21.42,1.11c8.06,0.29,9.76-5.13,12.59-7.35c0.33-0.26,0.49-0.62,0.58-1.03c0.95-4.65,2.7-3.04,3.06,0.04
		c0.65,5.69,96.53,154.74,111.96,165.3c0.13,0.09,0.27,0.27,0.28,0.42c0.13,2.03,31.33,35.95,31.44,36.21
		c3.27,8.16,68.74,63.47,80.59,62.85c0.94,0.63,3.67,1.78,3.67,1.78c0.28,1.08,4.65,2.32,5.06,2.22c0.28,1.03,2.35,0.91,3.18,1.4
		c31.31,18.71,81.03-21.57,105.58-70.63c7.05-14.08-1.62,0.97,12.22-2.4c-1.08-1.16-0.04-2.59,0.62-2.25
		c2.7,1.35,0.67,2.24,2.26,2.33c6.56,0.37,6.97-2.91,7.35-3.54c0.22-0.37,1.11-0.35,1.17,0.03c0.13,0.86,0.77,1.4,1.1,2.12
		c0.67,1.49-0.54,2.02,0.78,5.18c1.04,2.48-0.23,1.7-0.62,1.94c0,0.65,1.31,37.02,1.59,37.28c1.73,1.67-0.35,61.37,3.45,61.83
		c2.25,0.28,0.83,2.33,1.82,2.66c2.34,0.77,1.42-0.18,1.98-0.3c0.11,0.58-0.02,1.01,1.15,1.21c6.3,1.09,8.02,3.68,8.93,1.44
		c3.42,2.43-4.3-0.18,15.73,6.08c6.73,2.11,4.08-0.75,4.4-1.53c0.63-0.29,1.46-0.24,1.69-1.15c0.21-0.84,1.85,0.33,3.75-0.6
		c0.14-0.07,0.35-0.05,0.51-0.01c1.11,0.28,1.95-0.26,2.88-0.75c0.92-0.49,4.89,3.19,6.95,2.51c1.12-0.37,7.37,10.07,7.57,11.33
		c2.6,16.83,3.9,28.46,3.9,34.89C227.7-2829.17,7.63-2829.2,6-2829.27v-229.56C6-3058.84,85.07-3099.19,149.99-3149.9z
		 M581.64-2982.39c0.13,1.28,2.9,9.63,3.86,11.49c2.28-4.03,4.45-7.86,6.58-11.62C591.74-2983.12,582.05-2982.5,581.64-2982.39z
		 M582.65-2974.79c0,1.22-0.08,0.43,0.25,5.91C582.99-2967.22,586.25-2968.71,582.65-2974.79z M583.84-2952.32
		c-0.02,0-0.04,0-0.06,0c-0.17-7.05-0.11-6.01-0.29-7.21c-0.03-0.21-0.47-0.24-0.51,0.01
		C582.54-2955.94,584.34-2934.35,583.84-2952.32z M591.03-2886.73c0.83,0.18,0.6,0.22,0.6-9.85c-0.05,0-0.11,0-0.16,0
		c-0.22-9.99-0.19-9.57-0.26-9.99c-0.07-0.46-0.88-0.53-0.95,0.06c-0.05,0.38-0.05-0.76,0.06,18.43
		C590.31-2887.5,590.24-2886.9,591.03-2886.73z M595.07-2917.85c0,0,0-2.84,0-8.78c-0.04,0-0.11-9.33-1.09-9.3
		c-0.65,0.02-0.63,0.42-0.6,1.69c0.01,0.26,0.32,15.54,0.36,16.35C593.78-2917.06,595.06-2917.09,595.07-2917.85z M594.23-2896.55
		c0.01,0,0.03,0,0.04,0c0.27,10.83,0.03,10.84,1.24,10.98c0.59,0.07,0.57-0.34,0.53-1.51c-0.9-23.7-0.5-15.9-1.39-19.62
		c-0.04-0.17-0.6-0.22-0.63,0.18C593.95-2905.63,593.96-2905.89,594.23-2896.55z M593.71-2896.55c-0.02,0-0.03,0-0.05,0
		c-0.72-22.7-1.9-3.23-0.99,9.61c0.07,0.97,1.28,1.31,1.24,0.03C593.66-2894.93,593.71-2891.04,593.71-2896.55z M593.17-2917.33
		c0.08-0.54,0.07-0.29-0.14-9.13c-0.02,0-0.06-5.52-0.07-8.27c0-2.34-1.26-1.45-1.32-1.19c-0.16,0.71,0.27,18.23,0.34,18.6
		C592.08-2916.83,593.1-2916.83,593.17-2917.33z M592.39-2949.92c-0.01-0.2-0.01-0.39-0.02-0.58v-1.14h-0.03
		c-0.26-9.57-0.05-9.05-1.06-9.1c-1.12-0.05,0,14.82,0,14.82h0.07c0.09,0.39,0.3,0.66,0.69,0.62c0.57-0.07,0.59-0.36,0.32-1.1v-3.55
		C592.38-2949.94,592.38-2949.93,592.39-2949.92z M591.32-2968.42c0.64-0.07,0.62-0.43,0.62-1.19c0.02-10.8,0.05-9.11-0.11-10.03
		c-1.16,1.4-1.7,2.69-1.58,4.29C590.69-2969.29,589.84-2968.25,591.32-2968.42z M590.96-2917.35c0.04-0.37,0.03,0.12,0.03-9.29
		c-0.05,0-0.31-5.62-0.39-8.43c-0.06-1.87-0.99-1.14-1.03-0.79c-0.07,0.71,0.3,18.05,0.39,18.58
		C590.04-2916.88,590.91-2916.8,590.96-2917.35z M589.92-2945.26c0.56,0.01,0.58-0.36,0.56-1.19c-0.18-5.61-0.81-13.98-0.81-13.98
		h-0.7v7.12C588.96-2953.3,589.15-2945.27,589.92-2945.26z M589.5-2975.75c-1.44,2.15-1.29,2.66-0.99,6.89
		C588.54-2968.44,590.79-2965.73,589.5-2975.75z M589.39-2897.24c-0.21-9.82-0.08-9.6-0.55-9.63c-1.43-0.08,0.7,37.19,0.7,9.63
		C589.49-2897.24,589.44-2897.24,589.39-2897.24z M588.76-2916.86v-0.23h0.1v-0.52c0.03,1.1,0.04,0.82,0-1.91v-3.43h-0.06
		c-0.01-0.74-0.03-1.56-0.04-2.47v-10.87h-0.66v19.43H588.76z M588.26-2945.98c-0.36-15-0.26-12.57-0.61-14.22
		c-0.06-0.27-0.47-0.11-0.49,0.07c-0.08,0.86,0.06,7.21,0.06,7.21c0,7.34-0.13,7.61,0.52,7.65
		C588.21-2945.24,588.27-2945.62,588.26-2945.98z M587.53-2968.32c0.35-0.23,0.26-0.27,0.26-4.14c-0.13-0.03-0.26-0.06-0.39-0.08
		c-0.58,0.83-1.18,1.65-1.75,2.5C585.07-2969.18,586.35-2967.54,587.53-2968.32z M587.22-2924.17v7.44h0.23v-9.01
		c0,0-0.35-9.46-0.61-10.29C586.67-2932.07,587.07-2928.13,587.22-2924.17z M587.36-2897.33c-0.23-10.01-0.07-9.49-0.62-9.59
		c-1.42-0.26,0.73,35.8,0.73,9.59C587.44-2897.33,587.4-2897.33,587.36-2897.33z M586.59-2917.33c0.04-0.41-0.14-9.3-0.14-9.3
		c0-23.95-1.59,3.26-0.59,9.25C585.98-2916.69,586.56-2917.01,586.59-2917.33z M585.68-2945.14v-14.94h-0.56v14.94H585.68z
		 M584.53-2905.29c-0.32,0.39-0.2,0.86-0.19,1.29C584.99-2869,585.62-2904.51,584.53-2905.29z M592.27-2979.48
		c0.45,11.05-0.02,10.92,0.88,11c1.09,0.09,0.84-0.34,0.84-7.34h0.1c0-1.78,0-3.55,0-5.33
		C594.09-2985.08,592.19-2981.41,592.27-2979.48z M594.26-2953.7c0.02-6.28,0.26-7.1-1.16-6.81c-0.79,0.16-0.18,12.61,0.3,14.35
		c0.18,0.66,0.99,0.81,0.98-0.09c0-2.31-0.03-2.18-0.03-6.7h-0.07v-0.76H594.26z M596.19-2970.6c-0.13-9.01,0.19-12.7-1.6-12.07
		c-0.72,0.25,0.18,13.35,0.22,13.62C596.19-2969.45,596.21-2969.45,596.19-2970.6z M596.59-2951.51c0.03-6.54-1.88-10.91-1.81-7.71
		c0.33,14.44,0.28,12.81,0.42,13.29c1.72-0.43,1.59-2.13,1.01-3.8C595.99-2950.35,596.58-2950.84,596.59-2951.51z M595.45-2933.01
		c0.33,12.32,0.26,10.75,0.41,11.34c0.07,0.28,0.49,0.11,0.51-0.03c0.12-0.79,0.11-0.65,0.04-4.98
		C596.3-2933.58,595.93-2930.64,595.45-2933.01z M596.18-2920.09c-0.58,0.21-0.55,2.63,0.12,2.39c0.61-0.22,0.28-0.77,0.38-1.14
		C596.69-2919.79,596.51-2920.22,596.18-2920.09z M596.64-2897c0.06,9.9-0.08,9.37,0.47,9.42
		C597.61-2887.53,597.38-2896.81,596.64-2897z M583.7-2892.91c0.4-1.39,0.23-6.28-0.24-7.38
		C583.14-2898.61,583.29-2893.94,583.7-2892.91z M583.14-2921.52c0.4-2.4,0.18-9.98-0.42-11.62
		C582.72-2920.96,582.57-2921.77,583.14-2921.52z M582.55-2945.73c0.53-0.28,0.1,0.19,0.08-12.56
		C582.61-2965.47,581.18-2945.01,582.55-2945.73z M581.49-2950.14v-6.84C580.6-2956.92,581.31-2950.73,581.49-2950.14z
		 M580.59-2974.98h0.08c0,5.91-0.2,6.14,0.58,6.45c0.72,0.28,1.1,0.08,1.11-0.68c0.02-8.01,0.12-6.89-1.21-11.54
		C580.44-2983.23,580.59-2975.24,580.59-2974.98z M251.16-3150.99c-0.03-3.71-7.85-14.95-8.44-15.2
		c-0.32,10.91,0.29,30.89-0.18,33.03c0.39,1.09,0,19.52,0.41,23.1c0.37,3.25,6.78,10.2,7.64,12.25
		C251.44-3095.75,251.16-3150.73,251.16-3150.99z M245.14-2953.41c-0.22-1.36-4.17-0.36-1.75,1.98c0.19,0.18,0.2,0.63,0.56,0.52
		c0.42-0.13,0.34-0.5,0.24-0.85C243.85-2952.83,245.37-2951.97,245.14-2953.41z M248.53-3092.92c0-2.22,0.26-7.6-5.76-12.68
		c0,66.18-0.3,150.35,0.98,150.37C249.37-2955.12,248.23-2889.43,248.53-3092.92z M249.85-3096.22c-0.86-0.93-0.5-2.42-0.5,75.76
		h0.02c0,76.09-1.04,76.98,1.41,75.81c0.79-0.38,0.42,0.61,0.52-143.35C251.3-3093.33,251.62-3094.31,249.85-3096.22z
		 M258.49-3141.85c-10.97-17.4-4.69-14.08-6.51,44.69c-0.07,2.37,7.12,10.87,7.87,11.74c0.11-0.91,0.56-1.5,0.16-2.21
		C260.02-3087.63,261.44-3137.17,258.49-3141.85z M255.79-2948.6c0,0,1.37,34.69,1.13-75.64c-0.15-68.62,1.32-60.15-3.46-66.92
		c-2.3-3.25-1.29-0.02-1.18,19.1c0.73,131.42-2.47,127.37,1.91,127.82c1.44,0.15,0.94-3.44,0.67-4.05
		C254.4-2949.33,256.03-2949.21,255.79-2948.6z M258.26-3084.39c-1.33,1.41,0.35,18.28-0.53,21.93
		c0.82,6.97-0.89,118.58,0.62,118.75c1.91,0.21,1.93,0.53,1.92-1.6C259.84-3094.66,260.98-3080.81,258.26-3084.39z M268.9-3110.09
		c0.02-13.36,0.37-14.86-1.66-17.91c-7.98-12.01-6.27-15.26-6.27,13.39h0.01c0,20.79-0.26,31.11,0.95,32.41
		C270.55-3072.97,268.82-3061.05,268.9-3110.09z M264.62-2947.22c0.8-0.11,0.62,4,0.62-63.29c-0.03,0-0.06,0-0.09,0
		c0-58.78,1.32-67.17-3.63-69.06c-0.89,0.83-0.71,159.29,0.78,134.83C262.43-2946.62,262.72-2946.95,264.62-2947.22z
		 M262.81-2944.16c0.03,0.97,0.04,0.97,1.04,1.13c0.39,0.06,0.78,0.23,1.25,0.05c0.27-1.03,0.11-2.1,0.11-3.09
		C264.77-2946.49,262.71-2946.84,262.81-2944.16z M266.58-3073.2c-0.88-1.07-0.46,128.91-0.44,129.17c0.07,1.28,0.27,1.05,1.41,1.18
		c1.91,0.23,1.45,7.66,1.45-88.2C269.01-3075.67,269.72-3069.41,266.58-3073.2z M272.04-2946.46c0-3.49,0.27-3.98-1.07-4.11
		c-1.6-0.15-1.34,0-1.27,7.07c0.01,0.85-0.11,1.11,1.54,1.3c0.94,0.11,0.74-0.21,0.74-4.26
		C272-2946.46,272.02-2946.46,272.04-2946.46z M270.66-3067.7c-1.71-1.8-0.4,79.95-0.89,82.4c0.17,0.56,0.18,25.43,0.16,25.7
		c-1.08,16.83,2.7-0.15,2.78,15.06c0.01,1.09-0.03,1.76,0.23,1.75c0.66-0.01,0.43,1.41,0.43-42.9
		C273.38-3070.87,274.36-3063.8,270.66-3067.7z M277.31-3109.73c0.11-3.51-1.13-4.63-5.51-11.15c-1.64-2.45-1.63-2.55-1.98-2.4
		c-0.26,0.11-0.19,35.95,0.14,37.98c-0.4,1.78-0.31,13.21,0.37,14.31c2.52,4.08,4.44,4.71,4.56,6.15c0.02,0.25,2.01,2.79,2.48,2.82
		C277.4-3062.11,277.28-3108.85,277.31-3109.73z M277.39-3057.13c0.35-1.99,0.36-2.04-2.72-5.71c-1.08-1.29-0.6-0.65-0.6,60.45
		c0.03,0,0.06,0,0.09,0c0,66.5-1.12,60.43,1.93,60.69C278.98-2941.44,276.99-3054.88,277.39-3057.13z M284.13-3102.48
		c-4.89-7.17-4.85-7.72-5.74-8.12c-0.83,1.87,0.09,1.87-0.01,38.64c-0.03,10.54-0.66,10.97,0.56,12.27
		c8.13,8.64,6.95,19.66,6.56-24.16C285.36-3098.97,286.18-3099.48,284.13-3102.48z M278.66-3057.44
		c-0.58,0.18-0.35,115.5-0.18,115.84c3.59,0.99,2.6,4.03,2.61-32.41C281.1-3034.8,282.14-3058.52,278.66-3057.44z M282.24-3052.85
		c-0.26,0.15-1.3,111.21,0.65,111.75c1.08,0.3,2.78,0.74,2.78-0.36C286.35-3054.61,286.14-3049.66,282.24-3052.85z M286.55-3098.13
		c0,55.8-1.99,45.6,5.89,55.4c1.8,2.24,1.17,0.43,1.3-32.1C293.78-3087.13,294.54-3089.33,286.55-3098.13z M288.88-2942.13
		c-0.19-2.83-3.18,0-1.94,1.43c0.01,0,0.01,0,0.02,0C288.51-2939.55,289.01-2940.16,288.88-2942.13z M286.69-2944.07
		c0.73-0.11,1.23-0.18,1.79-0.27C290.09-2949.14,286.69-3173.83,286.69-2944.07z M289.89-3043.18c-0.49,0.6-0.62,103.07,0.52,103.08
		c2.43,0,3.45,1.82,3.45-1.21C293.87-3042.02,294.85-3039.87,289.89-3043.18z M299.68-3079.85c-3.07-3.87-3.93-6.41-5.15-6.87
		c-0.13,0.81-0.29,46.7,1.41,48.26c6.63,6.06,5.68,18.43,5.55-30.8C301.48-3075.39,301.74-3077.24,299.68-3079.85z M294.78-3036.95
		c-0.33,0.48-0.25,87.82-0.25,88.8c2.37-0.12,1.72,1.48,1.73-13.41C296.29-3044.19,296.98-3036.57,294.78-3036.95z M295.13-2947.29
		c-0.73-0.04-0.57,0.25-0.57,4.09c-0.01,0-0.02,0-0.02,0c0,2.05-0.35,4.43,1.46,3.88c0.33-0.1,0.35-0.21,0.35-3.12
		C296.36-2946.92,296.56-2947.22,295.13-2947.29z M297.81-3033.57c-1.09-1.19-1-0.65-0.91,21.41c0.3,77.29-0.3,72.68,1.32,72.96
		c4.32,0.75,3.48,6.89,3.48-44.94c-0.01,0-0.02,0-0.03,0C301.68-3036.01,303-3027.93,297.81-3033.57z M309.24-3049.92
		c-0.87-20.07,1.65-14.29-4.99-23.35c-0.91-1.25-1.09-1.96-1.66-1.8c-0.26,0.08-0.93,44.03,0.71,45.64
		c5.97,5.88,5.97,10.9,5.97-1.02C309.26-3046.85,308.65-3047.79,309.24-3049.92z M307.87-3022.01c-5.19-5.46-3.6-10.59-3.6,38.35
		c0,0.2,0,44.06,0,44.06c-0.05,0.76-0.07,1.45,2.46,1.66c1.43,0.11,1.43,0.1,1.61-1.36c1.28-10.54,1.05,11.93,1.05-18.32
		C309.38-3023.61,310.02-3019.74,307.87-3022.01z M316.49-3050.84c0.02-5.2,0.98-5.29-6.31-13.92c-0.4,1.65-0.71,43.02,0.62,44.12
		C318.66-3014.15,316.35-3002.88,316.49-3050.84z M316.86-2947.26c0-2.36,0.02-4.72-0.01-7.07c-0.22-19.27-0.3,19.55-0.31-31.84
		c0-25.89,0.51-25.18-1.15-26.9c-5.96-6.2-4.06-14.27-4.06,54.52c0,24.45-0.7,20.89,2.16,21.5
		C317.78-2936.14,316.85-2935.73,316.86-2947.26C316.85-2947.26,316.86-2947.26,316.86-2947.26z M323.77-3027.03
		c-1.03-22.59,2.62-15.85-5.17-26.68c-1.01-1.4-1.32-0.87-1.28,0.86c1.04,43.46-2.61,37.01,5.24,45.41
		c0.44,0.47,0.76,0.87,1.09,0.62C323.96-3007.04,323.86-3024.91,323.77-3027.03z M323.87-2990.92c0.19-11.76,0.21-12.84-1.63-14.68
		c-5.72-5.7-3.95-10.27-3.95,28.42c0.02,0,0.04,0,0.06,0c0,5.46,0.08,10.91-0.02,16.37c-0.11,5.9-0.1,15.16-0.1,15.16
		c-0.08,1.33,1.46,0.42,1.43,2.24c-0.13,8.48-0.78,7.28,3.79,7.77C325.38-2935.44,323.19-2947.95,323.87-2990.92z M318.88-2936.27
		c0.65,0.01,0.56,0,0.52-6.92c0-0.26-0.31-0.98-0.86-0.87c-0.46,0.09-0.36,0.33-0.36,3.96c0.01,0,0.02,0,0.03,0
		C318.21-2936.39,318.03-2936.28,318.88-2936.27z M330.78-3034.5c0.03-3.76-1.15-4.35-5.31-9.88c-1.12-1.49-0.98,0.5-0.98,18.86
		c0.03,0,0.05,0,0.08,0c0,29.38,0.09,17.61,5.57,26.64C331.91-2995.97,330.59-3012.25,330.78-3034.5z M329.51-2997.69
		c-4.09-4.47-4.12-4.32-4.41-4.14c-0.05,0.03-0.25,64.23-0.25,64.28c0,2.37,0.22,2.17,4.04,2.57c0.27-0.66,0.16-1.18,0.2-1.69
		c0.16-2.32,2.01-0.45,2-2.38C330.75-2999.27,331.11-2995.94,329.51-2997.69z M330.57-2937.34c-1.11-0.14-1.56,1-1.21,2.04
		c0.22,0.66,1.79,0.38,1.67-0.97C331-2936.68,331.26-2937.26,330.57-2937.34z M333.38-3034.32c-0.38-0.5-0.73-1.02-1.51-1.26
		c-0.49,3.37-0.17-6.18-0.17,21.86c0,16.15-0.35,15.94,1.12,17.45c4.53,4.61,4.25,4.51,4.72,4.41c0.59-2.76,0.31-5.58,0.35-8.38
		C338.32-3032.95,337.96-3028.29,333.38-3034.32z M335.48-2991.43c-2.49-2.41-2.48-3.16-3.75-3.49c-0.01,0.26-0.02,58.9,0.11,59.73
		c0.1,0.65,0.2,0.56,4.96,1.26c0.94,0.14,0.41-47.9,0.41-48.17C337.14-2987.65,337.69-2989.29,335.48-2991.43z M344.48-3017.37
		c0.02-2.12-0.63-3.9-2.08-5.45c-5.54-5.93-3.58-11.93-3.8,31.05c-0.01,1.89,0.51,2.06,4.44,6.03
		C345.29-2983.46,344.15-2985.88,344.48-3017.37z M338.69-2948.89c-0.31,14.54,2.11,0.24,2.08,13.47c0,1.25-0.12,1.82,0.58,1.94
		c3.62,0.61,2.35,4.07,2.12-28.41c-0.16-23.85,1.37-19.7-4.15-25.57c-0.92-0.98-0.66,1.2-0.66,14.35c0.07,0,0.13,0,0.2,0
		C338.85-2965.26,338.69-2949.15,338.69-2948.89z M338.84-2940.97c-0.24,0.89-0.11,1.81-0.12,2.71c-0.08,5.26-0.02,4.11,1.02,4.37
		c0.45,0.11,0.67-0.15,0.63-0.54C339.99-2938.45,341.46-2940.78,338.84-2940.97z M346.07-3018.27c-0.39-0.35-0.89-0.29-0.9,0.39
		c-0.02,8.76,0.17,32.79,0.17,32.82c-0.15,1.09,0.16,1.98,1.01,2.74c3.6,3.21,4.7,5.37,4.72,2.66
		C351.32-3012.32,352.26-3012.71,346.07-3018.27z M345.5-2933.73c-0.01,0.7,0.22,0.59,2.41,1.11c0.18-1.31,0.11-2.34,1.32-2.74
		c0.93-0.31,0.58,1.43,0.48-28.57c-0.04-11.49,0.47-12.43-0.94-14.07C343.5-2984.13,345.94-2983.48,345.5-2933.73z M351.46-2947.78
		c-0.03,0-0.06,0-0.09,0c0-10.77-0.26-27.46-0.33-27.72c-1.71-7.08,0.71,41-1.4,40.95c-1.42-0.03-1.84,2.03-0.46,2.22
		C352.2-2931.9,351.46-2929.11,351.46-2947.78z M357.54-2988.29c-0.39-18.91,1.39-14.64-5.07-22.31c-1.09-1.29-0.69,2.34-0.69,16.7
		c0.03,0,0.05,0,0.08,0c0,20.18-1.01,15.93,4.58,21.08C357.69-2971.66,357.87-2971.76,357.54-2988.29z M352.06-2953.27
		c0,23.69-0.69,21.45,1.9,21.64c0.6,0.05,1.32,0.43,1.81,0.01c0.26-0.23,0.19-34.59-0.28-39.1c-0.11-1.02-2.33-3.55-3.22-3.47
		c-0.21,0.33-0.15-1.38-0.15,20.92C352.1-2953.27,352.08-2953.27,352.06-2953.27z M356.42-2936.02c-0.07,4.24-0.1,4.85,0.75,4.91
		c0.54,0.04,0.79-0.12,0.76-0.62c-0.12-2.23,0.24-4.48-0.21-6.7C357.93-2939.87,357.66-3011.17,356.42-2936.02z M363.78-2967.83
		c-1.1-33.41,2.6-26.64-4.59-34.93c-1.44-1.66-1.02,0.76-1.02,15.38c0.04,0,0.09,0,0.13,0c0,16.28-0.32,16.38,1.35,17.62
		C361.43-2968.44,363.86-2965.42,363.78-2967.83z M360.03-2938.02c0.35,1.49,2.53,26.54,1.67-25.39c-0.07-4-3.56-5.84-3.35-4.35
		c0.24,1.68-0.11,25.49,0.08,28.55c0.53,0.47,1.46,0.3,1.63,1.18C360.05-2938.03,360.04-2938.03,360.03-2938.02z M360-2938.02
		c-0.49,0.15-0.97-0.26-1.51,0c-0.22,0.44-0.15,0.3-0.12,6.11c0,0.88,0.22,1.11,1.08,1.12C360.14-2930.77,360.02-2930.6,360-2938.02
		z M362.42-2947.87c0.02,0,0.04,0,0.06,0c0,18.32-0.4,17.62,1.06,17.44C365.64-2930.68,362.42-2994.99,362.42-2947.87z
		 M369.74-2983.9c0.36-6.11-0.11-7.17-1.12-8.3c-4.1-4.54-3.52-3.91-4.14-4.05c0,36.01-0.95,30.16,4.47,34.65
		C371.35-2959.59,369.23-2975.39,369.74-2983.9z M367.57-2955.54c-0.01-4.06,0.39-5.55-2.42-7.33c-0.56-0.35-0.57,0.36-0.56,4.07
		c0.08,36.73-0.13,28.35,1.67,26.97C367.86-2934.77,367.67-2925.26,367.57-2955.54z M366.29-2931.8c0,2.05,1.29,1.58,1.37,0.41
		C367.69-2931.96,367.2-2931.8,366.29-2931.8z M370.09-2957.78c-0.02-1.47-0.56-1.58-1.61-2.37c-0.9,0.83-0.1,26.22-0.24,28.77
		c-0.04,0.79,0.8,1.06,0.85,1.76c0.02,0.36,1.08-0.01,1.16-0.8C370.25-2930.41,370.09-2957.78,370.09-2957.78z M373.45-2940.63
		c-0.01,0.01-0.01,0.03-0.02,0.04c-0.45-1.97-0.07-11.91-0.34-14.44c-0.17-1.65-0.48-2.02-2.35-2.95
		c-0.82,32.25-0.17,29.32,2.57,28.86C373.31-2930.17,373.23-2939.32,373.45-2940.63z M370.99-2989.43
		c-0.69,0.82-0.02,13.24-0.32,27.56c-0.05,2.42,0.79,2.48,5.22,6.07C376.48-2988.09,376.51-2983.66,370.99-2989.43z M375.5-2954.43
		c-0.51-0.34-0.93-0.82-1.53-1.06c-0.71,1.09,0.27,13.24-0.51,14.84c1.4,1.58-1.48,12.09,2.29,12.09
		C376.23-2928.56,376.8-2953.56,375.5-2954.43z M381.73-2975.45c0.01-1.25,0.09-2.81-1.12-4c-6.02-5.93-3.48-8.39-3.97,23.11
		c-0.03,1.8,0.29,2.04,4.85,5.51C382.08-2951.21,381.56-2948.88,381.73-2975.45z M377.68-2928.41c0.71,0.11,0.35-5.91,0.21-6.44
		c-0.1-0.38-0.9-0.57-0.95,0.08c-0.05,0.75-0.04,1.9-0.04,2.9h0.01C376.91-2928.74,376.73-2928.56,377.68-2928.41z M378.54-2935.44
		c0.34-0.3,0.2-0.72,0.19-1.09c-0.09-15.1,0.4-15.69-2.06-16.52C376.67-2939.11,376.29-2935.17,378.54-2935.44z M382.09-2929.39
		c-0.07-21.22-0.04-19.92-0.74-20.3c-2.56-1.38-2.03-3.81-2.03,10.3c0.03,0,0.06,0,0.08,0c0,12.41-0.26,11.31,0.88,11.48
		C382.08-2927.64,382.09-2927.64,382.09-2929.39z M387.54-2963.47c-0.27-8.03,0.15-8.81-1.21-10.22c-5.77-5.94-3.38-6.59-3.81,22.21
		c-0.01,0.97,0.24,1.71,1.06,2.13C387.48-2947.38,388.32-2940.02,387.54-2963.47z M384.14-2931.03c0.03-11.66,0.4-17.98-1.27-17
		c-0.59,0.35-0.04,17.94,0.03,18.2C384.11-2930.13,384.14-2930.13,384.14-2931.03z M383.25-2927.89c0.39,0.86,1.5-0.51,0.45-1.18
		C383.44-2928.92,382.9-2928.67,383.25-2927.89z M385.81-2927.16c2.76,0.54,1.8,1.82,1.84-17.02c0-1.08-1.64-2.02-2.53-2.47
		c-0.44,0.55-0.51,1.1-0.46,1.68C385.22-2937.49,384.14-2927.49,385.81-2927.16z M393.23-2944.22c-0.26-25.94,0.6-22.29-4.33-26.86
		c-1.47-1.36-0.59,6-0.59,7.33c-0.03,18.62-0.47,18.09,1.17,18.92c1.54,0.78,2.84,2.52,3.62,2.23
		C393.34-2943.09,393.24-2943.67,393.23-2944.22z M388.52-2943.8c-0.39,0.19-0.13,1.17-0.11,15.53c0,1.02-0.02,1.39,0.52,1.43
		c0.53,0.04,0.52-0.43,0.51-1.76C389.32-2938.64,389.84-2944.44,388.52-2943.8z M393.22-2934.12c0.1-7.56,0.45-6.61-2.13-8.21
		c-1.41-0.87-1.07,0.25-1.07,7.82c0.04,0,0.07,0,0.11,0c0,8.63-0.27,7.86,0.99,8.15C394.38-2925.58,393.12-2926.28,393.22-2934.12z
		 M394.76-2965.41c-1.12-1.06-0.94,0.07-0.94,11.49h0.09c0,14.17-1.06,11.68,4.12,15.14c0.83,0.55,0.72-0.96,0.72-1.96
		C398.61-2964.72,399.69-2960.71,394.76-2965.41z M397.58-2937.79c-2.99-1.34-2.29-4.25-1.92,9.56c0.05,1.86-0.21,2.44,0.81,2.66
		c2.42,0.53,2.28-0.3,2.28-6.39C398.75-2936.25,399.07-2937.13,397.58-2937.79z M403.77-2956.35c-0.06-1.48-0.52-1.57-4.26-4.8
		c-0.33,0.8-0.62,23.08,0.48,23.73C405.08-2934.42,404.79-2930.11,403.77-2956.35z M400.68-2927.18c0.03,0.08-0.06,0.21-0.08,0.32
		c-0.37,2.28-0.22,1.8,1.63,2.24c2.49,0.59,1.97-1.02,1.97-4.74c-0.01,0-0.02,0-0.04,0c0-4.62,0.57-3.95-2.46-5.82
		c-1.17-0.73-1.6-0.81-1.33,3.42C400.48-2930.23,400.04-2928.67,400.68-2927.18z M405.27-2956.19c-0.71-0.61-0.67,0.75-0.67,1.27
		c0.1,21.76-0.21,20.12,0.86,20.98c0.71,0.57,2.75,1.96,3.95,2.26C409.7-2955.95,409.72-2952.39,405.27-2956.19z M405.32-2925.1
		c0,0.55,0.28,0.88,0.78,0.98c2.82,0.54,3.37,0.61,3.36-0.19c-0.04-4.8,0.21-6.13-1.69-7.07
		C404.74-2932.86,405.4-2934.09,405.32-2925.1z M410.57-2951.66c-1.72-1.31-0.11,7.22-0.62,19.61c-0.05,1.34,2.95,2.8,4.69,3.6
		C414.49-2950.58,415.63-2947.8,410.57-2951.66z M410.68-2929.6c-1.63-0.55,0.5,12.25,0.5,3.18h-0.01
		C411.17-2929.11,411.29-2929.39,410.68-2929.6z M414.22-2924.92c1.4-2.33-2.61-4.73-2.63-3.06c-0.06,4.39-0.22,4.69,0.89,4.75
		C413.84-2923.15,412.44-2924.12,414.22-2924.92z M413.83-2923.52c-0.04,0.35,0.4,0.41,0.5,0.12
		C414.44-2923.71,413.89-2924.05,413.83-2923.52z M417.92-2945.74c-1.64-1.06-2.28-2.34-2.75-0.97c-0.21,0.61-0.27,1.26-0.17,1.86
		c0.79,4.61-0.9,16.31,1.33,17.31c2.14,0.96,2.33,1.45,2.96,1.19c0.2-0.43,0.13-0.9,0.13-1.35
		C419.48-2943.94,419.91-2944.44,417.92-2945.74z M415.36-2923.58c-0.02,1.07,0.66,0.93,3.57,1.37c0.98-2.75-1.07-3.41-2.86-4.36
		C415.18-2927.04,415.4-2925.76,415.36-2923.58z M424.57-2928.83c-0.11-10.31,0.45-11.87-1.74-13.18c-3.71-2.22-2.62-4.98-2.63,15.5
		c0,0.9,0.28,1.39,1.12,1.63c1.04,0.3,1.87,1.12,3.22,1.22c-0.17-1.32,0.45-2.57-0.28-3.75
		C424.46-2927.86,424.58-2928.32,424.57-2928.83z M423.65-2921.38c0.12-0.6,0.16-1.18-0.38-1.51c-0.86-0.53-1.77-1.02-2.73-1.28
		c-0.09,0.11-0.16,0.15-0.16,0.2C420.37-2922.12,420.22-2921.67,423.65-2921.38z M425.41-2940c-0.83,0.69-0.3,10.25-0.25,11.08
		c0.13,2.02,1.15,0.26,1.14,2.81c-0.01,2.89-0.17,4.52,1.37,3.9c1.24-0.5,1.7,0.75,1.71-2.08
		C429.39-2939.13,430.08-2936.68,425.41-2940z M425.23-2923.48c0.12,0.92,1.49-0.12,0.63-3.2
		C425.79-2926.94,424.73-2927.48,425.23-2923.48z M430.3-2936.22c-0.35,0.41-0.24,0.83-0.24,1.21c-0.04,16.3-0.91,14.31,3.24,15.05
		c0.54,0.1,0.87-0.18,0.86-0.79C434-2931.6,434.95-2935.22,430.3-2936.22z M438.65-2925.99c-0.03-3.75,0.24-4.97-1.08-5.65
		c-1.67-0.86-2.86-2.4-2.9-0.57c-0.01,0.36-0.07,6.75,0.18,8.42c0.27,1.79-0.68,4.18,0.97,4.39c3.24,0.4,3.63,1.59,2.43-5.68
		C438.2-2925.35,438.65-2925.61,438.65-2925.99z M443.27-2926.1c0-1.31-0.29-2.33-1.38-2.91c-1.41-0.75-2.46-1.75-2.5-0.38
		c-0.12,3.65-0.05,3.93,0.6,4.2c0.79,0.33,0.93,3.92,0.66,5.02c0.65,0.04,1.17-0.04,1.65,0.2c-0.12,0.48-1.34,0.44-1.14,1.01
		c0.07,0.2,0.22,0.44,0.4,0.51C443.79-2917.5,443.28-2920.67,443.27-2926.1z M440.16-2921.82c-0.16-2.63-0.09-2.41-0.39-2.53
		c-0.18-0.07-0.32,0.16-0.32,0.3c-0.02,4.95-0.1,4.89,0.3,4.92c0.4,0.03,0.32-0.19,0.32-2.69
		C440.1-2921.82,440.13-2921.82,440.16-2921.82z M447.69-2924.36c-0.04-1.8-1.26-2-2.35-2.59c-1.71-0.93-1.35-0.23-1.35,4.26
		c0,0,0,0,0,0c0,5.46-0.67,4.59,3.09,5.1C447.86-2917.48,447.85-2917.78,447.69-2924.36z M452.07-2921.69
		c0-0.63-0.79-0.61-0.36-1.15c0.56-0.7-0.5-0.86-1.92-1.68c-1.56-0.91-1.32-0.24-1.32,3.43c0.01,0,0.03,0,0.04,0
		c0,3.98-0.6,3.82,2.78,4.2C452.28-2916.79,452.07-2917.24,452.07-2921.69z M455.3-2921.72c-0.41-0.16-0.76-0.53-1.26-0.42
		c-0.27,2.05-0.15,2.79,0.75,4.35c0.46,0.79-2.74,1.05,1.53,1.81C456.46-2920.68,456.36-2921.3,455.3-2921.72z M460.53-2917.19
		c-0.12-1.49,0.62-2.62-3.42-3.38c0,5.08-0.46,4.73,1.77,5.07C460.92-2915.19,460.67-2915.29,460.53-2917.19z M464.44-2917.42
		c-0.16-0.46-0.35-0.42-2.73-1.26c-0.73,1-0.48,2.09-0.45,3.15c0.02,0.51,0.57,0.55,2.77,0.94
		C465.11-2914.39,464.91-2916.05,464.44-2917.42z M466.46-2914.81c0.09,0.91,1.84,0.96,2.14,0.86
		C469.79-2915.41,466.05-2918.81,466.46-2914.81z M469.73-2915.31c-0.28,0.31-0.39,1.56,0.42,1.71
		C475.65-2912.59,470.7-2916.36,469.73-2915.31z M473.58-2913.5c-0.04,0.69,0.39,0.62,1.85,0.85
		C477.51-2913.55,473.66-2914.93,473.58-2913.5z M490.02-2910.8c-0.66,0.07-0.19,1,0.34,0.93
		C490.79-2909.93,490.84-2910.88,490.02-2910.8z M493.56-2911.35c0.09-0.06,0.34-0.18,0.33-0.23
		C493.72-2912.13,492-2911.55,493.56-2911.35z M492.96-2910.36c-0.44,0.12-0.36,0.8,0.01,0.92
		C494.71-2908.92,494.43-2910.76,492.96-2910.36z M496.9-2912.52c-1.45-0.48-3.41,1.49-0.06,1.32
		C497.6-2911.23,497.56-2912.3,496.9-2912.52z M496.85-2910.15c-1.09,0.06-0.96,1.58,0.18,1.47
		C497.91-2908.77,497.95-2910.21,496.85-2910.15z M498.05-2911.95c-0.05,1.19,2.04,1.26,2.03-0.15
		C500.08-2913.61,498.12-2913.47,498.05-2911.95z M501.35-2908.19c0.2,0.7,1.1,0.75,1.19-0.13c0.16-1.51-1.29-2.95-1.29-0.51
		C501.25-2908.85,501.26-2908.51,501.35-2908.19z M503.49-2914.4c-0.26-0.11-2.07-0.16-2.11,1.82c-0.04,1.47,0.11,1.57,1.55,1.29
		C503.97-2911.5,503.71-2913.36,503.49-2914.4z M503.71-2910.02c-0.64-0.34-1.26,2.43-0.14,2.64c0.43,0.08,0.4-0.46,0.5-1.39
		C503.89-2909.21,504.25-2909.74,503.71-2910.02z M506.95-2913.68c0-1.5,0.09-1.85-0.56-1.87c-2.13-0.07-1.77,1.87-1.73,3.52
		c0.02,0.63,0.56,0.67,1.53,0.48c0.95-0.19,0.8-0.6,0.73-2.12C506.93-2913.67,506.94-2913.67,506.95-2913.68z M504.66-2907.62
		c0.04,0.26,1.2,1.66,0.95-2.06C505.57-2910.17,504.13-2910.76,504.66-2907.62z M507.08-2909.1c-0.14-2.74-1.28,0.33-0.27,2.27
		C507.17-2907.78,507.12-2908.45,507.08-2909.1z M508.52-2916.61c-1.01,0.28-0.83,1.09-0.83,2.68h0.01c0,1.61-0.38,2.61,1.83,1.98
		c0.43-0.12,0.46-0.21,0.52-4.6C510.07-2917.44,508.93-2916.73,508.52-2916.61z M509.06-2906.39c0.99-5.03-1.3-4.46-1.38-3.52
		C507.43-2906.84,507.12-2906.66,509.06-2906.39z M510.47-2906.9c0.06,1.2,1.83,1.56,1.9,0.87c0.32-3,0.32-4.88-1-4.77
		C510.44-2910.72,510.3-2910.45,510.47-2906.9z M512.82-2918.26c-0.49-0.13-2.11,0.24-2.02,1.7c0.27,4.3-0.44,4.67,0.85,4.77
		c1.47,0.11,1.35-0.64,1.36-1.38C513.03-2918.1,513.09-2917.94,512.82-2918.26z M516.02-2920c-3.03,0.32-2.36,2.78-2.32,7.02
		c0.01,0.81,1.1,0.63,1.87,0.38C516.25-2912.82,516.08-2913,516.02-2920z M515.94-2908.28c-0.12-2.61,0.07-3.31-1-3.16
		c-1.48,0.2-1.34,0.61-1.25,5.28c0.01,0.71-0.1,0.85,1.55,1.11c0.73,0.12,0.57-0.49,0.57-3.23
		C515.85-2908.28,515.89-2908.28,515.94-2908.28z M518.64-2904.49c0.32-1.23,0.11-2.43,0.17-3.63c0.04-0.87-1.24-0.71-0.4-1.49
		c0.7-0.65,0.46-1.46,0.3-2.23c-0.09-0.44-0.66-0.19-1.4,0c-0.61,0.15-0.62,0-0.65,5.9
		C516.66-2904.91,516.66-2904.49,518.64-2904.49z M519.19-2917.57c-0.04,0-0.09,0-0.13,0c0-3.02,0.25-4.34-0.95-3.81
		c-1.66,0.73-1.14,1.2-1.23,7.67c-0.01,0.46,0.2,0.62,0.6,0.64C519.55-2912.98,519.19-2914.27,519.19-2917.57z M521.92-2908.33
		c0-3.89,0.29-4.81-1.04-4.5c-0.47,0.11-1.56,0.3-1.11,2.6c0.92,4.64-0.1,6.22,1.21,6.41c1.03,0.15,0.82-0.14,0.82-4.51
		C521.84-2908.33,521.88-2908.33,521.92-2908.33z M521.75-2923.3c-1.71,0.59-1.98,0.92-1.98,2.49c0.02,6.83-0.26,7.35,1.15,6.91
		c0.97-0.3,1.13-0.51,1.15-1.59C522.22-2921.09,522.32-2921.87,521.75-2923.3z M524.51-2925.19c-1.27,0.38-1.94,1.09-1.89,2.49
		c0.25,7.74-0.38,8.28,0.79,8.01c0.9-0.2,1.51-0.3,1.51-1.09C524.94-2924.53,525.06-2924.15,524.51-2925.19z M522.75-2912.69
		c-0.18,10.55,0.1,9,2.21,9.54C526.42-2918.25,522.76-2913.12,522.75-2912.69z M526.91-2926.99c-1.8,0.84-1.4,0.54-1.37,9.28
		c0,1.61-0.21,2.02,0.51,2.09c2.16,0.21,1.7-1.98,1.7-6.08c-0.01,0-0.02,0-0.02,0C527.73-2926.54,527.99-2927.49,526.91-2926.99z
		 M527.62-2914.82c-2.24,0.22-2-0.17-1.82,10.27c0.04,1.98,1.69,2.11,2.22,1.86c0-3.74,0.12-3.96-0.41-4.25
		c-0.18-0.1-0.18-0.34-0.04-0.41C528.68-2907.94,527.88-2913.68,527.62-2914.82z M530.01-2929.2c-1.11,0.42-1.71,1.1-1.67,2.42
		c0.14,4.04-0.01,8.54,0.13,9.8c0.08,0.75,2.08,0.32,2.09-1.49C530.62-2928.4,530.71-2928.48,530.01-2929.2z M529.98-2915.93
		c-2.07,0.5-1.09,0.95-1.24,7.3c-0.05,2.23,0.71,1.08,0.72,3.11c0.02,3.09-0.19,3.61,0.74,3.72c1.02,0.11,1.06-1.1,0.94-2.12
		C530.31-2910.79,532.1-2916.44,529.98-2915.93z M532.82-2931.58c-0.26,0.06-1.65,0.9-1.65,2.2c0.05,11.89-0.41,12,1.02,11.46
		c0.73-0.28,1.06-0.72,1.05-1.55C533.1-2931.32,533.48-2931.13,532.82-2931.58z M533.65-2915.88c-0.04-2.33-1.58-1.12-1.84-0.52
		c-0.26,0.6-0.15,13.47-0.15,13.73c0.01,1.19,0.09,1.27,1.16,1.5C534.02-2900.91,533.9-2900.65,533.65-2915.88z M535.8-2926.36
		c-0.25-7.14,0.17-7.19-0.36-7.24c-0.53-0.05-1.54,0.9-1.53,1.98c0.17,13.88-0.05,11.37,0.18,12.36
		C536.43-2918.26,535.89-2923.84,535.8-2926.36z M535.93-2918.62c-1.68,0.64-1.22,0.02-1.21,15.9c0,2.24,1.42,2.35,1.53,1.5
		C536.3-2901.56,536.21-2917.15,535.93-2918.62z M538.46-2930.76c-0.06-5.16-0.07-5.36-0.77-5.02c-1.78,0.84-1,1.64-1.17,13.78
		c-0.01,0.68,0.01,1.45,0.64,1.31C538.85-2921.08,538.58-2921.13,538.46-2930.76z M538.8-2909.88c-0.02,0-0.05,0-0.07,0
		c0-9.81,0.11-9.55-0.37-9.67C535.88-2920.19,539.34-2883.22,538.8-2909.88z M540.68-2938.64c-1.2,0.57-1.5,1.42-1.48,2.57
		c0.19,14.18-0.36,14.36,0.79,13.92c0.82-0.32,1.28-0.79,1.26-1.78C541.03-2937.89,541.46-2937.82,540.68-2938.64z M539.85-2899.88
		c0.41-0.67-0.38-20.41-0.39-20.68C538.94-2919.64,539.5-2900.31,539.85-2899.88z M541.18-2921.22c-1.36-0.1-0.98-0.24-0.61,20.28
		c0.02,0.98-0.02,1.51,0.66,1.51C542.02-2899.44,541.21-2920.96,541.18-2921.22z M541.71-2921.04c1.14,45.79,1.16,8.49,0.53-1
		C541.61-2921.74,541.7-2921.37,541.71-2921.04z M543.55-2941.14c-0.1-0.86-1.67,0.93-1.66,2.31c0.12,8.84-0.05,14.03,0.14,15.17
		c0.74-0.1,0.91-0.7,1.38-0.92C543.93-2924.82,543.63-2940.52,543.55-2941.14z M544.02-2910.84c-0.02,0-0.05,0-0.07,0
		c0-11.56,0.01-11.03-0.04-11.72c-0.02-0.27-0.96-0.79-0.93,1.54c0.32,21.63,0.12,22.56,0.93,22.21
		C544.4-2899.02,544.29-2898.1,544.02-2910.84z M546.06-2943.65c-0.12-0.81-1.64,0.68-1.61,2.49c0.14,10.61-0.08,13.62,0.2,15.81
		c1.33-0.31,1.68-1.1,1.67-2.3C546.14-2942.28,546.52-2940.61,546.06-2943.65z M545.27-2911.82c0-0.73,0.03-1.46-0.01-2.19
		c-0.03-0.73-0.04-1.46-0.06-2.19v-7.09c0-0.16-0.09-0.26-0.2-0.31c-0.21-0.09-0.51,0.01-0.51,0.31v24.56c0,0.46,0.71,0.46,0.71,0
		c0-0.64,0-1.29,0-1.93c0-1.43,0-2.86,0-4.3c0-1.47,0-2.94,0-4.42c0-0.37,0-0.73,0-1.1c0-0.44,0-0.88,0.05-1.32
		c0.01,0.04,0.01,0.07,0.02,0.11C545.27-2911.73,545.27-2911.77,545.27-2911.82z M546.23-2924.7c-0.9,0.25-0.14,25.82-0.12,26.09
		c0.05,0.53,0.84,0.69,0.85,0.03C546.97-2898.85,546.57-2924.37,546.23-2924.7z M548.51-2946.73c-0.59-0.2-1.57,1.37-1.54,3.05
		c0.22,15.44-0.21,15.75,0.21,16.58c1.34-0.45,1.71-1.28,1.7-2.54C548.64-2946.7,549.08-2946.53,548.51-2946.73z M547.92-2898.09
		c0.74-0.01-0.15-27.32-0.18-27.59c-0.46,0.09-0.7,0.27-0.73,0.58C546.98-2924.79,547.05-2898.07,547.92-2898.09z M548.72-2926.26
		c-0.67,0.42-0.55,0.91-0.54,1.34c0.92,26.35,0.43,26.26,0.99,27.07C549.58-2898.46,548.99-2925.23,548.72-2926.26z M550.42-2949.41
		c-1.24,1.17-0.98,1.55-0.97,5.19c0.05,16.59,0.03,14,0.09,15.34c1.32-0.5,1.73-1.3,1.72-2.47
		C550.99-2948.04,551.54-2950.47,550.42-2949.41z M550-2897.71c0.1,0.41,0.77,0.55,1,0.18c0.13-0.04,0.24-0.15,0.24-0.32v-29.23
		c0-0.22-0.16-0.33-0.33-0.34c-0.09-0.08-0.22-0.1-0.34-0.07c-0.05-0.04-0.12-0.07-0.21-0.07c-0.1,0-0.18,0.04-0.24,0.09
		C548.91-2928.05,549.93-2897.98,550-2897.71z M553.58-2942.21c0-3.03,0-6.07,0-9.1c0-2.41-1.79-0.16-1.77,1.61
		c0.3,19.45-0.34,18.61,0.45,18.85c1.81,0.54,1.28-4.67,1.28-11.36C553.55-2942.21,553.57-2942.21,553.58-2942.21z M552.96-2929.55
		c-0.99,0.26-1.27,0.84-1.23,1.69c1.33,31.79-0.03,31.26,1.56,31.35C553.85-2896.48,553.93-2894.53,552.96-2929.55z M555.52-2955.61
		c-0.84,0.81-1.3,1.56-1.29,2.65c0.15,20.22-0.14,19.88,0.28,20.2c0.28,0.21,1.54-0.79,1.52-2.5
		C555.8-2954.99,556.25-2954.52,555.52-2955.61z M555.69-2932.04c-1.06,0.52-1.42,1.12-1.39,2.03c0.01,0.26,0.56,32.24,0.67,33.26
		c0.1,1,1.34,1,1.4,0.45C556.48-2897.4,555.69-2926.15,555.69-2932.04z M557.85-2958.88c-1.69,2.26-1.25,0.37-1.2,21.34
		c0,2.08-0.11,2.28,0.39,2.56c1.88-1.23,1.38-1.18,1.38-12.69C558.42-2956.27,558.67-2959.96,557.85-2958.88z M556.54-2931.96
		c1,39.77,0.06,36.14,2.29,36.55c0.23-2.2-0.51-37.05-0.82-38.69C556.91-2933.78,556.51-2933.14,556.54-2931.96z M560.61-2962.23
		c-2.34-0.75-1.73,9.72-1.73,25.24c0.8-0.39,1.06-0.86,1.43-1.21C561.09-2938.94,560.88-2962.14,560.61-2962.23z M560.59-2936.95
		c-1.27,0.86-1.68,1.73-1.64,3.04c1.19,39.23,0.57,38.49,1.15,38.91C561.52-2893.98,562.08-2891.9,560.59-2936.95z M563.82-2893.9
		c0.2-1.27-0.63-42.25-0.91-44.96c-1.46,0.61-1.68,0.88-1.65,2.35C562.17-2889.8,561.55-2893.9,563.82-2893.9z M562.84-2965.29
		c-1.65,0.99-2.12,0.33-1.47,25.8C563.6-2940.86,562.84-2939.56,562.84-2965.29z M564.79-2968.57c-1.65,1.91-1.19-0.32-1.19,26.86
		c1.65-0.89,1.48-1.77,1.48-2.69C565.06-2969.93,565.18-2968.16,564.79-2968.57z M563.6-2938.94c3.06,103.51,2.7-1.29,1.59-2.71
		C564.16-2941.04,563.56-2940.29,563.6-2938.94z M566.93-2972.16c-0.64,1.22-1.36,2.3-1.35,3.77c0.11,13.82-0.02,21.2,0.13,24.21
		c1.24-0.82,1.72-1.65,1.71-2.97C567.13-2972.53,567.62-2971.49,566.93-2972.16z M566.86-2895.47c0.04,2.45-0.21,2.72,1.94,2.86
		c-0.48-17.09-0.84-34.17-1.35-51.45C565.43-2942.7,565.93-2946.52,566.86-2895.47z M569.44-2975.57c-0.98,1.05-1.61,2.09-1.58,3.61
		c0.21,13.31-0.14,22.77,0.22,25.26c0.96-0.83,1.5-1.55,1.49-2.71C569.47-2966.3,569.57-2974.13,569.44-2975.57z M568.03-2944.06
		c3.74,114.14,2.29,5.11,1.72-2.67C568.6-2946.03,567.99-2945.38,568.03-2944.06z M571.17-2978.81c-1.32,1.73-1.02-1.67-1.02,29.5
		c1.05-0.97,1.5-1.72,1.49-2.8C571.37-2980.29,571.66-2978.37,571.17-2978.81z M570.54-2946.69c3.39,125.37,2.21,0.81,1.04-2.64
		C570.69-2948.51,570.52-2947.67,570.54-2946.69z M573.56-2982.66c-1.99,2.31-1.28,0.27-1.28,30.85c1.21-0.94,1.51-1.81,1.5-2.93
		C573.74-2958.47,573.8-2977.42,573.56-2982.66z M574.1-2898.33c0.14,6.74-0.05,7.02,1.17,7.09c0.16-1.64-1.12-58.94-1.35-60.75
		C572.58-2951.81,572.9-2954.83,574.1-2898.33z M575.64-2986.07c-1.06,1.04-1.33,1.49-1.32,2.35c0.06,31.74,0.02,28.24,0.25,29.18
		C576.03-2956.85,577.14-2954.09,575.64-2986.07z M576.35-2955.02c-1.22,0.33-0.94,0.37-0.94,8.91
		C576.8-2945.97,576.46-2946.41,576.35-2955.02z M576.61-2981.01c0-0.11,0-0.22,0-0.34
		C576.47-2981.29,576.54-2981.15,576.61-2981.01z M576.69-2978.45c-0.05,0-0.11,0-0.16,0v8.54
		C576.74-2971.27,576.69-2971.95,576.69-2978.45z M237.9-2829.19h339.6c-0.11-24.65-0.11-40.03,0-46.15
		c0.19-10.8-268.35-46.01-338.27-49.07C239.11-2920.78,238.67-2889.04,237.9-2829.19z M241.48-3107.65
		c-1.41-2.39-0.8,77.9-0.79,78.16c0.01,0.26,0.16,93.52,0.51,80.56C241.35-2954.9,242.95-3105.17,241.48-3107.65z M238.6-3083.27
		c1.1,1.17-0.5,19.5,1.02,20.8c0.2,0.02,0.28-19.32,0.28-19.52c-0.09-30.79,1.78-26.09-1.74-29.52c-0.12,0.03-0.24,0.05-0.36,0.08
		C238.58-3093.98,237.26-3084.7,238.6-3083.27z M236.97-3156.4c0.12,32.87-0.11,43.61,4.56,45.02c0.49-0.26,0.43-0.73,0.43-1.18
		c0.08-62.56,0.72-54.43-4.06-62.28C236.31-3177.44,236.92-3169.37,236.97-3156.4z M206.81-3161.93c0.3,0.65,3.87,6.76,4.28,5.42
		c0.03-0.11,0.12-0.22,0.1-0.32C210.7-3159.92,213.2-3164.21,206.81-3161.93z M210.22-3079.58c0.9-0.05,1.11-0.36,1.13-0.78
		c0,0-0.09-32.24-0.09-32.24c-0.12-1.62-0.68-0.22-5.73-0.55c-2.83-0.19-2.19-0.59-2.19,24.79h0.03
		C203.37-3077.23,201.82-3079.11,210.22-3079.58z M204.28-3017.65c5.42-0.49,6.87,0.63,6.96-1.1c0.13-2.64,0.03-39.83,0.03-40.1
		c-0.05-1.76-0.09-1.11-4.2-1.03c-4.75,0.09-3.74,2.14-3.62,36.77C203.46-3018.6,203.01-3017.54,204.28-3017.65z M221.35-3151.64
		c-0.02,0-0.03,0-0.05,0c0-3.21,0-6.41,0-9.62c0-3.38-0.24-1.16-8.34-1.24c-1.4-0.01-0.9,0.09-0.95,7.03
		c-0.02,2.77,8.08,12.7,8.35,14.38c0.1,0.61,0.95,0.74,0.97-0.23C221.35-3144.18,221.35-3146.41,221.35-3151.64z M209.95-2952.82
		c-0.76,0.08-0.76,0.68-0.62,2.19c0.06,0.66,0.27,0.88,0.91,1.05c0.85,0.22,0.79-0.3,0.79-1.4h-0.01
		C211.02-2951.75,211.22-2952.94,209.95-2952.82z M213.81-2957.79c-1.28-0.1-1.1,0.04-1.03,6.98c0.01,0.97-0.07,1.64,1.85,1.39
		c0.28-0.68,0.16-1.38,0.16-2.06C214.84-2957.3,215.03-2957.7,213.81-2957.79z M214.71-3146.54c-2.84-4.08-1.66,2.92-1.66,4.63
		c-0.02,11.55-0.44,11.12,1.02,11.09C222.04-3130.99,225.79-3130.6,214.71-3146.54z M221.46-3060.08c-0.57-0.37-1.08-0.48-1.6-0.46
		c-7.47,0.38-6.75-0.02-6.76,1.96c-0.21,44.59-0.38,40.76,1.29,40.6c1.81-0.17,6.33-0.81,6.8-0.89
		C221.63-3019.59,221.22-3046.79,221.46-3060.08z M221.39-3089.45c0.19-27.17,1.44-24.9-4.86-24.27c-2.88,0.28-3.55-0.28-3.53,1.23
		c0.62,34.34-0.92,32.62,1.15,32.73c2.66,0.14,5.91-0.7,6.48-0.72C221.75-3080.53,221.33-3080.8,221.39-3089.45z M214.04-2996.36
		c-1.14,0.05-1.19-0.25-1.05,6.37c0,0-0.18,29.66-0.18,29.66c-0.19,2.05,2.67,0.18,2.91,3.54c0.12,1.7-0.2,2.24,0.64,2.44
		c1.26,0.29,2.29,0.3,1.86,1.68c-0.33,1.05-0.77,4.09,0.92,4.15c2.63,0.09,2.14,0.2,2.14-5.84c0-1.32-0.03-2.65,0.01-3.97
		C222.53-3002.24,222.51-2996.71,214.04-2996.36z M216.62-2949.06c0,0.49,0.83,0.77,0.83,0.09c0.03-3.53,0.11-3.67-0.44-3.92
		C216.59-2952.57,216.61-2952.44,216.62-2949.06z M224.52-3162.86c-0.26-0.05-2.52-0.8-2.38,0.21c0,0-0.09,12.38,0.22,15.8
		c0.67,7.36-1.81,7.18,3.11,12.93c0.69,0.81,1.7-1.01,1.68-2.66C226.83-3160.47,227.72-3162.29,224.52-3162.86z M224.08-2982.19
		c0.01-2.92-0.59-0.97-0.67-3.65c-0.01-0.34-0.27-5.75-0.5-6.31c-0.55,0.27-0.44,0.77-0.44,1.2c-0.27,44.09-0.38,42.43,1.76,42.24
		c0.89-0.08,0.66,0.05,0.84-17.9C225.23-2982.86,224.01-2967.06,224.08-2982.19z M223.98-3132.84c-0.36-0.48-0.5-1.15-1.21-1.51
		C221.32-3130.39,224.73-3131.85,223.98-3132.84z M226.27-3095.36c-0.07-3.27,0.45-17.43-2.53-18.08c-1.55-0.34-1.13-1.39-1.29,19.3
		c-0.11,14.16-0.7,13.87,2.8,11.84C227.03-3083.33,226.34-3092.33,226.27-3095.36z M224.42-3052.42c0.05-2.25,0.06-2.65-0.25-3.22
		c-0.59-1.06,0.07-2.91-1.33-3.36c-0.46,1.23-0.51,2.46-0.31,3.72c0.5,3.05-0.06,34.65-0.06,34.91c-0.01,0.82,0.23,1,1.05,0.9
		c1.83-0.22,1.72,2.47,1.95-29.63C225.49-3051.61,224.38-3050.37,224.42-3052.42z M204.32-2950.72c0.65-0.88-0.26-3.92-0.1-4.36
		c0.58-1.56,1.49-0.05,1.26,0.48c-0.58,1.32-0.23,2.71-0.28,4.06c-0.02,0.49,0.49,0.64,2.11,0.63c1.29-0.01,0.77-0.45,1.02-1.9
		c0.44-2.6,1.92-2.14,2.57-2.51c0.22-0.61,0.12-1.24,0.12-1.87c0.05-40.62,2.79-43.27-6.54-39.4c-0.98,0.41-1.75,0.86-1.27,2.11
		C203.2-2993.22,202.12-2947.74,204.32-2950.72z M203.19-3130.85c-0.26,0.99,8.82,0.79,8.1-0.57c-0.22-0.41,0.6-19.59-1.18-22.14
		c-5.23-7.53-4.55-8.06-6.27-6.44C202-3158.27,203.57-3132.31,203.19-3130.85z M202.41-3162.06c-6.83,1.71-6.22,7.75-2.92,3.14
		c1.18-1.66,2.23-1.5,3.3-2.27C203.23-3161.51,202.95-3162.19,202.41-3162.06z M200.93-3053.73c-1.06,0.23-1.11,0.62-0.95,3.33
		c0.11,1.98-1.13,1.13-1.1,3.11c0.29,20.16-0.4,19.67,0.33,20.22c1.2,0.9,0.91,6.23,0.61,6.44c-0.8,0.57-0.37,1.37-0.47,2.06
		c-0.1,0.68,1.35,1.18,1.3,0.27C200.64-3018.3,200.93-3051.08,200.93-3053.73z M198.86-2967.41c0.94,3.52-0.82,16.15,0.8,16.34
		c1.04,0.12,1.11-31.47,0.77-31.31c-1.18,0.58-0.1,8.02-0.84,8.91c-0.88,1.06-0.05,3.64-0.73,5.55
		C198.81-2967.77,198.82-2967.57,198.86-2967.41z M198.59-3088.63c-0.52,1.73,0.33,4.2,0.13,5.34c-0.1,0.54-1.11,0.94-0.4,1.56
		c1.04,0.91,0.22,2.39,1.87,2.26c1.37-0.11,0.4-0.27,0.69-31.24c0.02-1.86-2.44,1.48-2.06,3.45c-0.45,1.22-0.66,2.59-0.77,10.4
		c-0.1,7.14-0.13,7,0.35,7.44C198.62-3089.22,198.66-3088.87,198.59-3088.63z M196.92-3152.77c0.26,24.14-0.45,22.46,1.52,22.49
		c2.88,0.05,2.22,1.6,2.22-13.04h-0.02c0-10.8,0.35-14.18-1.02-13.11C197.05-3154.42,196.9-3154.34,196.92-3152.77z M147.42-3143.23
		c-0.04-4.2-0.65-1.5-8.13,3.56c-4.82,3.26-1.87,5.37-2.73,22.13c0.55,1.26-0.3,2.6,0.24,3.86c-0.22,0.78-0.21,1.53,0.18,2.28
		c0.53-0.01,0.99-0.2,1.35-0.6c1.05-1.15,3.22-1.88,3.86-3.07c0.23-0.44,0.67-0.62,1.12-0.74c1.49-0.4,2.46-1.64,3.76-2.35
		C147.61-3118.45,147.42-3142.97,147.42-3143.23z M146.81-2960.13c-0.03-0.63-0.22-0.8-0.85-0.74c-2.37,0.23-2.21,0.5-2.31,2.8
		c-0.04,0.98,0.5,0.92,1.78,0.92v-0.01C146.87-2957.16,146.95-2956.96,146.81-2960.13z M146.5-2961.87
		c0.44-0.26,0.32-0.63,0.34-0.95c0.22-3.76,0.62-3.61-2.67-3.6c-0.46,0-0.77,0.18-0.77,0.7c0.01,1.14-0.08,2.28,0.08,3.53
		C144.61-2962.44,145.61-2962.31,146.5-2961.87z M147.2-3115.45c-2.19,0.9-3.3,2.66-3.12,4.85c1.25,15.8-3.2,164.22,2.88,141.52
		c0.14-0.53,0.02-20.6-0.08-20.98c0.66-4.85,0.04-34.98,0.42-36.76C147.24-3027.08,147.86-3114.71,147.2-3115.45z M148.24-2958.41
		c-0.01,3,2.33,1.57,5.89,2.19c1.36,0.23,0.15-6.5,0.81-8.67c-0.22-2.07,0.84-152.76-0.04-156.36c-8.07,5.85-6.5,2.31-6.27,17.19
		c0.11,7.28-0.07,75.83-0.27,76.52c0.64,1.79-0.27,3.63,0.16,5.43C148.14-3020.2,148.24-2959.48,148.24-2958.41z M158.31-3154.12
		c-1.44,1.15-2.98,1.9-4.23,3.11c-8,7.72-4.95-0.6-5.68,20.42c-0.39,11.23-0.01,11.83,1.36,10.56c1.96-1.82,3.83-2.45,4.76-3.89
		c0.88-1.35,4.48-1.42,4.41-4.44c-0.02-0.91,0.05-16.9-0.25-19.34C158.94-3148.77,159.04-3152.81,158.31-3154.12z M158.83-3123.32
		c0.05-0.86-2.47-0.51-2.39,4.59c0.1,6.48,0.01,39.76,0.01,40.03c0.03,0,0.05,0,0.08,0c0,15.84-0.64,122.15-0.64,122.15
		c0,0.94,1.47,1.14,2.04,0.76C159.33-2956.71,158.44-3116.72,158.83-3123.32z M168.77-3162.86c-8.36,8.77-10.29,0.55-8.99,28.58
		c0.22,4.8-0.27,6.82,1.02,5.91c6.06-4.24,5.18-4.54,7.31-5.61c3.08-1.56,1.01-1.25,1.87-10.3c0,0-0.24-14,0-16.89
		C170.07-3162.26,169.53-3163.66,168.77-3162.86z M159.88-3120.58c0,0-0.39,164.51-0.39,164.51c2.41,1.72,4.22-0.02,5.35,0.95
		c3.32,2.85,2.33-173.1,1.91-174.92C158.45-3123.85,159.94-3126.09,159.88-3120.58z M180.15-3171.53c-0.26-0.82-1.18,0.45-7.82,5.94
		c-2.65,2.19-1.51,17.43-1.49,17.7c0.03,0.26-0.55,13.22,1.27,10.98c1.09-1.34,3.65-2.31,5.65-4.68c1.28-1.52,3.6-1.31,2.71-4.3
		C180.15-3147,181.22-3168.16,180.15-3171.53z M177.34-2957.93c2.43-1,0.91-149.4,1.48-178.96c0.08-4.06-1.25-1.26-7.31,3.2
		c-0.64,0.47-0.81,179.38-0.76,179.38c5.43,0.57,5.24,0.75,5.29-0.48C176.1-2955.82,176.08-2957.42,177.34-2957.93z M177.18-2954.86
		c0.06,0.37,0.08,0.71,0.18,1.03c0.08,0.28,0.56,0.4,0.78,0.06C179.16-2955.35,177.63-2958.75,177.18-2954.86z M179.6-2958.24
		c0.57,0.09,0.58-0.06,0.53-2.88C180.12-2961.38,179.6-2963.25,179.6-2958.24z M179.86-3103.9c-0.01-38.13-0.02-55.4-0.02,0
		C179.85-3103.9,179.86-3103.9,179.86-3103.9z M179.92-2956.81c-0.28-0.43-0.55,1.47-0.23,3.49
		C180.44-2953.78,180.32-2956.19,179.92-2956.81z M186.61-3169.76c0.06-5.52-0.09-7.81-0.95-7.07c-5.76,4.96-4.24,0.57-4.24,32.14
		c0.7,0.08,1.01-0.19,1.32-0.44C188.71-3150.08,186.35-3144.95,186.61-3169.76z M183.65-2960.95c-0.25,7.67-0.22,7.46,0.03,7.89
		c0.92,1.59,0.64-0.51,0.98-44.68c0-0.16,1.1-93.13,1.19-93.27c0.46-0.76,0.35-32.95,0.35-33.22c-0.13-23.73,3.23-23.76-3.85-18
		c-1.24,1-0.52,170.56-0.96,177.05C181.19-2962.47,183.75-2963.91,183.65-2960.95z M182.5-2961.27c-0.33-0.8-1.15-0.89-1.24,0.15
		c-0.01,0.07,0,6.38,0.01,6.53c0.02,0.81,0.11,1.68,0.91,1.51C183.05-2953.27,182.66-2960.9,182.5-2961.27z M136.16-2959.25
		c0.02,1.04-0.08,1.97,5.56,1.56c1.09-0.08,1.01-146.16,1.24-147.24c-0.58-2.04,0.61-8.06-0.7-7.17c-5.63,3.83-5.53,3.57-5.54,4.96
		c-0.07,22.05,0.24,44.92-0.19,47.2c0.41,1,0.17,44.71-0.09,46.18c0.51,1.47-0.4,2.99,0.16,4.45
		C136.39-3008.73,136.07-2963.73,136.16-2959.25z M131.85-2958.53c3.09,0.19,2.93,0.95,2.91-1.88c0-1,0.37-20.73,0.48-20.92
		c0.01-1.96,0.68-123.34,0.14-125.93c-6.23,3.99-3.22-4.47-4.37,87.93C130.23-2955.89,130.53-2958.61,131.85-2958.53z
		 M134.62-3109.43c1.32-0.76,1.06-1.61,1.06-5.42c-0.01,0-0.02,0-0.03,0c0.1-24.92,0.72-22.6-2.95-19.9
		c-9.38,6.88-8.75,2.3-8.02,27.66c0.04,1.4-0.75,4.42,0.73,3.79c2.84-1.2,3.73-3.16,5.13-3.66
		C132.07-3107.51,133.25-3108.64,134.62-3109.43z M124.94-2959.2c1.19,0.33,2.86-0.04,2.86-0.04c1.8,0.9,1.35-0.32,1.45-4.19
		c0.11-4.07,1.32-96.87,0.73-98.85c0.06-0.38,0.34-38.83-0.26-40.78c-0.41-0.08-0.67,0.05-0.91,0.21c-4.21,2.84-4.39,2.67-4.38,3.95
		c0.34,27.48-0.3,108.6-0.36,108.86c0.32,3.02-0.24,6.03-0.13,9.05C124.76-2959.28,122.37-2959.91,124.94-2959.2z M123.34-3114.57
		c0-15.17,1.13-14.32-3.77-10.77c-9.06,6.58-7.62,4.2-7.6,14.79c0,0.26,0.05,14.51-0.04,15.26c-0.28,2.35,4.74-2.99,6.33-3.13
		c6.46-4.43,5.02-0.94,5.02-16.16C123.3-3114.57,123.32-3114.57,123.34-3114.57z M121.99-2959.66c1.19,0.08,1.05-33.51,1.05-37.64
		c0,0-0.01,0-0.01,0c0-0.26-0.03-43.68,0.33-45.22c-0.38-3.53,0.79-57.01-0.94-55.92c-7.26,4.53-2.96-10.15-5.23,137.25
		C117.16-2959.96,118.2-2959.93,121.99-2959.66z M111.57-2961.1c0.32,0.47,0.9,0.09,1.26,0.38c0.45,0.36,0.99,0.25,1.49,0.26
		c2.34,0.06,1.3,1.68,1.8-12.41c0.22-6.41,0.14-46.67,0.52-48.88c0,0,0.34-62.18-0.22-72.62c-1.53,0.68-2.64,1.61-3.86,2.35
		c-1.21,0.73-0.17,27.21-0.76,28.08C112.26-3061.75,110.74-2962.31,111.57-2961.1z M110.53-3117.71c-0.11-2.18-1.42,0.35-9.48,5.11
		c-1.82,1.07-3.19,1.2-2.17,26.43c1.16-0.45,2.14-1.03,2.95-1.8c1.31-1.24,8.71-4.43,8.88-6.49c0.19-2.28-0.05-13.6-0.13-13.81
		C110.71-3108.71,110.58-3116.83,110.53-3117.71z M107.52-2963.29c0.09-0.88,0.28-1.47-0.34-1.65
		C104.42-2965.76,107.82-2957.35,107.52-2963.29z M103.92-2961.56c1.13,0.19,1.1-1.06,1.06-2.05c-0.17-3.65,2.57-2.28,2.64-4.71
		c0.14-4.82-1.68-1.81-3.13-3.39c-1.03-1.13,2.52-2.17,4.1-0.14c0.26,0.34,0.38,0.68,0.3,3.04c-0.12,3.52,1.22,2.23,0.28,3.76
		c-1.52,2.47,1.2,6.94,0.8,0.32c-0.03-0.51,0.77-100.46,0.77-100.47c-0.47-1.7,0.24-21.35-0.15-23.98c-0.09-0.59,1.57-3.2-4.67,1.51
		c-3.37,2.55-0.98,10.15-1.77,16.56C104.13-3070.85,103.1-2961.7,103.92-2961.56z M100.05-2962.08
		c3.39,2.68,3.33-119.43,2.54-123.33c-0.79,0.3-3.75,1.71-3.75,2.73c0.02,12.93,0.19,13.02-0.2,14.59
		c0.61,1.35-0.24,14.69,0.17,15.96c0,0-0.94,90.01-0.94,90.01C98.77-2962.48,99.43-2962.57,100.05-2962.08z M97.28-3109.66
		c-0.82-0.15-12.07,7.02-11.99,8.42c0.01,0.26-0.67,22.98,0.13,23.32c0.84,0.36,2.54-2.01,3.51-2.25c1.18-0.29,8.43-4.56,8.5-5.27
		C97.59-3086.98,97.65-3109.19,97.28-3109.66z M96.67-2962.33c0.32-1.31,1.1-119.16,0.64-119.85c-8.93,4.25-7.61,2.54-7.55,34.06
		C89.96-2950.48,85.1-2964.06,96.67-2962.33z M85.23-2963.54c1.63,0.08,2.26,0.89,2.49-0.59c0.04-0.27,1.17-104.5,0.66-111.95
		c-0.05-0.7-0.84-0.23-2.87,1.05c-0.62,0.39-0.36-0.67-0.36,23.62l-0.14,0c0,25.93-0.31,67.37-0.31,67.37
		c-0.5,2.12-0.31,2.91-0.18,17.01C84.53-2964.3,84.2-2963.6,85.23-2963.54z M83.8-3100.57c0.01-0.81-0.16-0.62-10.8,6.11
		c-2.53,1.6-2.06,3.01-2.06,14.22c0.01,0,0.01,0,0.02,0c0,15.59-0.33,9.95,3.25,8.99c1.06-0.28,1.2-0.45,8.66-4.92
		C84.93-3077.4,83.76-3098,83.8-3100.57z M74.17-2964.76c1.09,0.4,8.11,0.83,8.37,0.84c1.57,0.1,0.65-55.82,1.26-63.23
		c-0.19-0.87,0.45-45.16-0.03-46.62c-0.71-0.06-1.09,0.36-1.52,0.6c-5.71,3.24-7.47,4-7.44,6.77
		C75.2-3031.55,73.92-2982.47,74.17-2964.76z M73.17-3067.55c-2.16,1.01-2.18,1.01-2.18,3.05
		C69.97-2842,75.34-3059.11,73.17-3067.55z M58.74-3085.76c-3.05,1.84-2.35,1.71-2.35,24.41c3.96-1.38,7.17-3.74,10.68-5.52
		c3.07-1.56,2.92,0.45,2.73-20.03C69.73-3094,71.47-3093.43,58.74-3085.76z M61.38-2969.4c1.52-0.13,1.79,3.17,1.96-5.42
		c0.04-1.98-0.13-1.48-2.76-2c-0.81-0.16-0.73-0.99-0.37-1.1c4.72-1.48,4.37,1.45,4.37,6.44c3.47-0.81,4.56,1.24,0.89,1.68
		c-1.19,0.14-1.01,1.47-0.29,1.86c1.54,0.83,1.58,0.42,2.64,0.51c1.75,0.16,1.14,0.05,1.22-2.75c0.01-0.26,1.71-96.2,0.03-95.4
		c-14.75,7.1-8.44-0.48-10.29,74.05C58.25-2970.59,57.47-2969.06,61.38-2969.4z M57.59-2984.44c0.01-0.11-0.2-8.54-0.18-10.84
		c0.82-102.34-1.74-50.63-1.16-49.22c0,0-0.77,73.54-0.77,73.54C58.82-2970.32,56.3-2969.56,57.59-2984.44z M51.4-2971.66
		c0.91,0.65,2.66,0.92,2.71-0.14c0.71-15.97,1.05-82,0.85-85.4c-0.84-0.11-1.38,0.43-1.91,0.8c-9.6,6.68-10.2,2.13-10.17,12.53
		C43.15-2964.82,38.5-2980.82,51.4-2971.66z M41.63-3013.42c0-61.46-0.01-30.7-0.01,0H41.63z M41.24-3053.18
		c0.98-0.03,1.79-0.27,2.61-0.75c12.25-6.99,11.21-5.17,11.21-8.34c0.02-20.86,0.2-20.42-0.38-20.81
		c-0.43-0.28,0.61-0.74-11.14,6.16c-2.04,1.2-2.4,2.19-2.37,3.28C41.29-3070.43,40.71-3060.61,41.24-3053.18z M25.41-2993.2
		c-0.01,8.66-0.71,2.31,9.14,11.43c1.35,1.26,3.07,1.98,4.56,3.04c1.07,0.76,0.7-69.72,0.39-70.05c-0.94,0.15-1.73,0.75-2.57,1.19
		C23.32-3040.45,25.49-3048.31,25.41-2993.2z M24.86-3044.47c0.9,0.22,1.53-0.04,2.15-0.37c13.04-6.94,12.73-6.42,12.76-7.63
		c0.66-24.4,0.28-22.57-1.84-21.37C23.08-3065.45,24.86-3071.33,24.86-3044.47z M23.38-3065.64c-18.05,9.21-14.71,5.51-15.09,22.33
		c-0.01,0.43-0.16,7.33,0.42,7.81c18.58-9.39,15.19-4.73,15.16-20.31C23.86-3065.33,24.03-3064.99,23.38-3065.64z M8.56-2999.93
		c0,0,4.28,2.37,5.43,2.82c1.89,0.73,3.68,1.83,4.87,3.64c0.21,0.32,0.56,0.62,0.91,0.76c2.04,0.77,3.83,6.08,3.53-3.99
		c-0.01-0.26,0.83-41.61,0.09-43.56c-19.58,8.89-13.8,6.97-15.22,14.19C8.12-3025.82,7.44-3000.37,8.56-2999.93z"/>
	<path id="Combined-Shape" class="st1" d="M1250.51-2829.66l-167.32,0l0,0.23H385.63v-0.03L256-2829.43v-9.76h64.33v-27.75h21.88
		v27.75h7.47v-9.49h12.45v9.49h23.5v-87.92h34.35v82.1h9.93v-13.97h10.59v13.97h9.59v-91.02h55.23v41.2h24.83v-32.28h19.31v32.28
		h11.92v-102.25l18.34-23.29v-11.93h6.94v-21.91h4.54v21.91h6.11v11.93l17.8,23.29v58.08h4.17l14.83-156.35l-0.14,0V-3193l9.4,0
		l8.26-87h6.4l8.36,87l9.36,0l0,97.44l13.21,137.51h24.49v36.44h16.81v-110.7h50.33v15.84h16.33v48.67h16.07v28.78h40.28v-73.74
		h-11.61v-34.45h36.39l0,64.08h55.31v44.11h30.98v-8.47h14.34v8.47h15.33v17.4h54.99v12.82h34.19l0,22.88l25.74,0v-25.1h33.21v39.3
		h79.11v-36.14h29.26v20.22h18.08v-62.32h40.35v-44.04h27.44v14.8h19.42v-51.7h28.4v21.41h28.24v-49.98h38.16l0.41,229.68h-200.49
		V-2829.66z"/>
	<path class="st2" d="M626.69-2889.74v61.55H586.7v-61.55H626.69z M518.53-2866.4l34.02,13.49v24.73H483v-24.73L518.53-2866.4z
		 M1015.29-2828.19H696.9v-141.23l52.25-61.31v102.18h38.75v53.93h19.43v-156.11h22.06V-3089h18.36l0.64,58.26h11.73v75.43h31.31
		v-65.09l23.9-20.01l25.39,20.01v112.88h74.58v34.11h10.13v5.85h25.43v15.37h45.73v16.51h64.44v-22.6h18.33V-2885h28.31v20.57h25.69
		v25.45h32.13v-13.2h18.97v-28.81h28.69v16.56h26.78v-37.97h36.85v21.4h25.61v-12.36h27.09v-19.49h21.93v84.08h-436.1V-2828.19z"/>
</g>
</svg>
