<svg xmlns="http://www.w3.org/2000/svg" viewBox="0 0 742 149.52">
  <path fill="#c69e61"
    d="M16.53 88.38V142a4.42 4.42 0 01-4.42 4.42H4A4.42 4.42 0 01-.47 142V5.6a4.22 4.22 0 014.21-4.22H26c26.32 0 33.56 11.48 33.56 32.23V56c0 20.94-7.24 32.42-33.56 32.42zm9.4-14c13.6 0 16.6-6.87 16.6-18.38V33.57c0-11.32-3-18.19-16.6-18.19h-9.4v59zM114.11 146.38H106a4.42 4.42 0 01-4.42-4.42V5.6a4.22 4.22 0 014.21-4.22h8.37a4.42 4.42 0 014.42 4.42V142a4.42 4.42 0 01-4.47 4.38zM211.53 5.6a4.22 4.22 0 014.21-4.22h7.57a4.22 4.22 0 014.22 4.22V142a4.42 4.42 0 01-4.42 4.42h-10.45c-2.81 0-3.81-1.2-4.62-3.8L188 67.47l-7-29.44-1 .2 1.61 30.25V142a4.42 4.42 0 01-4.42 4.42H170a4.42 4.42 0 01-4.42-4.42V5.6a4.22 4.22 0 014.21-4.22h10.65c2.82 0 4 1.2 4.62 3.81l20.09 75.1 7 29.44 1-.2-1.61-30.24zM319.53 5.6a4.22 4.22 0 014.21-4.22h7.57a4.22 4.22 0 014.22 4.22V142a4.42 4.42 0 01-4.42 4.42h-10.45c-2.81 0-3.81-1.2-4.62-3.8L296 67.47l-7-29.44-1 .2 1.61 30.25V142a4.42 4.42 0 01-4.42 4.42H278a4.42 4.42 0 01-4.42-4.42V5.8A4.42 4.42 0 01278 1.38h10.44c2.82 0 4 1.2 4.62 3.81l20.09 75.1 7 29.44 1-.2-1.61-30.24zM410.53 15.38l-17.62 127c-.4 2.6-2 4-4.4 4h-8.42c-2.8 0-4.2-2.2-3.8-5L397.12 5.79c.4-3 2-4.41 4.8-4.41h18c2.8 0 4.2 1.4 4.61 4.41l20.82 135.59c.4 3-1 5-3.8 5h-8.41a4 4 0 01-4.21-4l-17.43-127m0 0h-1M547.53 53a4.42 4.42 0 01-4.42 4.42H535a4.42 4.42 0 01-4.47-4.42V29.07c0-9.78-2.6-15.69-14-15.69s-14 5.91-14 15.69v89.63c0 9.78 2.6 15.68 14 15.68s14-5.9 14-15.68V94.6a4.22 4.22 0 014.22-4.22h8.36a4.42 4.42 0 014.42 4.42v23.9c0 19.35-6.85 29.94-31 29.94s-31-10.59-31-29.94V29.07c0-19.35 6.84-29.95 31-29.95s31 10.6 31 30zM610.53 132.38h32.58a4.42 4.42 0 014.42 4.42v5.2a4.42 4.42 0 01-4.42 4.42h-45.17a4.4 4.4 0 01-4.41-4.41V5.6a4.22 4.22 0 014.21-4.22h8.37a4.42 4.42 0 014.42 4.42zM737.11 1.38a4.42 4.42 0 014.42 4.42V11a4.41 4.41 0 01-4.42 4.41h-32.58v51h25.58a4.42 4.42 0 014.42 4.42V76a4.42 4.42 0 01-4.42 4.42h-25.58v52h32.58a4.42 4.42 0 014.42 4.42V142a4.42 4.42 0 01-4.42 4.42h-45.17a4.4 4.4 0 01-4.41-4.41V5.6a4.22 4.22 0 014.21-4.22z"
    transform="translate(.47 .88)" />
</svg>