<?xml version="1.0" encoding="utf-8"?>
<!-- Generator: Adobe Illustrator 22.0.1, SVG Export Plug-In . SVG Version: 6.00 Build 0)  -->
<svg version="1.1" id="Layer_1" xmlns="http://www.w3.org/2000/svg" xmlns:xlink="http://www.w3.org/1999/xlink" x="0px" y="0px"
	 viewBox="0 0 1445.4 551.8" style="enable-background:new 0 0 1445.4 551.8;" xml:space="preserve">
<style type="text/css">
	.st0{fill:#1E1D1D;}
	.st1{display:none;fill:#1E1D1D;}
	.st2{display:none;}
	.st3{display:inline;fill:#C59D60;}
	.st4{display:none;fill:#C59D60;}
	.st5{display:none;fill:#231F20;}
</style>
<polygon class="st0" points="1445.6,526.7 1446.6,467.2 1445.6,414.5 1445.6,364.9 1332.6,314.9 1308.6,295.9 1296.6,278.9 
	1258.6,250.8 1242.6,250.8 1225.5,260.3 1221.7,267.6 1220.4,243.1 1223.8,239.7 1219.4,239.7 1218,222.9 1216.7,239.8 1212,239.8 
	1215.9,243.1 1215,272.6 1205.2,282.3 1176.8,271.9 1163.8,257.5 1156,240.5 1154.4,170.5 1152,238.7 1131.7,245.5 1117.7,271.9 
	1096.7,297.2 1015.6,360.6 959.2,442.1 908.4,482.7 877.4,523.8 "/>
<path class="st1" d="M143.6,232.1c53.2-41.6,36.4-32.4,41.6-37.3c2.7,1.6,0.9,5,4.1,7.4c6,4.4,14.9,0.9,21.4,1.1
	c8.1,0.3,9.8-5.1,12.6-7.4c0.3-0.3,0.5-0.6,0.6-1c0.9-4.6,2.7-3,3.1,0c0.6,5.7,96.5,154.7,112,165.3c0.1,0.1,0.3,0.3,0.3,0.4
	c0.1,2,31.3,35.9,31.4,36.2c3.3,8.2,68.7,63.5,80.6,62.9c0.9,0.6,3.7,1.8,3.7,1.8c0.3,1.1,4.6,2.3,5.1,2.2c0.3,1,2.4,0.9,3.2,1.4
	c31.3,18.7,81-21.6,105.6-70.6c7-14.1-1.6,1,12.2-2.4c-1.1-1.2,0-2.6,0.6-2.3c2.7,1.4,0.7,2.2,2.3,2.3c6.6,0.4,7-2.9,7.3-3.5
	c0.2-0.4,1.1-0.4,1.2,0c0.1,0.9,0.8,1.4,1.1,2.1c0.7,1.5-0.5,2,0.8,5.2c1,2.5-0.2,1.7-0.6,1.9c0,0.6,1.3,37,1.6,37.3
	c1.7,1.7-0.3,61.4,3.5,61.8c2.3,0.3,0.8,2.3,1.8,2.7c2.3,0.8,1.4-0.2,2-0.3c0.1,0.6,0,1,1.2,1.2c6.3,1.1,8,3.7,8.9,1.4
	c3.4,2.4-4.3-0.2,15.7,6.1c6.7,2.1,4.1-0.8,4.4-1.5c0.6-0.3,1.5-0.2,1.7-1.1c0.2-0.8,1.8,0.3,3.8-0.6c0.1-0.1,0.3-0.1,0.5,0
	c1.1,0.3,2-0.3,2.9-0.8s4.9,3.2,7,2.5c1.1-0.4,7.4,10.1,7.6,11.3c2.6,16.8,3.9,28.5,3.9,34.9c-438.6,0-658.6,0-660.3-0.1V323
	C-0.4,323.2,78.7,282.8,143.6,232.1z M575.6,399.6c0.1,1.3,2.9,9.6,3.9,11.5c2.3-4,4.5-7.9,6.6-11.6
	C585.7,398.9,576,399.5,575.6,399.6z M576.7,407.2c0,1.2-0.1,0.4,0.3,5.9C577,414.8,580.3,413.3,576.7,407.2z M577.8,429.7
	L577.8,429.7c-0.2-7.1-0.2-6-0.3-7.2c0-0.2-0.5-0.2-0.5,0C576.5,426.1,578.3,447.6,577.8,429.7z M585,495.7c0.8,0.2,0.6,0.2,0.6-9.9
	c0,0-0.1,0-0.2,0c-0.2-10-0.2-9.6-0.3-10c-0.1-0.5-0.9-0.5-1,0.1c0,0.4,0-0.8,0.1,18.4C584.3,494.9,584.2,495.5,585,495.7z
	 M589,464.1c0,0,0-2.8,0-8.8c0,0-0.1-9.3-1.1-9.3c-0.7,0-0.6,0.4-0.6,1.7c0,0.3,0.3,15.5,0.4,16.4C587.7,464.9,589,464.9,589,464.1z
	 M588.2,485.8C588.2,485.8,588.3,485.8,588.2,485.8c0.3,10.8,0.1,10.8,1.3,11c0.6,0.1,0.6-0.3,0.5-1.5c-0.9-23.7-0.5-15.9-1.4-19.6
	c0-0.2-0.6-0.2-0.6,0.2C588,476.8,588,476.5,588.2,485.8z M587.7,485.4L587.7,485.4c-0.8-22.7-2-3.2-1,9.6c0.1,1,1.3,1.3,1.2,0
	C587.7,487.1,587.7,491,587.7,485.4z M587.2,464.7c0.1-0.5,0.1-0.3-0.1-9.1c0,0-0.1-5.5-0.1-8.3c0-2.3-1.3-1.4-1.3-1.2
	c-0.2,0.7,0.3,18.2,0.3,18.6C586.1,465.2,587.1,465.2,587.2,464.7z M586,431.8c0-0.2,0-0.4,0-0.6v-1.1l0,0c-0.3-9.6,0-9.1-1.1-9.1
	c-1.1-0.1,0,14.8,0,14.8h0.1c0.1,0.4,0.3,0.7,0.7,0.6c0.6-0.1,0.6-0.4,0.3-1.1V431.8L586,431.8z M585.3,413.6
	c0.6-0.1,0.6-0.4,0.6-1.2c0-10.8,0-9.1-0.1-10c-1.2,1.4-1.7,2.7-1.6,4.3C584.7,412.7,583.8,413.7,585.3,413.6z M585,464.6
	c0-0.4,0,0.1,0-9.3c0,0-0.3-5.6-0.4-8.4c-0.1-1.9-1-1.1-1-0.8c-0.1,0.7,0.3,18.1,0.4,18.6C584,465.1,584.9,465.2,585,464.6z
	 M583.9,437c0.6,0,0.6-0.4,0.6-1.2c-0.2-5.6-0.8-14-0.8-14H583v7.1C583,429,583.2,437,583.9,437z M583.5,406.2
	c-1.4,2.1-1.3,2.7-1,6.9C582.5,413.6,584.8,416.3,583.5,406.2z M583.4,484.8c-0.2-9.8-0.1-9.6-0.5-9.6c-1.4-0.1,0.7,37.2,0.7,9.6
	C583.5,484.8,583.4,484.8,583.4,484.8z M582,464.8L582,464.8h1v-0.4v-1.9v-3.7h-1v-2.2v-10.8l0,0V464.8h0.8H582z M582.3,436
	c-0.4-15-0.3-12.6-0.6-14.2c-0.1-0.3-0.5-0.1-0.5,0.1c-0.1,0.9,0.1,7.2,0.1,7.2c0,7.3-0.1,7.6,0.5,7.6
	C582.2,436.8,582.3,436.4,582.3,436z M581.5,413.7c0.3-0.2,0.3-0.3,0.3-4.1c-0.1,0-0.3-0.1-0.4-0.1c-0.6,0.8-1.2,1.6-1.8,2.5
	C579.1,412.8,580.3,414.5,581.5,413.7z M581,457.8v7h1v-8.6c-0.6,0-0.9-9.5-1.2-10.3C580.7,449.9,581.1,453.9,581,457.8z
	 M581.4,484.8c-0.2-10-0.1-9.5-0.6-9.6c-1.4-0.3,0.7,35.8,0.7,9.6C581.4,484.8,581.4,484.8,581.4,484.8z M581,464.7
	c0-0.4-0.1-9.3-0.1-9.3c0-23.9-1.6,3.3-0.6,9.3C580.4,465.3,581,465,581,464.7z M580,436.8v-15h-1v15H580z M578.5,476.7
	c-0.3,0.4-0.2,0.9-0.2,1.3C579,513,579.6,477.5,578.5,476.7z M586.2,402.1c0.5,11.1,0,10.9,0.9,11c1.1,0.1,0.8-0.3,0.8-7.3h0.1
	c0-1.8,0-3.6,0-5.3C588,396.5,586.1,400.2,586.2,402.1z M589,428.3c-0.7-6.3-0.4-7.1-1.9-6.8c-0.8,0.2-0.2,12.6,0.3,14.4
	c0.2,0.7,1,0.8,0.6-0.1v-7h1V428.3L589,428.3L589,428.3z M590.2,411.4c-0.1-9,0.2-12.7-1.6-12.1c-0.7,0.3,0.2,13.4,0.2,13.6
	C590.2,412.6,590.2,412.6,590.2,411.4z M590.6,430.5c0-6.5-1.9-10.9-1.8-7.7c0.3,14.4,0.3,12.8,0.4,13.3c1.7-0.4,1.6-2.1,1-3.8
	C590,431.6,590.6,431.2,590.6,430.5z M589.5,449c0.3,12.3,0.3,10.8,0.4,11.3c0.1,0.3,0.5,0.1,0.5,0c0.1-0.8,0.1-0.6,0-5
	C590.3,448.4,589.9,451.4,589.5,449z M590.2,461.9c-0.6,0.2-0.5,2.6,0.1,2.4c0.6-0.2,0.3-0.8,0.4-1.1
	C590.7,462.2,590.5,461.8,590.2,461.9z M590.6,485c0.1,9.9-0.1,9.4,0.5,9.4C591.6,494.5,591.4,485.2,590.6,485z M577.7,489.1
	c0.4-1.4,0.2-6.3-0.2-7.4C577.1,483.4,577.3,488.1,577.7,489.1z M577.1,460.5c0.4-2.4,0.2-10-0.4-11.6
	C576.7,461,576.6,460.2,577.1,460.5z M576.5,436.3c0.5-0.3,0.1,0.2,0.1-12.6C576.6,416.5,575.2,437,576.5,436.3z M576,431.9v-6.8
	C575.1,425.1,575.8,431.3,576,431.9z M574.6,407L574.6,407c0.1,5.9-0.1,6.1,0.7,6.4c0.7,0.3,1.1,0.1,1.1-0.7c0-8,0.1-6.9-1.2-11.5
	C574.4,398.8,574.6,406.8,574.6,407z M245.2,231c0-3.7-7.9-14.9-8.4-15.2c-0.3,10.9,0.3,30.9-0.2,33c0.4,1.1,0,19.5,0.4,23.1
	c0.4,3.3,6.8,10.2,7.6,12.3C245.4,286.2,245.2,231.3,245.2,231z M239.1,428.6c-0.2-1.4-4.2-0.4-1.8,2c0.2,0.2,0.2,0.6,0.6,0.5
	c0.4-0.1,0.3-0.5,0.2-0.9C237.9,429.2,239.4,430,239.1,428.6z M242.5,289.1c0-2.2,0.3-7.6-5.8-12.7c0,66.2-0.3,150.4,1,150.4
	C243.4,426.9,242.2,492.6,242.5,289.1z M243.9,285.8c-0.9-0.9-0.5-2.4-0.5,75.8l0,0c0,76.1-1,77,1.4,75.8c0.8-0.4,0.4,0.6,0.5-143.4
	C245.3,288.7,245.6,287.7,243.9,285.8z M252.5,240.1c-11-17.4-4.7-14.1-6.5,44.7c-0.1,2.4,7.1,10.9,7.9,11.7
	c0.1-0.9,0.6-1.5,0.2-2.2C254,294.4,255.4,244.8,252.5,240.1z M249.8,433.4c0,0,1.4,34.7,1.1-75.6c-0.1-68.6,1.3-60.1-3.5-66.9
	c-2.3-3.3-1.3,0-1.2,19.1c0.7,131.4-2.5,127.4,1.9,127.8c1.4,0.1,0.9-3.4,0.7-4.1C248.4,432.7,250,432.8,249.8,433.4z M252.3,297.6
	c-1.3,1.4,0.4,18.3-0.5,21.9c0.8,7-0.9,118.6,0.6,118.8c1.9,0.2,1.9,0.5,1.9-1.6C253.8,287.3,255,301.2,252.3,297.6z M262.9,271.9
	c0-13.4,0.4-14.9-1.7-17.9c-8-12-6.3-15.3-6.3,13.4l0,0c0,20.8-0.3,31.1,1,32.4C264.5,309,262.8,320.9,262.9,271.9z M258.6,435.1
	c0.8-0.1,0.6,4,0.6-63.3h-0.1c0-58.8,1.3-67.2-3.6-69.1c-0.9,0.8-0.7,159.3,0.8,134.8C256.4,435.7,256.7,435.4,258.6,435.1z
	 M256.8,437.8c0,1,0,1,1,1.1c0.4,0.1,0.8,0.2,1.3,0.1c0.3-1,0.1-2.1,0.1-3.1C258.8,435.5,256.7,435.2,256.8,437.8z M260.6,308.8
	c-0.9-1.1-0.5,128.9-0.4,129.2c0.1,1.3,0.3,1.1,1.4,1.2c1.9,0.2,1.5,7.7,1.5-88.2C263,306.3,263.7,312.6,260.6,308.8z M266,435.5
	c0-3.5,0.3-4-1.1-4.1c-1.6-0.1-1.3,0-1.3,7.1c0,0.9-0.1,1.1,1.5,1.3C266.2,439.9,266,439.6,266,435.5L266,435.5z M264.7,314.3
	c-1.7-1.8-0.4,79.9-0.9,82.4c0.2,0.6,0.2,25.4,0.2,25.7c-1.1,16.8,2.7-0.1,2.8,15.1c0,1.1,0,1.8,0.2,1.8c0.7,0,0.4,1.4,0.4-42.9
	C267.4,311.1,268.4,318.2,264.7,314.3z M270.9,272.3c0.1-3.5-1.1-4.6-5.5-11.1c-1.6-2.4-1.6-2.6-2-2.4c-0.3,0.1-0.2,35.9,0.1,38
	c-0.4,1.8-0.3,13.2,0.4,14.3c2.5,4.1,4.4,4.7,4.6,6.1c0,0.3,2,2.8,2.5,2.8C271,319.9,270.9,273.1,270.9,272.3z M271.4,325.1
	c0.4-2,0.4-2-2.7-5.7c-1.1-1.3-0.6-0.6-0.6,60.4h0.1c0,66.5-1.1,60.4,1.9,60.7C273,440.8,271,327.3,271.4,325.1z M278.1,279.5
	c-4.9-7.2-4.9-7.7-5.7-8.1c-0.8,1.9,0.1,1.9,0,38.6c0,10.5-0.7,11,0.6,12.3c8.1,8.6,7,19.7,6.6-24.2
	C279.4,283,280.2,282.5,278.1,279.5z M272.7,324.6c-0.6,0.2-0.4,115.5-0.2,115.8c3.6,1,2.6,4,2.6-32.4
	C275.1,347.2,276.1,323.5,272.7,324.6z M276.2,329.1c-0.3,0.1-1.3,111.2,0.6,111.8c1.1,0.3,2.8,0.7,2.8-0.4
	C280.4,327.4,280.1,332.3,276.2,329.1z M280.5,283.9c0,55.8-2,45.6,5.9,55.4c1.8,2.2,1.2,0.4,1.3-32.1
	C287.8,294.9,288.5,292.7,280.5,283.9z M282.9,439.9c-0.2-2.8-3.2,0-1.9,1.4l0,0C282.5,442.4,283,441.8,282.9,439.9z M280.7,437.9
	c0.7-0.1,1.2-0.2,1.8-0.3C284.1,432.9,280.7,208.2,280.7,437.9z M283.9,338.8c-0.5,0.6-0.6,103.1,0.5,103.1c2.4,0,3.5,1.8,3.5-1.2
	C287.9,340,288.9,342.1,283.9,338.8z M293.7,302.1c-3.1-3.9-3.9-6.4-5.1-6.9c-0.1,0.8-0.3,46.7,1.4,48.3c6.6,6.1,5.7,18.4,5.5-30.8
	C295.5,306.6,295.7,304.8,293.7,302.1z M288.8,345.1c-0.3,0.5-0.3,87.8-0.3,88.8c2.4-0.1,1.7,1.5,1.7-13.4
	C290.3,337.8,291,345.4,288.8,345.1z M289.1,434.7c-0.7,0-0.6,0.3-0.6,4.1l0,0c0,2.1-0.4,4.4,1.5,3.9c0.3-0.1,0.4-0.2,0.4-3.1
	C290.4,435.1,290.6,434.8,289.1,434.7z M291.8,348.4c-1.1-1.2-1-0.6-0.9,21.4c0.3,77.3-0.3,72.7,1.3,73c4.3,0.8,3.5,6.9,3.5-44.9
	l0,0C295.7,346,297,354.1,291.8,348.4z M303.2,332.1c-0.9-20.1,1.6-14.3-5-23.4c-0.9-1.3-1.1-2-1.7-1.8c-0.3,0.1-0.9,44,0.7,45.6
	c6,5.9,6,10.9,6-1C303.3,335.1,302.6,334.2,303.2,332.1z M301.6,360c-5.2-5.5-3.6-10.6-3.6,38.4c0,0.2,0,44.1,0,44.1
	c0,0.8-0.1,1.4,2.5,1.7c1.4,0.1,1.4,0.1,1.6-1.4c1.3-10.5,1,11.9,1-18.3C303.1,358.4,303.7,362.3,301.6,360z M310.5,331.2
	c0-5.2,1-5.3-6.3-13.9c-0.4,1.6-0.7,43,0.6,44.1C312.7,367.9,310.4,379.1,310.5,331.2z M311,434.7c0-2.4,0-4.7,0-7.1
	c-0.2-19.3-0.3,19.6-0.3-31.8c0-25.9,0.5-25.2-1.1-26.9c-6-6.2-4.1-14.3-4.1,54.5c0,24.4-0.7,20.9,2.2,21.5
	C311.9,445.9,311,446.3,311,434.7L311,434.7z M317.8,355c-1-22.6,2.6-15.9-5.2-26.7c-1-1.4-1.3-0.9-1.3,0.9c1,43.5-2.6,37,5.2,45.4
	c0.4,0.5,0.8,0.9,1.1,0.6C318,375,317.9,357.1,317.8,355z M317.9,391.1c0.2-11.8,0.2-12.8-1.6-14.7c-5.7-5.7-4-10.3-4,28.4
	c0,0,0,0,0.1,0c0,5.5,0.1,10.9,0,16.4c-0.1,5.9-0.1,15.2-0.1,15.2c-0.1,1.3,1.5,0.4,1.4,2.2c-0.1,8.5-0.8,7.3,3.8,7.8
	C319.4,446.6,317.2,434.1,317.9,391.1z M312.9,445.7c0.6,0,0.6,0,0.5-6.9c0-0.3-0.3-1-0.9-0.9c-0.5,0.1-0.4,0.3-0.4,4l0,0
	C312.2,445.6,312,445.7,312.9,445.7z M324.8,347.8c0-3.8-1.1-4.4-5.3-9.9c-1.1-1.5-1,0.5-1,18.9c0,0,0,0,0.1,0
	c0,29.4,0.1,17.6,5.6,26.6C325.9,386.3,324.6,370,324.8,347.8z M323.4,384.3c-4.1-4.5-4.1-4.3-4.4-4.1c0,0-0.3,64.2-0.3,64.3
	c0,2.4,0.2,2.2,4,2.6c0.3-0.7,0.2-1.2,0.2-1.7c0.2-2.3,2-0.4,2-2.4C324.7,382.7,325,386.1,323.4,384.3z M324.6,444.7
	c-1.1-0.1-1.6,1-1.2,2c0.2,0.7,1.8,0.4,1.7-1C325,445.3,325.3,444.7,324.6,444.7z M327.4,347.7c-0.4-0.5-0.7-1-1.5-1.3
	c-0.5,3.4-0.2-6.2-0.2,21.9c0,16.1-0.4,15.9,1.1,17.4c4.5,4.6,4.3,4.5,4.7,4.4c0.6-2.8,0.3-5.6,0.4-8.4
	C332.3,349.1,332,353.7,327.4,347.7z M329.5,390.6c-2.5-2.4-2.5-3.2-3.8-3.5c0,0.3,0,58.9,0.1,59.7c0.1,0.6,0.2,0.6,5,1.3
	c0.9,0.1,0.4-47.9,0.4-48.2C331.1,394.4,331.7,392.7,329.5,390.6z M338.5,364.6c0-2.1-0.6-3.9-2.1-5.4c-5.5-5.9-3.6-11.9-3.8,31.1
	c0,1.9,0.5,2.1,4.4,6C339.3,398.5,338.1,396.1,338.5,364.6z M332.8,433c-0.3,14.5,2.1,0.2,2.1,13.5c0,1.3-0.1,1.8,0.6,1.9
	c3.6,0.6,2.4,4.1,2.1-28.4c-0.2-23.9,1.4-19.7-4.1-25.6c-0.9-1-0.7,1.2-0.7,14.4c0.1,0,0.1,0,0.2,0C333,416.6,332.8,432.8,332.8,433
	z M332.8,441c-0.2,0.9-0.1,1.8-0.1,2.7c-0.1,5.3,0,4.1,1,4.4c0.5,0.1,0.7-0.1,0.6-0.5C334,443.6,335.5,441.2,332.8,441z
	 M339.9,363.7c-0.4-0.4-0.9-0.3-0.9,0.4c0,8.8,0.2,32.8,0.2,32.8c-0.1,1.1,0.2,2,1,2.7c3.6,3.2,4.7,5.4,4.7,2.7
	C345.1,369.7,346.1,369.3,339.9,363.7z M339.5,448.3c0,0.7,0.2,0.6,2.4,1.1c0.2-1.3,0.1-2.3,1.3-2.7c0.9-0.3,0.6,1.4,0.5-28.6
	c0-11.5,0.5-12.4-0.9-14.1C337.5,397.9,339.9,398.5,339.5,448.3z M345.5,433.8C345.4,433.8,345.4,433.8,345.5,433.8
	c-0.1-10.8-0.4-27.5-0.4-27.7c-1.7-7.1,0.7,41-1.4,40.9c-1.4,0-1.8,2-0.5,2.2C346.2,449.7,345.5,452.5,345.5,433.8z M351.5,393.4
	c-0.4-18.9,1.4-14.6-5.1-22.3c-1.1-1.3-0.7,2.3-0.7,16.7c0,0,0,0,0.1,0c0,20.2-1,15.9,4.6,21.1C351.7,410,351.9,409.9,351.5,393.4z
	 M346.1,428.7c0,23.7-0.7,21.4,1.9,21.6c0.6,0.1,1.3,0.4,1.8,0c0.3-0.2,0.2-34.6-0.3-39.1c-0.1-1-2.3-3.6-3.2-3.5
	C346.1,408.1,346.1,406.4,346.1,428.7L346.1,428.7z M350.4,446c-0.1,4.2-0.1,4.9,0.8,4.9c0.5,0,0.8-0.1,0.8-0.6
	c-0.1-2.2,0.2-4.5-0.2-6.7C351.9,442.1,351.7,370.8,350.4,446z M357.8,414.3c-1.1-33.4,2.6-26.6-4.6-34.9c-1.4-1.7-1,0.8-1,15.4h0.1
	c0,16.3-0.3,16.4,1.4,17.6C355.4,413.7,357.9,416.7,357.8,414.3z M354,444c0.4,1.5,2.5,26.5,1.7-25.4c-0.1-4-3.6-5.8-3.4-4.4
	c0.2,1.7-0.1,25.5,0.1,28.6C353,443.3,353.9,443.1,354,444L354,444z M354,444c-0.5,0.1-1-0.3-1.5,0c-0.2,0.4-0.1,0.3-0.1,6.1
	c0,0.9,0.2,1.1,1.1,1.1C354.1,451.2,354,451.4,354,444z M356.4,433.8C356.4,433.8,356.5,433.8,356.4,433.8
	c0.1,18.3-0.3,17.6,1.1,17.4C359.6,451,356.4,386.7,356.4,433.8z M363.7,398.1c0.4-6.1-0.1-7.2-1.1-8.3c-4.1-4.5-3.5-3.9-4.1-4.1
	c0,36-1,30.2,4.5,34.6C365.4,422.4,363.2,406.6,363.7,398.1z M361.6,426.5c0-4.1,0.4-5.6-2.4-7.3c-0.6-0.4-0.6,0.4-0.6,4.1
	c0.1,36.7-0.1,28.4,1.7,27C361.9,447.2,361.7,456.7,361.6,426.5z M360.3,450.2c0,2.1,1.3,1.6,1.4,0.4
	C361.7,450,361.2,450.2,360.3,450.2z M364.1,424.2c0-1.5-0.6-1.6-1.6-2.4c-0.9,0.8-0.1,26.2-0.2,28.8c0,0.8,0.8,1.1,0.9,1.8
	c0,0.4,1.1,0,1.2-0.8C364.3,451.6,364.1,424.2,364.1,424.2z M367.5,441.8C367.4,441.8,367.4,441.8,367.5,441.8
	c-0.5-1.9-0.1-11.9-0.4-14.4c-0.2-1.6-0.5-2-2.4-2.9c-0.8,32.3-0.2,29.3,2.6,28.9C367.3,452.2,367.2,443.1,367.5,441.8z M365,392.6
	c-0.7,0.8,0,13.2-0.3,27.6c0,2.4,0.8,2.5,5.2,6.1C370.5,393.9,370.5,398.3,365,392.6z M369.5,427.6c-0.5-0.3-0.9-0.8-1.5-1.1
	c-0.7,1.1,0.3,13.2-0.5,14.8c1.4,1.6-1.5,12.1,2.3,12.1C370.2,453.4,370.8,428.4,369.5,427.6z M375.7,406.6c0-1.3,0.1-2.8-1.1-4
	c-6-5.9-3.5-8.4-4,23.1c0,1.8,0.3,2,4.9,5.5C376.1,430.8,375.6,433.1,375.7,406.6z M371.8,453.6c0.7,0.1,0.4-5.9,0.2-6.4
	c-0.1-0.4-0.9-0.6-1,0.1c0,0.8,0,1.9,0,2.9l0,0C371,453.3,370.8,453.4,371.8,453.6z M372.5,446.6c0.3-0.3,0.2-0.7,0.2-1.1
	c-0.1-15.1,0.4-15.7-2.1-16.5C370.7,442.9,370.3,446.8,372.5,446.6z M376.1,452.8c-0.1-21.2,0-19.9-0.7-20.3c-2.6-1.4-2-3.8-2,10.3
	h0.1c0,12.4-0.3,11.3,0.9,11.5C376.1,454.6,376.1,454.6,376.1,452.8z M381.5,418.5c-0.3-8,0.1-8.8-1.2-10.2
	c-5.8-5.9-3.4-6.6-3.8,22.2c0,1,0.2,1.7,1.1,2.1C381.5,434.6,382.3,442,381.5,418.5z M378.1,451c0-11.7,0.4-18-1.3-17
	c-0.6,0.4,0,17.9,0,18.2C378.1,451.9,378.1,451.9,378.1,451z M377.3,454.1c0.4,0.9,1.5-0.5,0.5-1.2
	C377.4,453.1,376.9,453.3,377.3,454.1z M379.8,454.8c2.8,0.5,1.8,1.8,1.8-17c0-1.1-1.6-2-2.5-2.5c-0.4,0.6-0.5,1.1-0.5,1.7
	C379.2,444.5,378.1,454.5,379.8,454.8z M387.2,437.8c-0.3-25.9,0.6-22.3-4.3-26.9c-1.5-1.4-0.6,6-0.6,7.3c0,18.6-0.5,18.1,1.2,18.9
	c1.5,0.8,2.8,2.5,3.6,2.2C387.3,438.9,387.2,438.3,387.2,437.8z M382.5,438.2c-0.4,0.2-0.1,1.2-0.1,15.5c0,1,0,1.4,0.5,1.4
	s0.5-0.4,0.5-1.8C383.3,443.4,383.8,437.6,382.5,438.2z M387.2,448.2c0.1-7.6,0.5-6.6-2.1-8.2c-1.4-0.9-1.1,0.3-1.1,7.8h0.1
	c0,8.6-0.3,7.9,1,8.1C388.4,456.7,387.1,456,387.2,448.2z M388.8,416.3c-1.1-1.1-0.9,0.1-0.9,11.5h0.1c0,14.2-1.1,11.7,4.1,15.1
	c0.8,0.6,0.7-1,0.7-2C392.6,417,393.7,421,388.8,416.3z M391.6,444.2c-3-1.3-2.3-4.3-1.9,9.6c0,1.9-0.2,2.4,0.8,2.7
	c2.4,0.5,2.3-0.3,2.3-6.4C392.8,445.7,393.1,444.9,391.6,444.2z M397.8,425.6c-0.1-1.5-0.5-1.6-4.3-4.8c-0.3,0.8-0.6,23.1,0.5,23.7
	C399.1,447.6,398.8,451.9,397.8,425.6z M394.7,454.8c0,0.1-0.1,0.2-0.1,0.3c-0.4,2.3-0.2,1.8,1.6,2.2c2.5,0.6,2-1,2-4.7l0,0
	c0-4.6,0.6-3.9-2.5-5.8c-1.2-0.7-1.6-0.8-1.3,3.4C394.5,451.8,394,453.3,394.7,454.8z M399.3,425.8c-0.7-0.6-0.7,0.8-0.7,1.3
	c0.1,21.8-0.2,20.1,0.9,21c0.7,0.6,2.8,2,4,2.3C403.7,426.1,403.7,429.6,399.3,425.8z M399.3,456.9c0,0.6,0.3,0.9,0.8,1
	c2.8,0.5,3.4,0.6,3.4-0.2c0-4.8,0.2-6.1-1.7-7.1C398.7,449.1,399.4,447.9,399.3,456.9z M404.6,430.3c-1.7-1.3-0.1,7.2-0.6,19.6
	c0,1.3,3,2.8,4.7,3.6C408.5,431.4,409.6,434.2,404.6,430.3z M404.7,452.4c-1.6-0.6,0.5,12.3,0.5,3.2l0,0
	C405.2,452.9,405.3,452.6,404.7,452.4z M408.2,457.1c1.4-2.3-2.6-4.7-2.6-3.1c-0.1,4.4-0.2,4.7,0.9,4.8
	C407.8,458.9,406.4,457.9,408.2,457.1z M407.8,458.5c0,0.4,0.4,0.4,0.5,0.1C408.4,458.3,407.9,457.9,407.8,458.5z M411.9,436.3
	c-1.6-1.1-2.3-2.3-2.8-1c-0.2,0.6-0.3,1.3-0.2,1.9c0.8,4.6-0.9,16.3,1.3,17.3c2.1,1,2.3,1.4,3,1.2c0.2-0.4,0.1-0.9,0.1-1.4
	C413.5,438.1,413.9,437.6,411.9,436.3z M409.4,458.4c0,1.1,0.7,0.9,3.6,1.4c1-2.8-1.1-3.4-2.9-4.4
	C409.2,455,409.4,456.2,409.4,458.4z M418.6,453.2c-0.1-10.3,0.5-11.9-1.7-13.2c-3.7-2.2-2.6-5-2.6,15.5c0,0.9,0.3,1.4,1.1,1.6
	c1,0.3,1.9,1.1,3.2,1.2c-0.2-1.3,0.5-2.6-0.3-3.8C418.5,454.1,418.6,453.7,418.6,453.2z M417.6,460.6c0.1-0.6,0.2-1.2-0.4-1.5
	c-0.9-0.5-1.8-1-2.7-1.3c-0.1,0.1-0.2,0.1-0.2,0.2C414.4,459.9,414.2,460.3,417.6,460.6z M419.4,442c-0.8,0.7-0.3,10.3-0.3,11.1
	c0.1,2,1.1,0.3,1.1,2.8c0,2.9-0.2,4.5,1.4,3.9c1.2-0.5,1.7,0.8,1.7-2.1C423.4,442.9,424.1,445.3,419.4,442z M419.2,458.5
	c0.1,0.9,1.5-0.1,0.6-3.2C419.8,455.1,418.7,454.5,419.2,458.5z M424.3,445.8c-0.4,0.4-0.2,0.8-0.2,1.2c0,16.3-0.9,14.3,3.2,15.1
	c0.5,0.1,0.9-0.2,0.9-0.8C428,450.4,429,446.8,424.3,445.8z M432.6,456c0-3.8,0.2-5-1.1-5.6c-1.7-0.9-2.9-2.4-2.9-0.6
	c0,0.4-0.1,6.8,0.2,8.4c0.3,1.8-0.7,4.2,1,4.4c3.2,0.4,3.6,1.6,2.4-5.7C432.2,456.6,432.6,456.4,432.6,456z M437.3,455.9
	c0-1.3-0.3-2.3-1.4-2.9c-1.4-0.8-2.5-1.8-2.5-0.4c-0.1,3.6,0,3.9,0.6,4.2c0.8,0.3,0.9,3.9,0.7,5c0.6,0,1.2,0,1.6,0.2
	c-0.1,0.5-1.3,0.4-1.1,1c0.1,0.2,0.2,0.4,0.4,0.5C437.8,464.5,437.3,461.3,437.3,455.9z M434.2,459.8c-0.2-2.6-0.1-2.4-0.4-2.5
	c-0.2-0.1-0.3,0.2-0.3,0.3c0,4.9-0.1,4.9,0.3,4.9S434.1,462.3,434.2,459.8C434.1,459.8,434.1,459.8,434.2,459.8z M441.7,457.6
	c0-1.8-1.3-2-2.4-2.6c-1.7-0.9-1.4-0.2-1.4,4.3l0,0c0,5.5-0.7,4.6,3.1,5.1C441.9,464.5,441.9,464.2,441.7,457.6z M446.1,460.3
	c0-0.6-0.8-0.6-0.4-1.1c0.6-0.7-0.5-0.9-1.9-1.7c-1.6-0.9-1.3-0.2-1.3,3.4l0,0c0,4-0.6,3.8,2.8,4.2
	C446.3,465.2,446.1,464.8,446.1,460.3z M449.3,460.3c-0.4-0.2-0.8-0.5-1.3-0.4c-0.3,2.1-0.1,2.8,0.8,4.4c0.5,0.8-2.7,1.1,1.5,1.8
	C450.5,461.3,450.4,460.7,449.3,460.3z M454.5,464.8c-0.1-1.5,0.6-2.6-3.4-3.4c0,5.1-0.5,4.7,1.8,5.1
	C454.9,466.8,454.7,466.7,454.5,464.8z M458.4,464.6c-0.2-0.5-0.4-0.4-2.7-1.3c-0.7,1-0.5,2.1-0.5,3.1c0,0.5,0.6,0.6,2.8,0.9
	C459.1,467.6,458.9,465.9,458.4,464.6z M460.5,467.2c0.1,0.9,1.8,1,2.1,0.9C463.8,466.6,460,463.2,460.5,467.2z M463.7,466.7
	c-0.3,0.3-0.4,1.6,0.4,1.7C469.6,469.4,464.7,465.6,463.7,466.7z M467.6,468.5c0,0.7,0.4,0.6,1.9,0.9
	C471.5,468.4,467.7,467.1,467.6,468.5z M484,471.2c-0.7,0.1-0.2,1,0.3,0.9C484.8,472.1,484.8,471.1,484,471.2z M487.6,470.6
	c0.1-0.1,0.3-0.2,0.3-0.2C487.7,469.9,486,470.4,487.6,470.6z M487,471.6c-0.4,0.1-0.4,0.8,0,0.9C488.7,473.1,488.4,471.2,487,471.6
	z M490.9,469.5c-1.5-0.5-3.4,1.5-0.1,1.3C491.6,470.8,491.6,469.7,490.9,469.5z M490.9,471.9c-1.1,0.1-1,1.6,0.2,1.5
	C491.9,473.2,492,471.8,490.9,471.9z M492,470.1c0,1.2,2,1.3,2-0.1C494.1,468.4,492.1,468.5,492,470.1z M495.4,473.8
	c0.2,0.7,1.1,0.8,1.2-0.1c0.2-1.5-1.3-2.9-1.3-0.5C495.3,473.1,495.3,473.5,495.4,473.8z M497.5,467.6c-0.3-0.1-2.1-0.2-2.1,1.8
	c0,1.5,0.1,1.6,1.5,1.3C498,470.5,497.7,468.6,497.5,467.6z M497.7,472c-0.6-0.3-1.3,2.4-0.1,2.6c0.4,0.1,0.4-0.5,0.5-1.4
	C497.9,472.8,498.3,472.3,497.7,472z M501,468.8c0-1.5,0.1-1.9-0.6-1.9c-2.1-0.1-1.8,1.9-1.7,3.5c0,0.6,0.6,0.7,1.5,0.5
	C501.1,470.8,501,470.3,501,468.8C500.9,468.8,500.9,468.8,501,468.8z M498.7,474.4c0,0.3,1.2,1.7,1-2.1
	C499.6,471.8,498.1,471.2,498.7,474.4z M501.1,472.9c-0.1-2.7-1.3,0.3-0.3,2.3C501.2,474.2,501.1,473.6,501.1,472.9z M502.5,465.4
	c-1,0.3-0.8,1.1-0.8,2.7l0,0c0,1.6-0.4,2.6,1.8,2c0.4-0.1,0.5-0.2,0.5-4.6C504.1,464.6,502.9,465.3,502.5,465.4z M503.1,475.6
	c1-5-1.3-4.5-1.4-3.5C501.4,475.2,501.1,475.3,503.1,475.6z M504.5,475.1c0.1,1.2,1.8,1.6,1.9,0.9c0.3-3,0.3-4.9-1-4.8
	C504.4,471.3,504.3,471.6,504.5,475.1z M506.8,463.7c-0.5-0.1-2.1,0.2-2,1.7c0.3,4.3-0.4,4.7,0.9,4.8c1.5,0.1,1.3-0.6,1.4-1.4
	C507,463.9,507.1,464.1,506.8,463.7z M510,462c-3,0.3-2.4,2.8-2.3,7c0,0.8,1.1,0.6,1.9,0.4C510.3,469.2,510.1,469,510,462z
	 M509.9,473.8c-0.1-2.6,0.1-3.3-1-3.2c-1.5,0.2-1.3,0.6-1.3,5.3c0,0.7-0.1,0.9,1.5,1.1c0.7,0.1,0.6-0.5,0.6-3.2
	C509.8,473.8,509.9,473.8,509.9,473.8z M512.6,477.5c0.3-1.2,0.1-2.4,0.2-3.6c0-0.9-1.2-0.7-0.4-1.5c0.7-0.6,0.5-1.5,0.3-2.2
	c-0.1-0.4-0.7-0.2-1.4,0c-0.6,0.1-0.6,0-0.7,5.9C510.7,477.1,510.7,477.5,512.6,477.5z M513.2,464.8L513.2,464.8
	c-0.1-3,0.2-4.3-1.1-3.8c-1.7,0.7-1.1,1.2-1.2,7.7c0,0.5,0.2,0.6,0.6,0.6C513.5,469.4,513.2,468.1,513.2,464.8z M515.9,473.8
	c0-3.9,0.3-4.8-1-4.5c-0.5,0.1-1.6,0.3-1.1,2.6c0.9,4.6-0.1,6.2,1.2,6.4C516,478.4,515.8,478.2,515.9,473.8
	C515.8,473.8,515.9,473.8,515.9,473.8z M515.8,458.7c-1.7,0.6-2,0.9-2,2.5c0,6.8-0.3,7.4,1.2,6.9c1-0.3,1.1-0.5,1.2-1.6
	C516.2,460.9,516.3,460.1,515.8,458.7z M518.5,456.8c-1.3,0.4-1.9,1.1-1.9,2.5c0.3,7.7-0.4,8.3,0.8,8c0.9-0.2,1.5-0.3,1.5-1.1
	C518.9,457.5,519.1,457.9,518.5,456.8z M516.8,469.3c-0.2,10.6,0.1,9,2.2,9.5C520.4,463.7,516.8,468.9,516.8,469.3z M520.9,455
	c-1.8,0.8-1.4,0.5-1.4,9.3c0,1.6-0.2,2,0.5,2.1c2.2,0.2,1.7-2,1.7-6.1l0,0C521.7,455.5,522,454.5,520.9,455z M521.6,467.2
	c-2.2,0.2-2-0.2-1.8,10.3c0,2,1.7,2.1,2.2,1.9c0-3.7,0.1-4-0.4-4.3c-0.2-0.1-0.2-0.3,0-0.4C522.7,474.1,521.9,468.3,521.6,467.2z
	 M524,452.8c-1.1,0.4-1.7,1.1-1.7,2.4c0.1,4,0,8.5,0.1,9.8c0.1,0.8,2.1,0.3,2.1-1.5C524.6,453.6,524.7,453.5,524,452.8z M524,466.1
	c-2.1,0.5-1.1,0.9-1.2,7.3c0,2.2,0.7,1.1,0.7,3.1c0,3.1-0.2,3.6,0.7,3.7c1,0.1,1.1-1.1,0.9-2.1C524.3,471.2,526.1,465.6,524,466.1z
	 M526.8,450.4c-0.3,0.1-1.7,0.9-1.7,2.2c0,11.9-0.4,12,1,11.5c0.7-0.3,1.1-0.7,1-1.6C527.1,450.7,527.5,450.9,526.8,450.4z
	 M527.7,466.1c0-2.3-1.6-1.1-1.8-0.5s-0.2,13.5-0.2,13.7c0,1.2,0.1,1.3,1.2,1.5C528,481.1,527.9,481.4,527.7,466.1z M529.8,455.6
	c-0.3-7.1,0.2-7.2-0.4-7.2c-0.5-0.1-1.5,0.9-1.5,2c0.2,13.9,0,11.4,0.2,12.4C530.4,463.7,529.9,458.2,529.8,455.6z M529.9,463.4
	c-1.7,0.6-1.2,0-1.2,15.9c0,2.2,1.4,2.4,1.5,1.5C530.3,480.4,530.2,464.9,529.9,463.4z M532.5,451.2c-0.1-5.2-0.1-5.4-0.8-5
	c-1.8,0.8-1,1.6-1.2,13.8c0,0.7,0,1.4,0.6,1.3C532.8,460.9,532.6,460.9,532.5,451.2z M532.8,472.1L532.8,472.1
	c-0.1-9.8,0-9.6-0.4-9.7C529.9,461.8,533.3,498.8,532.8,472.1z M534.7,443.4c-1.2,0.6-1.5,1.4-1.5,2.6c0.2,14.2-0.4,14.4,0.8,13.9
	c0.8-0.3,1.3-0.8,1.3-1.8C535,444.1,535.5,444.2,534.7,443.4z M533.8,482.1c0.4-0.7-0.4-20.4-0.4-20.7
	C532.9,462.4,533.5,481.7,533.8,482.1z M535.2,460.8c-1.4-0.1-1-0.2-0.6,20.3c0,1,0,1.5,0.7,1.5C536,482.6,535.2,461,535.2,460.8z
	 M535.7,461c1.1,45.8,1.2,8.5,0.5-1C535.6,460.3,535.7,460.6,535.7,461z M537.5,440.9c-0.1-0.9-1.7,0.9-1.7,2.3
	c0.1,8.8,0,14,0.1,15.2c0.7-0.1,0.9-0.7,1.4-0.9C537.9,457.2,537.6,441.5,537.5,440.9z M538,471.2L538,471.2
	c-0.1-11.6-0.1-11-0.1-11.7c0-0.3-1-0.8-0.9,1.5c0.3,21.6,0.1,22.6,0.9,22.2C538.4,483,538.3,483.9,538,471.2z M540.1,438.4
	c-0.1-0.8-1.6,0.7-1.6,2.5c0.1,10.6-0.1,13.6,0.2,15.8c1.3-0.3,1.7-1.1,1.7-2.3C540.1,439.7,540.5,441.4,540.1,438.4z M539,470.2
	V468c0.3-0.7-1-2.2-1-2.2v-7.1c0,0,1.1-0.3,1-0.3c-0.2-0.1-0.5,0,0,0.3v24.6c-0.5,0.5-1,0-1,0v-1.9v-4.3v-4.4v-1.1
	C539.2,471.1,539.2,470.6,539,470.2v0.1V470.2z M540.2,457.3c-0.9,0.3-0.1,25.8-0.1,26.1c0,0.5,0.8,0.7,0.8,0
	C541,483.1,540.6,457.6,540.2,457.3z M542.5,435.3c-0.6-0.2-1.6,1.4-1.5,3.1c0.2,15.4-0.2,15.8,0.2,16.6c1.3-0.4,1.7-1.3,1.7-2.5
	C542.6,435.3,543.1,435.5,542.5,435.3z M541.9,483.9c0.7,0-0.2-27.3-0.2-27.6c-0.5,0.1-0.7,0.3-0.7,0.6S541,483.9,541.9,483.9z
	 M542.7,455.7c-0.7,0.4-0.5,0.9-0.5,1.3c0.9,26.4,0.4,26.3,1,27.1C543.6,483.5,543,456.8,542.7,455.7z M544.4,432.6
	c-1.2,1.2-1,1.6-1,5.2c0,16.6,0,14,0.1,15.3c1.3-0.5,1.7-1.3,1.7-2.5C545,434,545.5,431.5,544.4,432.6z M543.8,484.3
	c0.1,0.4,0.8,0.6,1,0.2c0.1,0,0.2-0.1,0.2-0.3V455c0-0.2-0.2-0.3-0.3-0.3c-0.1-0.1-0.2-0.1-0.3-0.1c0,0-0.1-0.1-0.2-0.1
	c-0.1,0-0.2,0-0.2,0.1C542.7,453.9,543.7,484,543.8,484.3z M548,439.8c0-3,0-6.1,0-9.1c0-2.4-1.8-0.2-1.8,1.6
	c0.3,19.4-0.3,18.6,0.5,18.9C548.5,451.7,547.9,446.5,548,439.8C547.9,439.8,548,439.8,548,439.8z M547,452.4
	c-1,0.3-1.3,0.8-1.2,1.7c1.3,31.8,0,31.3,1.6,31.4C547.8,485.5,547.9,487.5,547,452.4z M549.5,426.4c-0.8,0.8-1.3,1.6-1.3,2.6
	c0.2,20.2-0.1,19.9,0.3,20.2c0.3,0.2,1.5-0.8,1.5-2.5C549.8,427,550.3,427.5,549.5,426.4z M549.7,450c-1.1,0.5-1.4,1.1-1.4,2
	c0,0.3,0.6,32.2,0.7,33.3c0.1,1,1.3,1,1.4,0.4C550.5,484.6,549.7,455.9,549.7,450z M551.8,423.1c-1.7,2.3-1.3,0.4-1.2,21.3
	c0,2.1-0.1,2.3,0.4,2.6c1.9-1.2,1.4-1.2,1.4-12.7C552.4,425.7,552.7,422,551.8,423.1z M550.5,450c1,39.8,0.1,36.1,2.3,36.6
	c0.2-2.2-0.5-37.1-0.8-38.7C550.9,448.2,550.5,448.9,550.5,450z M554.6,419.8c-2.3-0.8-1.7,9.7-1.7,25.2c0.8-0.4,1.1-0.9,1.4-1.2
	C555.1,443.1,554.9,419.9,554.6,419.8z M554.6,445.1c-1.3,0.9-1.7,1.7-1.6,3c1.2,39.2,0.6,38.5,1.2,38.9
	C555.5,488,556.1,490.1,554.6,445.1z M557.8,488.1c0.2-1.3-0.6-42.3-0.9-45c-1.5,0.6-1.7,0.9-1.7,2.4
	C556.2,492.2,555.5,488.1,557.8,488.1z M556.8,416.7c-1.7,1-2.1,0.3-1.5,25.8C557.6,441.1,556.8,442.4,556.8,416.7z M558.8,413.4
	c-1.7,1.9-1.2-0.3-1.2,26.9c1.7-0.9,1.5-1.8,1.5-2.7C559.1,412.1,559.2,413.8,558.8,413.4z M557.6,443.1c3.1,103.5,2.7-1.3,1.6-2.7
	C558.2,441,557.6,441.7,557.6,443.1z M560.9,409.8c-0.6,1.2-1.4,2.3-1.3,3.8c0.1,13.8,0,21.2,0.1,24.2c1.2-0.8,1.7-1.6,1.7-3
	C561.1,409.5,561.6,410.5,560.9,409.8z M560.9,486.5c0,2.4-0.2,2.7,1.9,2.9c-0.5-17.1-0.8-34.2-1.3-51.4
	C559.4,439.3,559.9,435.5,560.9,486.5z M563.4,406.4c-1,1.1-1.6,2.1-1.6,3.6c0.2,13.3-0.1,22.8,0.2,25.3c1-0.8,1.5-1.6,1.5-2.7
	C563.5,415.7,563.6,407.9,563.4,406.4z M562,437.9c3.7,114.1,2.3,5.1,1.7-2.7C562.6,436,562,436.6,562,437.9z M565.2,403.2
	c-1.3,1.7-1-1.7-1,29.5c1-1,1.5-1.7,1.5-2.8C565.4,401.7,565.7,403.6,565.2,403.2z M564.5,435.3c3.4,125.4,2.2,0.8,1-2.6
	C564.7,433.5,564.5,434.3,564.5,435.3z M567.6,399.3c-2,2.3-1.3,0.3-1.3,30.9c1.2-0.9,1.5-1.8,1.5-2.9
	C567.7,423.5,567.8,404.6,567.6,399.3z M568.1,483.7c0.1,6.7,0,7,1.2,7.1c0.2-1.6-1.1-58.9-1.3-60.8
	C566.6,430.2,566.9,427.2,568.1,483.7z M569.6,395.9c-1.1,1-1.3,1.5-1.3,2.4c0.1,31.7,0,28.2,0.3,29.2
	C570,425.1,571.1,427.9,569.6,395.9z M570.3,427c-1.2,0.3-0.9,0.4-0.9,8.9C570.8,436,570.5,435.6,570.3,427z M571,401
	c0-0.1,0-0.2,0-0.3C570.9,400.7,570.9,400.9,571,401z M571.2,403.8c0,0-0.1,0-0.2,0v8.5C571.2,410.9,571.2,410.3,571.2,403.8z
	 M231.9,552.8h339.6c-0.1-24.6-0.1-40,0-46.1c0.2-10.8-268.4-46-338.3-49.1C233.1,461.2,232.7,493,231.9,552.8z M235.5,274.4
	c-1.4-2.4-0.8,77.9-0.8,78.2s0.2,93.5,0.5,80.6C235.4,427.1,236.9,276.8,235.5,274.4z M232.6,298.7c1.1,1.2-0.5,19.5,1,20.8
	c0.2,0,0.3-19.3,0.3-19.5c-0.1-30.8,1.8-26.1-1.7-29.5c-0.1,0-0.2,0.1-0.4,0.1C232.6,288,231.3,297.3,232.6,298.7z M231,225.6
	c0.1,32.9-0.1,43.6,4.6,45c0.5-0.3,0.4-0.7,0.4-1.2c0.1-62.6,0.7-54.4-4.1-62.3C230.3,204.6,230.9,212.6,231,225.6z M200.8,220.1
	c0.3,0.6,3.9,6.8,4.3,5.4c0-0.1,0.1-0.2,0.1-0.3C204.7,222.1,207.2,217.8,200.8,220.1z M203.9,302.4c0.9-0.1,1.1-0.4,1.1-0.8
	l-0.1-32.2c-0.1-1.6-0.7-0.2-5.7-0.6c-2.8-0.2-2.2-0.6-2.2,24.8l0,0C197.1,304.8,195.5,302.9,203.9,302.4z M198.3,364.4
	c5.4-0.5,6.9,0.6,7-1.1c0.1-2.6,0-39.8,0-40.1c-0.1-1.8-0.1-1.1-4.2-1c-4.8,0.1-3.7,2.1-3.6,36.8C197.5,363.4,197,364.5,198.3,364.4
	z M215.4,230.8C215.3,230.8,215.3,230.8,215.4,230.8c-0.1-3.2-0.1-6.4-0.1-9.6c0-3.4-0.2-1.2-8.3-1.2c-1.4,0-0.9,0.1-0.9,7
	c0,2.8,8.1,12.7,8.4,14.4c0.1,0.6,0.9,0.7,1-0.2C215.4,238.2,215.4,236,215.4,230.8z M203.9,429.2c-0.8,0.1-0.8,0.7-0.6,2.2
	c0.1,0.7,0.3,0.9,0.9,1.1c0.9,0.2,0.8-0.3,0.8-1.4l0,0C205,430.2,205.2,429.1,203.9,429.2z M207.8,424.2c-1.3-0.1-1.1,0-1,7
	c0,1-0.1,1.6,1.9,1.4c0.3-0.7,0.2-1.4,0.2-2.1C208.8,424.7,209,424.3,207.8,424.2z M208.7,235.5c-2.8-4.1-1.7,2.9-1.7,4.6
	c0,11.6-0.4,11.1,1,11.1C216,251,219.8,251.4,208.7,235.5z M215.5,321.9c-0.6-0.4-1.1-0.5-1.6-0.5c-7.5,0.4-6.8,0-6.8,2
	c-0.2,44.6-0.4,40.8,1.3,40.6c1.8-0.2,6.3-0.8,6.8-0.9C215.6,362.4,215.2,335.2,215.5,321.9z M215.4,292.6
	c0.2-27.2,1.4-24.9-4.9-24.3c-2.9,0.3-3.6-0.3-3.5,1.2c0.6,34.3-0.9,32.6,1.1,32.7c2.7,0.1,5.9-0.7,6.5-0.7
	C215.8,301.5,215.3,301.2,215.4,292.6z M208.1,386.1c-1.1,0.1-1.2-0.3-1.1,6.2l-0.2,29c-0.2,2,2.6,0.2,2.8,3.4
	c0.1,1.7-0.2,2.1,0.6,2.3c1.3,0.3,2.2,0.3,1.9,1.7c-0.3,1.1-0.8,4,0.9,4c2.5,0.1,2,0.2,2-5.7c0-1.3,0-2.5,0-3.9
	C216.4,380.5,216.4,385.8,208.1,386.1z M210.6,432.9c0,0.5,0.8,0.8,0.8,0.1c0-3.5,0.1-3.7-0.4-3.9
	C210.6,429.4,210.6,429.6,210.6,432.9z M218.5,219.1c-0.3-0.1-2.5-0.8-2.4,0.2c0,0-0.1,12.4,0.2,15.8c0.7,7.4-1.8,7.2,3.1,12.9
	c0.7,0.8,1.7-1,1.7-2.7C220.8,221.5,221.7,219.7,218.5,219.1z M218.1,399.8c0-2.9-0.6-1-0.7-3.6c0-0.3-0.3-5.8-0.5-6.3
	c-0.6,0.3-0.4,0.8-0.4,1.2c-0.3,44.1-0.4,42.4,1.8,42.2c0.9-0.1,0.7,0.1,0.8-17.9C219.2,399.1,218,414.9,218.1,399.8z M218,249.2
	c-0.4-0.5-0.5-1.1-1.2-1.5C215.3,251.6,218.7,250.1,218,249.2z M220.3,286.6c-0.1-3.3,0.4-17.4-2.5-18.1c-1.6-0.3-1.1-1.4-1.3,19.3
	c-0.1,14.2-0.7,13.9,2.8,11.8C221,298.7,220.3,289.7,220.3,286.6z M218.4,329.6c0.1-2.3,0.1-2.6-0.3-3.2c-0.6-1.1,0.1-2.9-1.3-3.4
	c-0.5,1.2-0.5,2.5-0.3,3.7c0.5,3.1-0.1,34.6-0.1,34.9c0,0.8,0.2,1,1.1,0.9c1.8-0.2,1.7,2.5,1.9-29.6
	C219.5,330.4,218.4,331.6,218.4,329.6z M198.3,431.3c0.6-0.9-0.3-3.9-0.1-4.4c0.6-1.6,1.5-0.1,1.3,0.5c-0.6,1.3-0.2,2.7-0.3,4.1
	c0,0.5,0.5,0.6,2.1,0.6c1.3,0,0.8-0.4,1-1.9c0.4-2.6,1.9-2.1,2.6-2.5c0.2-0.6,0.1-1.2,0.1-1.9c0.1-40.6,2.8-43.3-6.5-39.4
	c-1,0.4-1.8,0.9-1.3,2.1C197.2,388.8,196.1,434.3,198.3,431.3z M197.2,251.1c-0.3,1,8.8,0.8,8.1-0.6c-0.2-0.4,0.6-19.6-1.2-22.1
	c-5.2-7.5-4.6-8.1-6.3-6.4C196,223.7,197.6,249.7,197.2,251.1z M196.4,219.9c-6.8,1.7-6.2,7.8-2.9,3.1c1.2-1.7,2.2-1.5,3.3-2.3
	C197.2,220.5,196.9,219.8,196.4,219.9z M195.3,328.3c-1.1,0.2-1.1,0.6-0.9,3.3c0.1,2-1.1,1.1-1.1,3.1c0.3,20.2-0.4,19.7,0.3,20.2
	c1.2,0.9,0.9,6.2,0.6,6.4c-0.8,0.6-0.4,1.4-0.5,2.1c-0.1,0.7,1.4,1.2,1.3,0.3C195,363.7,195.3,330.9,195.3,328.3z M192.9,414.6
	c0.9,3.5-0.8,16.1,0.8,16.3c1,0.1,1.1-31.5,0.8-31.3c-1.2,0.6-0.1,8-0.8,8.9c-0.9,1.1-0.1,3.6-0.7,5.6
	C192.8,414.2,192.8,414.4,192.9,414.6z M192.6,293.4c-0.5,1.7,0.3,4.2,0.1,5.3c-0.1,0.5-1.1,0.9-0.4,1.6c1,0.9,0.2,2.4,1.9,2.3
	c1.4-0.1,0.4-0.3,0.7-31.2c0-1.9-2.4,1.5-2.1,3.4c-0.4,1.2-0.7,2.6-0.8,10.4c-0.1,7.1-0.1,7,0.4,7.4
	C192.6,292.8,192.7,293.1,192.6,293.4z M190.9,229.2c0.3,24.1-0.4,22.5,1.5,22.5c2.9,0.1,2.2,1.6,2.2-13l0,0c0-10.8,0.4-14.2-1-13.1
	C191.1,227.6,190.9,227.7,190.9,229.2z M141.4,238.8c0-4.2-0.6-1.5-8.1,3.6c-4.8,3.3-1.9,5.4-2.7,22.1c0.6,1.3-0.3,2.6,0.2,3.9
	c-0.2,0.8-0.2,1.5,0.2,2.3c0.5,0,1-0.2,1.4-0.6c1.1-1.1,3.2-1.9,3.9-3.1c0.2-0.4,0.7-0.6,1.1-0.7c1.5-0.4,2.5-1.6,3.8-2.4
	C141.6,263.6,141.4,239,141.4,238.8z M140.8,421.9c0-0.6-0.2-0.8-0.9-0.7c-2.4,0.2-2.2,0.5-2.3,2.8c0,1,0.5,0.9,1.8,0.9l0,0
	C140.9,424.8,140.9,425,140.8,421.9z M140.5,420.1c0.4-0.3,0.3-0.6,0.3-0.9c0.2-3.8,0.6-3.6-2.7-3.6c-0.5,0-0.8,0.2-0.8,0.7
	c0,1.1-0.1,2.3,0.1,3.5C138.6,419.6,139.6,419.7,140.5,420.1z M141.2,266.6c-2.2,0.9-3.3,2.7-3.1,4.9c1.3,15.8-3.2,164.2,2.9,141.5
	c0.1-0.5,0-20.6-0.1-21c0.7-4.9,0-35,0.4-36.8C141.2,354.9,141.9,267.3,141.2,266.6z M142.2,423.6c0,3,2.3,1.6,5.9,2.2
	c1.4,0.2,0.1-6.5,0.8-8.7c-0.2-2.1,0.8-152.8,0-156.4c-8.1,5.9-6.5,2.3-6.3,17.2c0.1,7.3-0.1,75.8-0.3,76.5c0.6,1.8-0.3,3.6,0.2,5.4
	C142.1,361.8,142.2,422.5,142.2,423.6z M152.3,227.9c-1.4,1.1-3,1.9-4.2,3.1c-8,7.7-4.9-0.6-5.7,20.4c-0.4,11.2,0,11.8,1.4,10.6
	c2-1.8,3.8-2.4,4.8-3.9c0.9-1.4,4.5-1.4,4.4-4.4c0-0.9,0.1-16.9-0.3-19.3C152.9,233.2,153,229.2,152.3,227.9z M153.3,259.2
	c0.1-0.9-2.5-0.5-2.4,4.6c0.1,6.5,0,39.8,0,40h0.1c0,15.8-0.6,122.1-0.6,122.1c0,0.9,1.5,1.1,2,0.8
	C153.8,425.8,152.9,265.8,153.3,259.2z M162.8,219.1c-8.4,8.8-10.3,0.6-9,28.6c0.2,4.8-0.3,6.8,1,5.9c6.1-4.2,5.2-4.5,7.3-5.6
	c3.1-1.6,1-1.3,1.9-10.3c0,0-0.2-14,0-16.9C164.1,219.7,163.5,218.3,162.8,219.1z M154,261.4l-0.4,164.5c2.4,1.7,4.2,0,5.4,0.9
	c3.3,2.9,2.3-173.1,1.9-174.9C152.5,258.1,154,255.9,154,261.4z M174.1,210.5c-0.3-0.8-1.2,0.4-7.8,5.9c-2.6,2.2-1.5,17.4-1.5,17.7
	s-0.6,13.2,1.3,11c1.1-1.3,3.6-2.3,5.6-4.7c1.3-1.5,3.6-1.3,2.7-4.3C174.1,235,175.2,213.8,174.1,210.5z M171.3,424.1
	c2.4-1,0.9-149.4,1.5-179c0.1-4.1-1.3-1.3-7.3,3.2c-0.6,0.5-0.8,179.4-0.8,179.4c5.4,0.6,5.2,0.8,5.3-0.5
	C170.1,426.2,170.1,424.6,171.3,424.1z M171.2,427.1c0.1,0.4,0.1,0.7,0.2,1c0.1,0.3,0.6,0.4,0.8,0.1
	C173.2,426.6,171.6,423.2,171.2,427.1z M173.6,423.8c0.6,0.1,0.6-0.1,0.5-2.9C174.1,420.6,173.6,418.7,173.6,423.8z M173.9,278.1
	C173.9,240,173.8,222.7,173.9,278.1L173.9,278.1z M173.9,425.2c-0.3-0.4-0.6,1.5-0.2,3.5C174.4,428.2,174.3,425.8,173.9,425.2z
	 M180.6,212.2c0.1-5.5-0.1-7.8-0.9-7.1c-5.8,5-4.2,0.6-4.2,32.1c0.7,0.1,1-0.2,1.3-0.4C182.7,231.9,180.4,237.1,180.6,212.2z
	 M177.6,421.1c-0.3,7.7-0.2,7.5,0,7.9c0.9,1.6,0.6-0.5,1-44.7c0-0.2,1.1-93.1,1.2-93.3c0.5-0.8,0.4-32.9,0.4-33.2
	c-0.1-23.7,3.2-23.8-3.9-18c-1.2,1-0.5,170.6-1,177.1C175.2,419.5,177.8,418.1,177.6,421.1z M176.2,420.7c-0.3-0.8-1.1-0.9-1.2,0.1
	c0,0.1,0,6.4,0,6.5c0,0.8,0.1,1.7,0.9,1.5C176.8,428.7,176.4,421.1,176.2,420.7z M130.2,422.7c0,1-0.1,2,5.6,1.6
	c1.1-0.1,1-146.2,1.2-147.2c-0.6-2,0.6-8.1-0.7-7.2c-5.6,3.8-5.5,3.6-5.5,5c-0.1,22.1,0.2,44.9-0.2,47.2c0.4,1,0.2,44.7-0.1,46.2
	c0.5,1.5-0.4,3,0.2,4.4C130.4,373.3,130.1,418.3,130.2,422.7z M125.9,423.5c3.1,0.2,2.9,0.9,2.9-1.9c0-1,0.4-20.7,0.5-20.9
	c0-2,0.7-123.3,0.1-125.9c-6.2,4-3.2-4.5-4.4,87.9C124.2,426.1,124.5,423.4,125.9,423.5z M128.6,272.6c1.3-0.8,1.1-1.6,1.1-5.4l0,0
	c0.1-24.9,0.7-22.6-2.9-19.9c-9.4,6.9-8.8,2.3-8,27.7c0,1.4-0.8,4.4,0.7,3.8c2.8-1.2,3.7-3.2,5.1-3.7
	C126.1,274.5,127.3,273.4,128.6,272.6z M118.9,422.8c1.2,0.3,2.9,0,2.9,0c1.8,0.9,1.4-0.3,1.4-4.2c0.1-4.1,1.3-96.9,0.7-98.9
	c0.1-0.4,0.3-38.8-0.3-40.8c-0.4-0.1-0.7,0.1-0.9,0.2c-4.2,2.8-4.4,2.7-4.4,3.9c0.3,27.5-0.3,108.6-0.4,108.9c0.3,3-0.2,6-0.1,9.1
	C118.8,422.7,116.4,422.1,118.9,422.8z M117.3,267.4c0-15.2,1.1-14.3-3.8-10.8c-9.1,6.6-7.6,4.2-7.6,14.8c0,0.3,0.1,14.5,0,15.3
	c-0.3,2.4,4.7-3,6.3-3.1C118.7,279.2,117.3,282.6,117.3,267.4L117.3,267.4z M116,422.3c1.2,0.1,1.1-33.5,1.1-37.6l0,0
	c0-0.3,0-43.7,0.3-45.2c-0.4-3.5,0.8-57-0.9-55.9c-7.3,4.5-3-10.1-5.2,137.3C111.2,422,112.2,422.1,116,422.3z M105.6,420.9
	c0.3,0.5,0.9,0.1,1.3,0.4c0.4,0.4,1,0.3,1.5,0.3c2.3,0.1,1.3,1.7,1.8-12.4c0.2-6.4,0.1-46.7,0.5-48.9c0,0,0.3-62.2-0.2-72.6
	c-1.5,0.7-2.6,1.6-3.9,2.4c-1.2,0.7-0.2,27.2-0.8,28.1C106.3,320.2,104.7,419.7,105.6,420.9z M104.5,264.3c-0.1-2.2-1.4,0.4-9.5,5.1
	c-1.8,1.1-3.2,1.2-2.2,26.4c1.2-0.4,2.1-1,2.9-1.8c1.3-1.2,8.7-4.4,8.9-6.5c0.2-2.3-0.1-13.6-0.1-13.8
	C104.7,273.3,104.6,265.2,104.5,264.3z M101.5,418.7c0.1-0.9,0.3-1.5-0.3-1.6C98.4,416.2,101.8,424.6,101.5,418.7z M97.9,420.4
	c1.1,0.2,1.1-1.1,1.1-2.1c-0.2-3.6,2.6-2.3,2.6-4.7c0.1-4.8-1.7-1.8-3.1-3.4c-1-1.1,2.5-2.2,4.1-0.1c0.3,0.3,0.4,0.7,0.3,3
	c-0.1,3.5,1.2,2.2,0.3,3.8c-1.5,2.5,1.2,6.9,0.8,0.3c0-0.5,0.8-100.5,0.8-100.5c-0.5-1.7,0.2-21.4-0.2-24c-0.1-0.6,1.6-3.2-4.7,1.5
	c-3.4,2.6-1,10.1-1.8,16.6C98.1,311.1,97.1,420.3,97.9,420.4z M94.3,419.9c3.4,2.7,3.3-119.4,2.5-123.3c-0.8,0.3-3.8,1.7-3.8,2.7
	c0,12.9,0.2,13-0.2,14.6c0.6,1.4-0.2,14.7,0.2,16l-0.9,90C93,419.5,93.6,419.4,94.3,419.9z M91.3,272.3c-0.8-0.1-12.1,7-12,8.4
	c0,0.3-0.7,23,0.1,23.3c0.8,0.4,2.5-2,3.5-2.3c1.2-0.3,8.4-4.6,8.5-5.3C91.6,295,91.7,272.8,91.3,272.3z M90.7,419.7
	c0.3-1.3,1.1-119.2,0.6-119.9c-8.9,4.3-7.6,2.5-7.6,34.1C84,431.5,79.1,417.9,90.7,419.7z M79.2,418.6c1.6,0.1,2.3,0.9,2.5-0.6
	c0-0.3,1.2-104.5,0.7-111.9c-0.1-0.7-0.8-0.2-2.9,1.1c-0.6,0.4-0.4-0.7-0.4,23.6H79c0,25.9-0.3,67.4-0.3,67.4
	c-0.5,2.1-0.3,2.9-0.2,17C78.5,417.8,78.2,418.5,79.2,418.6z M77.8,281.4c0-0.8-0.2-0.6-10.8,6.1c-2.5,1.6-2.1,3-2.1,14.2l0,0
	c0,15.6-0.3,9.9,3.3,9c1.1-0.3,1.2-0.4,8.7-4.9C78.9,304.6,77.8,284,77.8,281.4z M68.2,417.2c1.1,0.4,8.1,0.8,8.4,0.8
	c1.6,0.1,0.7-55.8,1.3-63.2c-0.2-0.9,0.4-45.2,0-46.6c-0.7-0.1-1.1,0.4-1.5,0.6c-5.7,3.2-7.5,4-7.4,6.8
	C69.2,350.4,67.9,399.5,68.2,417.2z M67.2,314.4c-2.2,1-2.2,1-2.2,3.1C64,540,69.3,322.9,67.2,314.4z M52.7,296.2
	c-3,1.8-2.3,1.7-2.3,24.4c4-1.4,7.2-3.7,10.7-5.5c3.1-1.6,2.9,0.4,2.7-20C63.7,288,65.5,288.6,52.7,296.2z M55.4,412.6
	c1.5-0.1,1.8,3.2,2-5.4c0-2-0.1-1.5-2.8-2c-0.8-0.2-0.7-1-0.4-1.1c4.7-1.5,4.4,1.4,4.4,6.4c3.5-0.8,4.6,1.2,0.9,1.7
	c-1.2,0.1-1,1.5-0.3,1.9c1.5,0.8,1.6,0.4,2.6,0.5c1.8,0.2,1.1,0.1,1.2-2.8c0-0.3,1.7-96.2,0-95.4c-14.8,7.1-8.4-0.5-10.3,74.1
	C52.3,411.4,51.5,412.9,55.4,412.6z M51.4,397.6c0-0.1-0.2-8.5-0.2-10.8c0.8-102.3-1.7-50.6-1.2-49.2l-0.8,73.5
	C52.6,411.7,50.1,412.4,51.4,397.6z M45.4,410.3c0.9,0.6,2.7,0.9,2.7-0.1c0.7-16,1-82,0.8-85.4c-0.8-0.1-1.4,0.4-1.9,0.8
	c-9.6,6.7-10.2,2.1-10.2,12.5C37.2,417.2,32.5,401.2,45.4,410.3z M36,368.6C36,307.1,36,337.9,36,368.6L36,368.6z M35.2,328.8
	c1,0,1.8-0.3,2.6-0.8c12.3-7,11.2-5.2,11.2-8.3c0-20.9,0.2-20.4-0.4-20.8c-0.4-0.3,0.6-0.7-11.1,6.2c-2,1.2-2.4,2.2-2.4,3.3
	C35.3,311.6,34.7,321.4,35.2,328.8z M19.4,388.8c0,8.7-0.7,2.3,9.1,11.4c1.3,1.3,3.1,2,4.6,3c1.1,0.8,0.7-69.7,0.4-70.1
	c-0.9,0.1-1.7,0.8-2.6,1.2C17.3,341.6,19.5,333.7,19.4,388.8z M18.9,337.5c0.9,0.2,1.5,0,2.1-0.4c13-6.9,12.7-6.4,12.8-7.6
	c0.7-24.4,0.3-22.6-1.8-21.4C17.1,316.6,18.9,310.7,18.9,337.5z M17.4,316.4c-18,9.2-14.7,5.5-15.1,22.3c0,0.4-0.2,7.3,0.4,7.8
	c18.6-9.4,15.2-4.7,15.2-20.3C17.9,316.7,18,317,17.4,316.4z M2.6,382.1c0,0,4.3,2.4,5.4,2.8c1.9,0.7,3.7,1.8,4.9,3.6
	c0.2,0.3,0.6,0.6,0.9,0.8c2,0.8,3.8,6.1,3.5-4c0-0.3,0.8-41.6,0.1-43.6c-19.6,8.9-13.8,7-15.2,14.2C2.1,356.2,1.4,381.6,2.6,382.1z"
	/>
<g class="st2">
	<path class="st3" d="M1406.9,349.6l-1-77.2l-1.2-0.5l-0.6-20.6l-2-0.7l-0.7-9.2h-11.9l-0.9,9.3l-2,0.8l-1.1,20.8l-1.4,0.4l-5.7,106
		l-20.7,7l-6.3,12l-12,5.7l-20.1,16.1l-10.6,20.6l-29.8,9.8l-22.1,8.9l-12.2,10.3v-20.2h-29l-0.2,14h-64.8l0.1-40h-33.1v25h-26v-23
		h-34v-13h-56l-15.3,22h-12.7v-25h-15v9h-31v-45h-55v-64h-36V417l-16,4v-28.2h-16L798,304c0,0-7.7-95.4-17.7-150.8
		c-3.2-1.9-7.1-3.7-11.7-5.2c-17.8-5-33.6,1.6-39.5,4.5C716.9,246,713,433.8,713,433.8h-4.4v-36h-24.7l-13.3-85.5v-98.5h-9.4
		l-8.4-87h-6.4l-8.3,87h-9.4v98h-0.1l-14.7,105h-4.2v-57.9l-18-23.2v-11.9h-6v-22h-5v22h-7v11.9l-18,23.3v101.8h-12v-32h-19v32h-25
		v-40h-55v67h-9v-14h-11v14h-10v-58h-34l-0.1,70.5l-23.9,6.8v-9.3h-12v10h-8l0.1-19h-22.1v28.1l-22.5,9.9h90.4h1063.1V381.7
		L1406.9,349.6z"/>
	<path class="st3" d="M744.8,94.3c-3.6,2.3-5.9,4.8-7.1,7.5c-1.2,2.7-6.5,22-8,46.5c3.4-1.8,8.1-4.6,12.9-5.4L744.8,94.3z"/>
	<path class="st3" d="M766.5,93.4c-2.6-3.5-4.9-5.8-7-5.8c-2.5,0-3.9-0.4-12.5,4.9l-1.8,49.6c13.1-0.9,21-0.1,26.4,2.2"/>
	<path class="st3" d="M773.7,145.2c2.5,1,4.2,2.2,6.1,3.4c-2.7-26-6.5-43.1-8-47c-0.7-1.7-1.8-4-3.8-6.7"/>
</g>
<path class="st1" d="M470,552.8l95.6-28.9v-22.6l15-0.3v-4.1h19.3l0.3-12.6l6.2-9l6.2,8.8l0.4,13.8h14.2l0.1,1.9l15.1-0.3l0.3,11.1
	l48-18.7V386.5l53-61.3v102.6h39v53h19v-156h23v-58h18l0.6,59h11.4v75h32v-65.4l23.8-20.1l25.2,20.1v113.4h74v34h10l26,21h20l3.5-38
	h22.5v55h64v-23h18v-27h28v21h26v25h31.9l6.6-8l7.9-14.9l7.9-10.8l24.9-8l18.8-6l1-9.9l6.9-5.4h37.7l13.4-12.2l12.3-2.2l15.8-7.6h11
	l7.6,7.6l14.3,3.8v109.6H470z"/>
<circle class="st4" cx="605.5" cy="489.3" r="3.5"/>
<path class="st5" d="M1389,268.6L1389,268.6c-0.7,0-1.3-0.6-1.3-1.3l0.5-12.1c0-0.7,0.6-1.3,1.3-1.3l0,0c0.7,0,1.3,0.6,1.3,1.3
	l-0.5,12.1C1390.4,268,1389.8,268.6,1389,268.6z"/>
<path class="st5" d="M1395.2,268.9L1395.2,268.9c-0.9,0-1.9-0.7-1.9-1.6l0.4-10.2c0-0.9,0.7-1.6,1.6-1.6l0,0c0.9,0,1.6,0.7,1.6,1.6
	l0.3,10.2C1397.1,268.2,1396.1,268.9,1395.2,268.9z"/>
<path class="st5" d="M1401.1,268.6L1401.1,268.6c0.7,0,1.3-0.6,1.3-1.3l-0.2-12.1c0-0.7-0.6-1.3-1.3-1.3l0,0c-0.7,0-1.3,0.6-1.3,1.3
	l0.2,12.1C1399.7,268,1400.3,268.6,1401.1,268.6z"/>
</svg>
