<?xml version="1.0" encoding="utf-8"?>
<!-- Generator: Adobe Illustrator 23.0.4, SVG Export Plug-In . SVG Version: 6.00 Build 0)  -->
<svg version="1.1" id="Layer_1" xmlns="http://www.w3.org/2000/svg" xmlns:xlink="http://www.w3.org/1999/xlink" x="0px" y="0px"
	 width="1446.4px" height="551.5px" viewBox="0 0 1446.4 551.5" style="enable-background:new 0 0 1446.4 551.5;"
	 xml:space="preserve">
<style type="text/css">
	.st0{display:none;clip-path:url(#SVGID_2_);}
	.st1{clip-path:url(#SVGID_4_);fill:#1E1E1E;}
	.st2{clip-path:url(#SVGID_6_);fill:#1E1E1E;}
	.st3{clip-path:url(#SVGID_8_);fill:#1E1E1E;}
	.st4{clip-path:url(#SVGID_10_);fill:#1E1E1E;}
	.st5{clip-path:url(#SVGID_12_);fill:#1E1E1E;}
	.st6{clip-path:url(#SVGID_14_);fill:#1E1E1E;}
	.st7{clip-path:url(#SVGID_16_);fill:#1E1E1E;}
	.st8{clip-path:url(#SVGID_18_);fill:#1E1E1E;}
	.st9{clip-path:url(#SVGID_20_);fill:#1E1E1E;}
	.st10{clip-path:url(#SVGID_22_);fill:#1E1E1E;}
	.st11{clip-path:url(#SVGID_24_);fill:#1E1E1E;}
	.st12{clip-path:url(#SVGID_26_);fill:#1E1E1E;}
	.st13{clip-path:url(#SVGID_28_);fill:#1E1E1E;}
	.st14{clip-path:url(#SVGID_30_);fill:#1E1E1E;}
	.st15{clip-path:url(#SVGID_32_);fill:#1E1E1E;}
	.st16{clip-path:url(#SVGID_34_);fill:#1E1E1E;}
	.st17{clip-path:url(#SVGID_36_);fill:#1E1E1E;}
	.st18{clip-path:url(#SVGID_38_);fill:#1E1E1E;}
	.st19{clip-path:url(#SVGID_40_);fill:#1E1E1E;}
	.st20{clip-path:url(#SVGID_42_);fill:none;stroke:#1E1E1E;stroke-width:4;stroke-miterlimit:10;}
	.st21{clip-path:url(#SVGID_44_);fill:#1E1E1E;}
	.st22{clip-path:url(#SVGID_46_);fill:#1E1E1E;}
	.st23{clip-path:url(#SVGID_48_);fill:#1E1E1E;}
	.st24{clip-path:url(#SVGID_50_);fill:#1E1E1E;}
	.st25{clip-path:url(#SVGID_52_);fill:#1E1E1E;}
	.st26{clip-path:url(#SVGID_54_);fill:#1E1E1E;}
	.st27{clip-path:url(#SVGID_56_);fill:#1E1E1E;}
	.st28{clip-path:url(#SVGID_58_);fill:#1E1E1E;}
	.st29{clip-path:url(#SVGID_60_);fill:#1E1E1E;}
	.st30{clip-path:url(#SVGID_62_);fill:#1E1E1E;}
	.st31{clip-path:url(#SVGID_64_);fill:#1E1E1E;}
	.st32{clip-path:url(#SVGID_66_);fill:#C69E60;}
	.st33{clip-path:url(#SVGID_68_);fill:#C69E60;}
	.st34{clip-path:url(#SVGID_70_);fill:#C69E60;}
	.st35{clip-path:url(#SVGID_72_);fill:#C69E60;}
	.st36{clip-path:url(#SVGID_74_);fill:#C69E60;}
	.st37{clip-path:url(#SVGID_76_);fill:#C69E60;}
	.st38{clip-path:url(#SVGID_78_);fill:#C69E60;}
	.st39{clip-path:url(#SVGID_80_);fill:#C69E60;}
	.st40{clip-path:url(#SVGID_82_);fill:#C69E60;}
	.st41{clip-path:url(#SVGID_84_);fill:#C69E60;}
	.st42{clip-path:url(#SVGID_86_);fill:#C69E60;}
	.st43{clip-path:url(#SVGID_88_);fill:#C69E60;}
	.st44{clip-path:url(#SVGID_90_);fill:#C69E60;}
	.st45{clip-path:url(#SVGID_92_);fill:#C69E60;}
	.st46{clip-path:url(#SVGID_94_);fill:#C69E60;}
	.st47{clip-path:url(#SVGID_96_);fill:#C69E60;}
	.st48{clip-path:url(#SVGID_98_);fill:#C69E60;}
	.st49{clip-path:url(#SVGID_100_);fill:#C69E60;}
	.st50{clip-path:url(#SVGID_102_);fill:#C69E60;}
	.st51{clip-path:url(#SVGID_104_);fill:#C69E60;}
	.st52{clip-path:url(#SVGID_106_);fill:#C69E60;}
	.st53{clip-path:url(#SVGID_108_);fill:#C69E60;}
	.st54{clip-path:url(#SVGID_110_);fill:#C69E60;}
	.st55{clip-path:url(#SVGID_112_);fill:#C69E60;}
	.st56{clip-path:url(#SVGID_114_);fill:#C69E60;}
	.st57{clip-path:url(#SVGID_116_);fill:#C69E60;}
	.st58{clip-path:url(#SVGID_118_);fill:#C69E60;}
	.st59{clip-path:url(#SVGID_120_);fill:#C69E60;}
	.st60{clip-path:url(#SVGID_122_);fill:#C69E60;}
	.st61{clip-path:url(#SVGID_124_);fill:#C69E60;}
	.st62{clip-path:url(#SVGID_126_);}
	.st63{fill:#1E1E1E;}
	.st64{fill:none;stroke:#1E1E1E;stroke-width:2;stroke-miterlimit:10;}
</style>
<g>
	<g>
		<g>
			<defs>
				<rect id="SVGID_125_" x="-0.1" y="-262.8" width="1446" height="814.3"/>
			</defs>
			<clipPath id="SVGID_2_">
				<use xlink:href="#SVGID_125_"  style="overflow:visible;"/>
			</clipPath>
			<g style="clip-path:url(#SVGID_2_);">
				<path class="st63" d="M1446.5,530.8c0,0-85.4-3.4-337.7-2.6c-252.4,0.8-979.1,58.9-979.1,58.9l-0.2-30.4
					c812.3-49.9,828-45.7,979.5-45.4c151.6,0.3,315.4,6.6,337.5,8.1V530.8z"/>
				<line class="st64" x1="768" y1="524.4" x2="1212.7" y2="321.3"/>
				<line class="st64" x1="808.6" y1="519.4" x2="1269.2" y2="305.9"/>
				<line class="st64" x1="837.2" y1="517.9" x2="1212.7" y2="314.7"/>
				<line class="st64" x1="863.9" y1="517.9" x2="1269.2" y2="298.1"/>
				<line class="st64" x1="889.3" y1="516.8" x2="1212.4" y2="308.1"/>
				<line class="st64" x1="914.6" y1="515.7" x2="1268.7" y2="291.1"/>
				<line class="st64" x1="935.3" y1="515.7" x2="1212.7" y2="302"/>
				<line class="st64" x1="957.1" y1="515.4" x2="1267.3" y2="283.8"/>
				<line class="st64" x1="975.1" y1="515.4" x2="1215.7" y2="292.2"/>
				<line class="st64" x1="995.8" y1="515.1" x2="1265.8" y2="277.1"/>
				<line class="st64" x1="1013.3" y1="514.8" x2="1216.6" y2="284.4"/>
				<line class="st64" x1="1031.7" y1="514.3" x2="1264.3" y2="270.1"/>
				<line class="st64" x1="1046.7" y1="514.3" x2="1217.4" y2="277.4"/>
				<line class="st64" x1="1063" y1="514.5" x2="1263.5" y2="263.4"/>
				<line class="st64" x1="1076.8" y1="514.8" x2="1217.1" y2="273"/>
				<line class="st64" x1="1091.1" y1="514.9" x2="1262.6" y2="255.2"/>
				<line class="st64" x1="1104.6" y1="515.6" x2="1219.7" y2="264"/>
				<line class="st64" x1="1117.4" y1="515.7" x2="1260.6" y2="250.6"/>
				<line class="st64" x1="1131.2" y1="514.6" x2="1223.6" y2="249.4"/>
				<line class="st64" x1="1142.7" y1="514.6" x2="1259.4" y2="241.5"/>
				<line class="st64" x1="1154.9" y1="514.8" x2="1223.6" y2="249.4"/>
				<line class="st64" x1="1166.9" y1="514.9" x2="1257.3" y2="235.8"/>
				<line class="st64" x1="1176.7" y1="514.9" x2="1226.6" y2="240.3"/>
				<line class="st64" x1="1189" y1="515.1" x2="1254.2" y2="231.9"/>
				<line class="st64" x1="1198" y1="513.6" x2="1230.2" y2="233.5"/>
				<line class="st64" x1="1207.2" y1="515.6" x2="1250.7" y2="225"/>
				<line class="st64" x1="1217.2" y1="515.4" x2="1234" y2="228.9"/>
				<line class="st64" x1="1225.6" y1="515.7" x2="1246" y2="221.7"/>
				<line class="st64" x1="1235.8" y1="515.7" x2="1239.8" y2="221.1"/>
				<line class="st64" x1="1252.1" y1="515.9" x2="1242.8" y2="220.5"/>
				<line class="st64" x1="1259.7" y1="515.4" x2="1248.9" y2="222.8"/>
				<line class="st64" x1="1268.2" y1="515.9" x2="1237.2" y2="222.8"/>
				<line class="st64" x1="1275.3" y1="515.4" x2="1254.2" y2="229.5"/>
				<line class="st64" x1="1282.9" y1="516" x2="1232.2" y2="229.5"/>
				<line class="st64" x1="1303.7" y1="516" x2="1283.3" y2="391.7"/>
				<line class="st64" x1="1309.7" y1="516.2" x2="1228" y2="252.4"/>
				<line class="st64" x1="1316.5" y1="516.8" x2="1281" y2="341.3"/>
				<line class="st64" x1="1322.4" y1="516.9" x2="1221.8" y2="248.2"/>
				<line class="st64" x1="1229.3" y1="240.9" x2="1281.6" y2="455.5"/>
				<line class="st64" x1="1257.9" y1="239.6" x2="1277.7" y2="411.3"/>
				<line class="st64" x1="1223.3" y1="264" x2="1334.5" y2="517.6"/>
				<line class="st64" x1="1329" y1="517.2" x2="1279.9" y2="315.9"/>
				<line class="st64" x1="1341" y1="518.1" x2="1277.7" y2="301.3"/>
				<line class="st64" x1="1345.8" y1="518.1" x2="1222.1" y2="271"/>
				<line class="st64" x1="1351.1" y1="518.2" x2="1276.3" y2="292.5"/>
				<line class="st64" x1="1356.8" y1="519.1" x2="1221.2" y2="278.5"/>
				<line class="st64" x1="1366.4" y1="517.6" x2="1220" y2="285.2"/>
				<line class="st64" x1="1361.7" y1="518.1" x2="1278.9" y2="301.3"/>
				<line class="st64" x1="1370.9" y1="517.6" x2="1280.4" y2="305.4"/>
				<line class="st64" x1="1375.7" y1="518.2" x2="1219.4" y2="292.5"/>
				<line class="st64" x1="1380.7" y1="518.7" x2="1278.9" y2="304.5"/>
				<line class="st64" x1="1385.1" y1="518.7" x2="1219.1" y2="300.4"/>
				<line class="st64" x1="1389.5" y1="518.7" x2="1278.9" y2="308.3"/>
				<line class="st64" x1="1393.7" y1="518.8" x2="1218.3" y2="307.7"/>
				<line class="st64" x1="1397.9" y1="519" x2="1279.5" y2="314.4"/>
				<line class="st64" x1="1402.3" y1="518.7" x2="1217.7" y2="315"/>
				<line class="st64" x1="1406.5" y1="518.8" x2="1279.5" y2="318.8"/>
				<line class="st64" x1="1410.3" y1="518.8" x2="1217.1" y2="321.7"/>
				<path class="st63" d="M1276.6,282.4c-6.1-42.6-21.7-67.6-31.8-68.3c-10.5-0.6-22.8,14.8-29.5,49.9
					c-9.2,47.8-24.9,288.5-24.9,288.5l14,0.3c0,0,11.8-192,14.7-247.1s14.2-83.2,23.4-82.8c9.5,0.5,19.2,13.1,25.7,79.6
					c6.5,66.5,18.7,250.2,18.7,250.2h15.7C1302.5,552.6,1282.8,325.2,1276.6,282.4z"/>
				<line class="st64" x1="1300.4" y1="495.5" x2="1300.4" y2="516.3"/>
				<line class="st64" x1="1380.5" y1="500.8" x2="1380.5" y2="518.1"/>
				<line class="st64" x1="1414.6" y1="440.7" x2="1414.6" y2="519.7"/>
				<path class="st63" d="M1414.6,443c9.2-0.9,10.1,3.9,16.6,3.1v10.1c-4.6,0.3-9.6-4.4-16.6-3.1V443z"/>
				<polyline class="st64" points="800.4,457.6 803.7,459.1 803.7,519.7 				"/>
				<polyline class="st64" points="936.3,476.1 934.2,477.5 934.2,516.8 				"/>
				<polyline class="st64" points="1008.8,468.2 1012.9,470.2 1012.9,516.8 				"/>
				<polyline class="st64" points="1066.5,480.8 1064.1,482.7 1064.1,516.8 				"/>
				<polyline class="st64" points="1143.5,476 1146.5,476.8 1146.5,515.1 				"/>
				<polyline class="st64" points="1161.3,486.6 1159.2,488.6 1159.2,518.1 				"/>
				<polyline class="st64" points="1237.8,482.1 1239.6,483.1 1239.6,517.6 				"/>
				<polyline class="st64" points="1248.6,491.4 1247.2,492.5 1247.2,519.4 				"/>
				<line class="st64" x1="1300.4" y1="495.5" x2="1302.1" y2="494.9"/>
				<polyline class="st64" points="1319.6,487.8 1322.6,488.8 1322.6,517.6 				"/>
				<polyline class="st64" points="1345.5,498 1344,499.1 1344,518.3 				"/>
				<polyline class="st64" points="1369.9,494 1372.2,494.9 1372.2,517.8 				"/>
				<line class="st64" x1="1380.5" y1="500.8" x2="1382" y2="499.8"/>
				<polyline class="st64" points="1398,511.7 1399.5,512.2 1399.7,519.4 				"/>
				<polyline class="st64" points="1409.7,496.1 1412,497.3 1412,520 				"/>
				<polyline class="st64" points="1418,502.5 1416.3,504.1 1416.3,518.3 				"/>
			</g>
		</g>
	</g>
</g>
</svg>
