<?xml version="1.0" encoding="utf-8"?>
<!-- Generator: Adobe Illustrator 23.0.4, SVG Export Plug-In . SVG Version: 6.00 Build 0)  -->
<svg version="1.1" id="Layer_1" xmlns="http://www.w3.org/2000/svg" xmlns:xlink="http://www.w3.org/1999/xlink" x="0px" y="0px"
	 viewBox="0 0 21.64 61.18" style="enable-background:new 0 0 21.64 61.18;" xml:space="preserve">
<style type="text/css">
	.st0{fill:none;stroke:#000000;stroke-linecap:round;stroke-miterlimit:10;}
</style>
<path d="M0.03,19.84c0-3.08-0.07-6.17,0.01-9.25C0.19,5.02,4.28,0.66,9.81,0.06c5.27-0.57,10.27,3.05,11.54,8.38
	c0.15,0.63,0.23,1.28,0.24,1.92c0.02,6.33,0.11,12.66-0.02,18.98c-0.1,4.55-2.47,7.83-6.62,9.54c-4.15,1.71-8.09,0.99-11.46-2.03
	c-2.14-1.92-3.36-4.37-3.43-7.28c-0.07-3.24-0.02-6.49-0.02-9.74C0.04,19.84,0.03,19.84,0.03,19.84z M1.42,19.73
	c0,3.03-0.03,6.06,0.01,9.09c0.07,5.3,4.17,9.45,9.31,9.5c5.2,0.05,9.42-4.13,9.47-9.5c0.06-5.95,0.06-11.9,0-17.85
	C20.15,5.55,16,1.46,10.74,1.5c-5.2,0.05-9.23,4.12-9.31,9.46C1.38,13.88,1.42,16.81,1.42,19.73z"/>
<path d="M10.78,11.2c-1.17-0.02-2.16-1.03-2.13-2.19c0.03-1.15,1.07-2.15,2.21-2.13c1.16,0.02,2.15,1.05,2.13,2.21
	C12.97,10.26,11.96,11.22,10.78,11.2z"/>
<polyline class="st0" points="0.82,42.47 10.82,52.47 20.82,42.47 "/>
<polyline class="st0" points="0.82,50.47 10.82,60.47 20.82,50.47 "/>
</svg>
